<svg width="182" height="252" viewBox="0 0 182 252" fill="none" xmlns="http://www.w3.org/2000/svg">
<path d="M0.000768314 233.612V14.3699C0.000768314 3.36194 7.48201 1.22149 11.2226 1.52726H113.566L180 71.2444V233.612C180 245.721 176.352 251.5 170.125 251.5H14.3649C-0.358281 251.5 0.000833129 239.811 0.000768314 233.612Z" fill="#262231"/>
<path d="M113.538 54.4144V1.5L179.998 71.2356H132.391C116.591 71.2356 113.239 60.1391 113.538 54.4144Z" fill="#2F2D36" stroke="#403E4A"/>
<rect x="33" y="96.5" width="23" height="49" fill="#E94B35"/>
<rect x="61" y="105.5" width="22" height="40" fill="#F4CC20"/>
<rect x="88" y="116.5" width="23" height="29" fill="#2B3E51"/>
<rect x="117" y="79.5" width="23" height="66" fill="#00BD9C"/>
<rect x="33" y="154.5" width="107" height="6" fill="#C1C7CB"/>
<ellipse cx="110.5" cy="187.5" rx="5.5" ry="5" fill="#F4CC20"/>
<circle cx="110.5" cy="199" r="5.5" fill="#00BD9C"/>
<ellipse cx="110.5" cy="210.5" rx="5.5" ry="5" fill="#2B3E51"/>
<circle cx="110.5" cy="223" r="5.5" fill="#E93717"/>
<rect x="120" y="185.5" width="30" height="3" fill="#C4C4C4"/>
<rect x="120" y="197.5" width="23" height="2" fill="#C4C4C4"/>
<rect x="120" y="209.5" width="25" height="3" fill="#C4C4C4"/>
<rect x="120" y="219.5" width="28" height="3" fill="#C4C4C4"/>
<ellipse cx="63.5" cy="204.5" rx="31.5" ry="31" fill="#00BD9C"/>
<path fill-rule="evenodd" clip-rule="evenodd" d="M83.6173 180.644C78.1607 176.183 71.1487 173.5 63.5001 173.5C60.6749 173.5 57.9367 173.866 55.3315 174.552L60.9998 203L83.6173 180.644Z" fill="#F4CC20"/>
<path fill-rule="evenodd" clip-rule="evenodd" d="M63.5895 235.5C63.5596 235.5 63.5298 235.5 63.4999 235.5C52.2014 235.5 42.2923 229.646 36.7334 220.852L60.9998 203L63.5895 235.5Z" fill="#2B3E51"/>
<path fill-rule="evenodd" clip-rule="evenodd" d="M94.9992 204.276C94.9552 211.364 92.598 217.902 88.6447 223.175C82.8943 230.662 73.7713 235.5 63.5 235.5C63.4316 235.5 63.3632 235.5 63.2949 235.499L61 203L81.382 178.976C89.5512 184.529 94.9239 193.783 94.9992 204.276Z" fill="#E94B35"/>
</svg>
