<svg width="183" height="253" viewBox="0 0 183 253" fill="none" xmlns="http://www.w3.org/2000/svg">
<path d="M1.62773 233.99V14.7477C1.62773 3.73974 9.10897 1.5993 12.8496 1.90507H115.193L181.627 71.6222V233.99C181.627 246.099 177.979 251.878 171.752 251.878H15.9918C1.26868 251.878 1.62779 240.188 1.62773 233.99Z" fill="#22A466" stroke="#04995B" stroke-width="2"/>
<rect x="45.1689" y="130.79" width="97.855" height="86.6878" fill="white"/>
<rect x="57.064" y="144.091" width="32.7678" height="15.5946" fill="#22A466"/>
<rect x="99.707" y="144.091" width="32.7678" height="15.5946" fill="#22A466"/>
<rect x="57.064" y="166.337" width="32.7678" height="15.5946" fill="#22A466"/>
<rect x="99.707" y="166.337" width="32.7678" height="15.5946" fill="#22A466"/>
<rect x="57.064" y="188.582" width="32.7678" height="15.5946" fill="#22A466"/>
<rect x="99.707" y="188.582" width="32.7678" height="15.5946" fill="#22A466"/>
<path d="M181.627 136.285L124.927 69.8808L181.627 71.6135V136.285Z" fill="#1A8E5A"/>
<path d="M115.165 54.7922V1.87781L181.625 71.6134H134.018C118.218 71.6134 114.866 60.5169 115.165 54.7922Z" fill="#8ECEAF" stroke="#04995B"/>
</svg>
