<svg width="160" height="211" viewBox="0 0 160 211" fill="none" xmlns="http://www.w3.org/2000/svg">
<rect y="0.5" width="160" height="210" rx="18" fill="#262231"/>
<path fill-rule="evenodd" clip-rule="evenodd" d="M65.2537 78.0805C65.2537 85.9996 60.2101 92.79 53.033 95.6635V121.474C55.8023 119.691 60.5187 117.422 66.5571 116.488C74.6391 115.239 83.8834 115.213 87.4953 115.356C94.0826 115.356 102.888 111.675 105.358 106.334C99.0476 103.142 94.7462 96.7912 94.7462 89.4779C94.7462 78.9581 103.646 70.4301 114.625 70.4301C125.604 70.4301 134.504 78.9581 134.504 89.4779C134.504 98.1678 128.431 105.499 120.13 107.786C118.33 113.371 111.619 123.602 96.8645 125.622C89.8905 126.309 81.3578 126.533 77.9631 126.559C64.23 127.355 56.7259 132.941 54.5916 136.766C60.9297 139.95 65.2537 146.315 65.2537 153.647C65.2537 164.167 56.3535 172.695 45.3746 172.695C34.3957 172.695 25.4956 164.167 25.4956 153.647C25.4956 145.849 30.387 139.144 37.3905 136.198V95.5297C30.387 92.5833 25.4956 85.8792 25.4956 78.0805C25.4956 67.5606 34.3958 59.0326 45.3747 59.0326C56.3535 59.0326 65.2537 67.5606 65.2537 78.0805ZM45.3747 84.3256C48.9743 84.3256 51.8924 81.5296 51.8924 78.0805C51.8924 74.6313 48.9743 71.8353 45.3747 71.8353C41.775 71.8353 38.857 74.6313 38.857 78.0805C38.857 81.5296 41.775 84.3256 45.3747 84.3256ZM114.625 95.7231C118.225 95.7231 121.143 92.9271 121.143 89.4779C121.143 86.0288 118.225 83.2327 114.625 83.2327C111.026 83.2327 108.108 86.0288 108.108 89.4779C108.108 92.9271 111.026 95.7231 114.625 95.7231ZM51.8924 153.647C51.8924 157.096 48.9743 159.892 45.3747 159.892C41.7751 159.892 38.857 157.096 38.857 153.647C38.857 150.198 41.7751 147.402 45.3747 147.402C48.9743 147.402 51.8924 150.198 51.8924 153.647Z" fill="white"/>
<path d="M53.033 95.6635L52.7542 94.9672L52.283 95.1559V95.6635H53.033ZM53.033 121.474H52.283V122.849L53.4389 122.105L53.033 121.474ZM66.5571 116.488L66.4426 115.747L66.5571 116.488ZM87.4953 115.356L87.4656 116.106L87.4804 116.106H87.4953V115.356ZM105.358 106.334L106.039 106.649L106.343 105.992L105.697 105.665L105.358 106.334ZM120.13 107.786L119.931 107.063L119.541 107.171L119.416 107.556L120.13 107.786ZM96.8645 125.622L96.938 126.368L96.9521 126.367L96.9662 126.365L96.8645 125.622ZM77.9631 126.559L77.9574 125.809L77.9385 125.809L77.9197 125.81L77.9631 126.559ZM54.5916 136.766L53.9367 136.401L53.555 137.085L54.255 137.436L54.5916 136.766ZM37.3905 136.198L37.6813 136.889L38.1405 136.696V136.198H37.3905ZM37.3905 95.5297H38.1405V95.0316L37.6813 94.8384L37.3905 95.5297ZM53.3117 96.3597C60.7493 93.3821 66.0037 86.3315 66.0037 78.0805H64.5037C64.5037 85.6677 59.671 92.198 52.7542 94.9672L53.3117 96.3597ZM53.783 121.474V95.6635H52.283V121.474H53.783ZM66.4426 115.747C60.2849 116.699 55.4704 119.013 52.627 120.843L53.4389 122.105C56.1341 120.37 60.7526 118.144 66.6717 117.23L66.4426 115.747ZM87.525 114.607C83.8852 114.463 74.5889 114.488 66.4426 115.747L66.6717 117.23C74.6893 115.99 83.8816 115.964 87.4656 116.106L87.525 114.607ZM104.678 106.019C103.548 108.461 100.91 110.617 97.648 112.171C94.4032 113.717 90.6647 114.606 87.4953 114.606V116.106C90.9131 116.106 94.8709 115.156 98.2931 113.525C101.698 111.903 104.698 109.548 106.039 106.649L104.678 106.019ZM105.697 105.665C99.6173 102.59 95.4962 96.4854 95.4962 89.4779H93.9962C93.9962 97.0971 98.4779 103.694 105.02 107.003L105.697 105.665ZM95.4962 89.4779C95.4962 79.4022 104.03 71.1801 114.625 71.1801V69.6801C103.263 69.6801 93.9962 78.514 93.9962 89.4779H95.4962ZM114.625 71.1801C125.22 71.1801 133.754 79.4022 133.754 89.4779H135.254C135.254 78.514 125.988 69.6801 114.625 69.6801V71.1801ZM133.754 89.4779C133.754 97.8027 127.934 104.858 119.931 107.063L120.329 108.509C128.928 106.139 135.254 98.5329 135.254 89.4779H133.754ZM96.9662 126.365C112.068 124.298 118.976 113.811 120.844 108.016L119.416 107.556C117.684 112.931 111.17 122.907 96.7628 124.879L96.9662 126.365ZM77.9689 127.309C81.3742 127.283 89.9322 127.058 96.938 126.368L96.791 124.876C89.8489 125.559 81.3413 125.783 77.9574 125.809L77.9689 127.309ZM55.2466 137.132C57.2114 133.61 64.4225 128.095 78.0066 127.307L77.9197 125.81C64.0375 126.615 56.2404 132.272 53.9367 136.401L55.2466 137.132ZM66.0037 153.647C66.0037 146.008 61.4984 139.396 54.9283 136.096L54.255 137.436C60.3609 140.504 64.5037 146.621 64.5037 153.647H66.0037ZM45.3746 173.445C56.7372 173.445 66.0037 164.611 66.0037 153.647H64.5037C64.5037 163.723 55.9698 171.945 45.3746 171.945V173.445ZM24.7456 153.647C24.7456 164.611 34.012 173.445 45.3746 173.445V171.945C34.7795 171.945 26.2456 163.723 26.2456 153.647H24.7456ZM37.0996 135.507C29.8416 138.56 24.7456 145.522 24.7456 153.647H26.2456C26.2456 146.175 30.9324 139.729 37.6813 136.889L37.0996 135.507ZM36.6405 95.5297V136.198H38.1405V95.5297H36.6405ZM24.7456 78.0805C24.7456 86.206 29.8416 93.1675 37.0996 96.221L37.6813 94.8384C30.9324 91.9991 26.2456 85.5525 26.2456 78.0805H24.7456ZM45.3747 58.2826C34.0121 58.2826 24.7456 67.1166 24.7456 78.0805H26.2456C26.2456 68.0047 34.7795 59.7826 45.3747 59.7826V58.2826ZM66.0037 78.0805C66.0037 67.1166 56.7372 58.2826 45.3747 58.2826V59.7826C55.9698 59.7826 64.5037 68.0047 64.5037 78.0805H66.0037ZM51.1424 78.0805C51.1424 81.0855 48.5906 83.5756 45.3747 83.5756V85.0756C49.358 85.0756 52.6424 81.9737 52.6424 78.0805H51.1424ZM45.3747 72.5853C48.5906 72.5853 51.1424 75.0754 51.1424 78.0805H52.6424C52.6424 74.1872 49.358 71.0853 45.3747 71.0853V72.5853ZM39.607 78.0805C39.607 75.0754 42.1588 72.5853 45.3747 72.5853V71.0853C41.3913 71.0853 38.107 74.1872 38.107 78.0805H39.607ZM45.3747 83.5756C42.1588 83.5756 39.607 81.0855 39.607 78.0805H38.107C38.107 81.9737 41.3913 85.0756 45.3747 85.0756V83.5756ZM120.393 89.4779C120.393 92.483 117.841 94.9731 114.625 94.9731V96.4731C118.609 96.4731 121.893 93.3711 121.893 89.4779H120.393ZM114.625 83.9827C117.841 83.9827 120.393 86.4729 120.393 89.4779H121.893C121.893 85.5847 118.609 82.4827 114.625 82.4827V83.9827ZM108.858 89.4779C108.858 86.4729 111.409 83.9827 114.625 83.9827V82.4827C110.642 82.4827 107.358 85.5847 107.358 89.4779H108.858ZM114.625 94.9731C111.409 94.9731 108.858 92.483 108.858 89.4779H107.358C107.358 93.3711 110.642 96.4731 114.625 96.4731V94.9731ZM45.3747 160.642C49.358 160.642 52.6424 157.54 52.6424 153.647H51.1424C51.1424 156.652 48.5906 159.142 45.3747 159.142V160.642ZM38.107 153.647C38.107 157.54 41.3913 160.642 45.3747 160.642V159.142C42.1588 159.142 39.607 156.652 39.607 153.647H38.107ZM45.3747 146.652C41.3913 146.652 38.107 149.754 38.107 153.647H39.607C39.607 150.642 42.1588 148.152 45.3747 148.152V146.652ZM52.6424 153.647C52.6424 149.754 49.358 146.652 45.3747 146.652V148.152C48.5906 148.152 51.1424 150.642 51.1424 153.647H52.6424Z" fill="#1A213D"/>
<rect x="66.7437" y="25.9262" width="74.4721" height="1.11923" fill="white" stroke="#3F56B0" stroke-width="1.11923"/>
<circle cx="66.1839" cy="26.4858" r="7.6873" fill="#F4CC20" stroke="#1A213D" stroke-width="1.5"/>
<circle cx="95.5423" cy="26.4858" r="7.6873" fill="#53AACF" stroke="#1A213D" stroke-width="1.5"/>
<circle cx="136.696" cy="26.4858" r="7.6873" fill="#E94B35" stroke="#1A213D" stroke-width="1.5"/>
</svg>
