<svg width="183" height="253" viewBox="0 0 183 253" fill="none" xmlns="http://www.w3.org/2000/svg">
<path d="M1.00078 233.612V14.3699C1.00078 3.36194 8.48201 1.22149 12.2226 1.52726H114.566L181 71.2444V233.612C181 245.721 177.352 251.5 171.125 251.5H15.3649C0.641727 251.5 1.00084 239.811 1.00078 233.612Z" fill="#F4B912" stroke="#FBE19D" stroke-width="2"/>
<path d="M179.944 135.907L123.244 69.503L179.944 71.2357V135.907Z" fill="#E69E0B"/>
<path d="M114.538 54.4144V1.5L180.998 71.2356H133.391C117.591 71.2356 114.239 60.1391 114.538 54.4144Z" fill="#FADC87" stroke="#FBE19D"/>
<path fill-rule="evenodd" clip-rule="evenodd" d="M56.1069 113.457C46.1658 113.457 38.1069 121.516 38.1069 131.457V203.132C38.1069 213.073 46.1658 221.132 56.1069 221.132H125.893C135.834 221.132 143.893 213.073 143.893 203.132V131.457C143.893 121.516 135.834 113.457 125.893 113.457H56.1069ZM130.67 143.052H50.7007V190.908H130.67V143.052Z" fill="#F1F1F1"/>
</svg>
