<svg width="160" height="211" viewBox="0 0 160 211" fill="none" xmlns="http://www.w3.org/2000/svg">
<rect y="0.5" width="160" height="210" rx="18" fill="#262231"/>
<rect x="23.9277" y="146.006" width="116.665" height="9.50918" fill="#C1C7CB" stroke="#1A213D" stroke-width="1.5"/>
<rect x="23.9277" y="167.732" width="116.665" height="9.50918" fill="#C1C7CB" stroke="#1A213D" stroke-width="1.5"/>
<rect x="131.287" y="113.787" width="10.4908" height="10.3349" fill="#00BD9C" stroke="#1A213D" stroke-width="1.5"/>
<rect x="131.287" y="86.1266" width="10.4908" height="10.3349" fill="#E94B35" stroke="#1A213D" stroke-width="1.5"/>
<rect x="131.287" y="58.4662" width="10.4908" height="10.3349" fill="#F4CC20" stroke="#1A213D" stroke-width="1.5"/>
<mask id="path-8-inside-1" fill="white">
<path fill-rule="evenodd" clip-rule="evenodd" d="M44.8379 33.6525V27.4308H37.2108V33.6525C36.0738 33.9608 34.9933 34.4036 33.9878 34.9625L29.8599 30.9212L24.4886 36.2657L28.5692 40.2607C27.9713 41.2858 27.4997 42.3917 27.1751 43.5577H20.958V51.0856L27.1751 51.0856C27.4947 52.2337 27.9569 53.3234 28.5417 54.3352L24.4886 58.3032L29.8599 63.6478L33.9394 59.6538C34.9586 60.2254 36.0556 60.6775 37.2108 60.9908V67.1382H44.8379V60.9908C45.9931 60.6775 47.0901 60.2254 48.1092 59.6538L52.1888 63.6478L57.56 58.3032L53.507 54.3352C54.0918 53.3234 54.554 52.2337 54.8736 51.0856L61.0906 51.0856V43.5577H54.8736C54.549 42.3917 54.0773 41.2858 53.4795 40.2607L57.56 36.2657L52.1888 30.9212L48.0609 34.9625C47.0554 34.4036 45.9748 33.9608 44.8379 33.6525ZM41.0244 54.4776C45.0286 54.4776 48.2746 51.2738 48.2746 47.3217C48.2746 43.3695 45.0286 40.1657 41.0244 40.1657C37.0202 40.1657 33.7741 43.3695 33.7741 47.3217C33.7741 51.2738 37.0202 54.4776 41.0244 54.4776Z"/>
</mask>
<path fill-rule="evenodd" clip-rule="evenodd" d="M44.8379 33.6525V27.4308H37.2108V33.6525C36.0738 33.9608 34.9933 34.4036 33.9878 34.9625L29.8599 30.9212L24.4886 36.2657L28.5692 40.2607C27.9713 41.2858 27.4997 42.3917 27.1751 43.5577H20.958V51.0856L27.1751 51.0856C27.4947 52.2337 27.9569 53.3234 28.5417 54.3352L24.4886 58.3032L29.8599 63.6478L33.9394 59.6538C34.9586 60.2254 36.0556 60.6775 37.2108 60.9908V67.1382H44.8379V60.9908C45.9931 60.6775 47.0901 60.2254 48.1092 59.6538L52.1888 63.6478L57.56 58.3032L53.507 54.3352C54.0918 53.3234 54.554 52.2337 54.8736 51.0856L61.0906 51.0856V43.5577H54.8736C54.549 42.3917 54.0773 41.2858 53.4795 40.2607L57.56 36.2657L52.1888 30.9212L48.0609 34.9625C47.0554 34.4036 45.9748 33.9608 44.8379 33.6525ZM41.0244 54.4776C45.0286 54.4776 48.2746 51.2738 48.2746 47.3217C48.2746 43.3695 45.0286 40.1657 41.0244 40.1657C37.0202 40.1657 33.7741 43.3695 33.7741 47.3217C33.7741 51.2738 37.0202 54.4776 41.0244 54.4776Z" fill="#53AACF"/>
<path d="M44.8379 27.4308H45.3379V26.9308H44.8379V27.4308ZM44.8379 33.6525H44.3379V34.035L44.707 34.1351L44.8379 33.6525ZM37.2108 27.4308V26.9308H36.7108V27.4308H37.2108ZM37.2108 33.6525L37.3417 34.1351L37.7108 34.035V33.6525H37.2108ZM33.9878 34.9625L33.638 35.3198L33.9046 35.5808L34.2307 35.3995L33.9878 34.9625ZM29.8599 30.9212L30.2097 30.5639L29.857 30.2187L29.5072 30.5667L29.8599 30.9212ZM24.4886 36.2657L24.1359 35.9113L23.7768 36.2686L24.1388 36.623L24.4886 36.2657ZM28.5692 40.2607L29.0011 40.5126L29.1974 40.176L28.919 39.9035L28.5692 40.2607ZM27.1751 43.5577V44.0577H27.5549L27.6568 43.6918L27.1751 43.5577ZM20.958 43.5577V43.0577H20.458V43.5577H20.958ZM20.958 51.0856H20.458V51.5856H20.958L20.958 51.0856ZM27.1751 51.0856L27.6568 50.9515L27.5549 50.5856H27.1751V51.0856ZM28.5417 54.3352L28.8915 54.6925L29.1688 54.421L28.9746 54.085L28.5417 54.3352ZM24.4886 58.3032L24.1388 57.9459L23.7768 58.3003L24.1359 58.6577L24.4886 58.3032ZM29.8599 63.6478L29.5072 64.0022L29.857 64.3503L30.2097 64.0051L29.8599 63.6478ZM33.9394 59.6538L34.184 59.2177L33.8573 59.0345L33.5897 59.2965L33.9394 59.6538ZM37.2108 60.9908H37.7108V60.6083L37.3417 60.5082L37.2108 60.9908ZM37.2108 67.1382H36.7108V67.6382H37.2108V67.1382ZM44.8379 67.1382V67.6382H45.3379V67.1382H44.8379ZM44.8379 60.9908L44.7071 60.5082L44.3379 60.6083V60.9908H44.8379ZM48.1092 59.6538L48.459 59.2966L48.1913 59.0345L47.8646 59.2177L48.1092 59.6538ZM52.1888 63.6478L51.839 64.0051L52.1916 64.3503L52.5414 64.0022L52.1888 63.6478ZM57.56 58.3032L57.9127 58.6577L58.2718 58.3003L57.9098 57.9459L57.56 58.3032ZM53.507 54.3352L53.0741 54.085L52.8799 54.421L53.1572 54.6925L53.507 54.3352ZM54.8736 51.0856V50.5856H54.4938L54.3919 50.9515L54.8736 51.0856ZM61.0906 51.0856V51.5856H61.5906V51.0856H61.0906ZM61.0906 43.5577H61.5906V43.0577H61.0906V43.5577ZM54.8736 43.5577L54.3919 43.6918L54.4938 44.0577H54.8736V43.5577ZM53.4795 40.2607L53.1297 39.9034L52.8513 40.176L53.0476 40.5126L53.4795 40.2607ZM57.56 36.2657L57.9098 36.623L58.2718 36.2686L57.9127 35.9113L57.56 36.2657ZM52.1888 30.9212L52.5414 30.5667L52.1916 30.2187L51.839 30.5639L52.1888 30.9212ZM48.0609 34.9625L47.8179 35.3995L48.144 35.5808L48.4106 35.3198L48.0609 34.9625ZM44.3379 27.4308V33.6525H45.3379V27.4308H44.3379ZM37.2108 27.9308H44.8379V26.9308H37.2108V27.9308ZM37.7108 33.6525V27.4308H36.7108V33.6525H37.7108ZM34.2307 35.3995C35.2013 34.8601 36.2442 34.4327 37.3417 34.1351L37.0799 33.17C35.9035 33.489 34.7853 33.9472 33.7449 34.5255L34.2307 35.3995ZM29.5101 31.2785L33.638 35.3198L34.3376 34.6052L30.2097 30.5639L29.5101 31.2785ZM24.8413 36.6202L30.2125 31.2756L29.5072 30.5667L24.1359 35.9113L24.8413 36.6202ZM28.919 39.9035L24.8384 35.9085L24.1388 36.623L28.2194 40.618L28.919 39.9035ZM27.6568 43.6918C27.9697 42.5678 28.4245 41.5014 29.0011 40.5126L28.1373 40.0088C27.5182 41.0703 27.0297 42.2157 26.6934 43.4236L27.6568 43.6918ZM20.958 44.0577H27.1751V43.0577H20.958V44.0577ZM21.458 51.0856V43.5577H20.458V51.0856H21.458ZM27.1751 50.5856L20.958 50.5856L20.958 51.5856L27.1751 51.5856V50.5856ZM28.9746 54.085C28.4105 53.1091 27.9649 52.0583 27.6568 50.9515L26.6934 51.2197C27.0245 52.409 27.5032 53.5378 28.1088 54.5854L28.9746 54.085ZM24.8384 58.6605L28.8915 54.6925L28.1919 53.9779L24.1388 57.9459L24.8384 58.6605ZM30.2125 63.2934L24.8413 57.9488L24.1359 58.6577L29.5072 64.0022L30.2125 63.2934ZM33.5897 59.2965L29.5101 63.2905L30.2097 64.0051L34.2892 60.0111L33.5897 59.2965ZM37.3417 60.5082C36.2266 60.2059 35.1678 59.7695 34.184 59.2177L33.6948 60.0899C34.7494 60.6814 35.8846 61.1492 37.08 61.4734L37.3417 60.5082ZM37.7108 67.1382V60.9908H36.7108V67.1382H37.7108ZM44.8379 66.6382H37.2108V67.6382H44.8379V66.6382ZM44.3379 60.9908V67.1382H45.3379V60.9908H44.3379ZM47.8646 59.2177C46.8809 59.7695 45.8221 60.2059 44.7071 60.5082L44.9688 61.4734C46.1641 61.1492 47.2992 60.6814 48.3538 60.0899L47.8646 59.2177ZM52.5385 63.2905L48.459 59.2966L47.7594 60.0111L51.839 64.0051L52.5385 63.2905ZM57.2074 57.9488L51.8361 63.2934L52.5414 64.0022L57.9127 58.6577L57.2074 57.9488ZM53.1572 54.6925L57.2102 58.6605L57.9098 57.9459L53.8568 53.9779L53.1572 54.6925ZM54.3919 50.9515C54.0838 52.0583 53.6382 53.1091 53.0741 54.085L53.9399 54.5854C54.5455 53.5378 55.0242 52.409 55.3553 51.2197L54.3919 50.9515ZM61.0906 50.5856L54.8736 50.5856V51.5856L61.0906 51.5856V50.5856ZM60.5906 43.5577V51.0856H61.5906V43.5577H60.5906ZM54.8736 44.0577H61.0906V43.0577H54.8736V44.0577ZM53.0476 40.5126C53.6242 41.5014 54.079 42.5677 54.3919 43.6918L55.3553 43.4236C55.019 42.2157 54.5304 41.0703 53.9114 40.0088L53.0476 40.5126ZM57.2102 35.9085L53.1297 39.9034L53.8293 40.618L57.9098 36.623L57.2102 35.9085ZM51.8361 31.2756L57.2074 36.6202L57.9127 35.9113L52.5414 30.5667L51.8361 31.2756ZM48.4106 35.3198L52.5385 31.2785L51.839 30.5639L47.7111 34.6052L48.4106 35.3198ZM44.707 34.1351C45.8045 34.4327 46.8474 34.8601 47.8179 35.3995L48.3038 34.5255C47.2633 33.9472 46.1452 33.489 44.9688 33.17L44.707 34.1351ZM47.7746 47.3217C47.7746 50.9915 44.7586 53.9776 41.0244 53.9776V54.9776C45.2985 54.9776 48.7746 51.5561 48.7746 47.3217H47.7746ZM41.0244 40.6657C44.7586 40.6657 47.7746 43.6518 47.7746 47.3217H48.7746C48.7746 43.0872 45.2985 39.6657 41.0244 39.6657V40.6657ZM34.2741 47.3217C34.2741 43.6518 37.2901 40.6657 41.0244 40.6657V39.6657C36.7502 39.6657 33.2741 43.0872 33.2741 47.3217H34.2741ZM41.0244 53.9776C37.2901 53.9776 34.2741 50.9915 34.2741 47.3217H33.2741C33.2741 51.5561 36.7502 54.9776 41.0244 54.9776V53.9776Z" fill="#1A213D" mask="url(#path-8-inside-1)"/>
<mask id="path-10-inside-2" fill="white">
<path fill-rule="evenodd" clip-rule="evenodd" d="M50.5093 84.6856V77.8552H42.1359V84.6857C40.8878 85.0241 39.7015 85.5102 38.5976 86.1238L34.0658 81.687L28.169 87.5545L32.6489 91.9404C31.9925 93.0658 31.4747 94.2799 31.1184 95.56H24.293V103.824H31.1184C31.4692 105.085 31.9766 106.281 32.6186 107.392L28.169 111.748L34.0658 117.616L38.5445 113.231C39.6634 113.858 40.8677 114.355 42.1359 114.699V121.448H50.5093V114.699C51.7775 114.355 52.9818 113.859 54.1007 113.231L58.5794 117.616L64.4762 111.748L60.0266 107.392C60.6687 106.281 61.1761 105.085 61.5269 103.824H68.3523V95.56H61.5269C61.1706 94.2799 60.6528 93.0658 59.9964 91.9404L64.4762 87.5545L58.5794 81.687L54.0476 86.1238C52.9438 85.5102 51.7575 85.0241 50.5093 84.6856ZM46.3226 107.548C50.7186 107.548 54.2823 104.031 54.2823 99.6922C54.2823 95.3534 50.7186 91.8361 46.3226 91.8361C41.9267 91.8361 38.363 95.3534 38.363 99.6922C38.363 104.031 41.9267 107.548 46.3226 107.548Z"/>
</mask>
<path fill-rule="evenodd" clip-rule="evenodd" d="M50.5093 84.6856V77.8552H42.1359V84.6857C40.8878 85.0241 39.7015 85.5102 38.5976 86.1238L34.0658 81.687L28.169 87.5545L32.6489 91.9404C31.9925 93.0658 31.4747 94.2799 31.1184 95.56H24.293V103.824H31.1184C31.4692 105.085 31.9766 106.281 32.6186 107.392L28.169 111.748L34.0658 117.616L38.5445 113.231C39.6634 113.858 40.8677 114.355 42.1359 114.699V121.448H50.5093V114.699C51.7775 114.355 52.9818 113.859 54.1007 113.231L58.5794 117.616L64.4762 111.748L60.0266 107.392C60.6687 106.281 61.1761 105.085 61.5269 103.824H68.3523V95.56H61.5269C61.1706 94.2799 60.6528 93.0658 59.9964 91.9404L64.4762 87.5545L58.5794 81.687L54.0476 86.1238C52.9438 85.5102 51.7575 85.0241 50.5093 84.6856ZM46.3226 107.548C50.7186 107.548 54.2823 104.031 54.2823 99.6922C54.2823 95.3534 50.7186 91.8361 46.3226 91.8361C41.9267 91.8361 38.363 95.3534 38.363 99.6922C38.363 104.031 41.9267 107.548 46.3226 107.548Z" fill="#F4CC20"/>
<path d="M50.5093 77.8552H51.0093V77.3552H50.5093V77.8552ZM50.5093 84.6856H50.0093V85.0681L50.3784 85.1682L50.5093 84.6856ZM42.1359 77.8552V77.3552H41.6359V77.8552H42.1359ZM42.1359 84.6857L42.2668 85.1682L42.6359 85.0681V84.6857H42.1359ZM38.5976 86.1238L38.2479 86.4811L38.5145 86.7421L38.8406 86.5608L38.5976 86.1238ZM34.0658 81.687L34.4156 81.3298L34.063 80.9845L33.7132 81.3326L34.0658 81.687ZM28.169 87.5545L27.8164 87.2001L27.4573 87.5574L27.8193 87.9118L28.169 87.5545ZM32.6489 91.9404L33.0808 92.1923L33.2771 91.8557L32.9986 91.5831L32.6489 91.9404ZM31.1184 95.56V96.06H31.4982L31.6 95.694L31.1184 95.56ZM24.293 95.56V95.06H23.793V95.56H24.293ZM24.293 103.824H23.793V104.324H24.293V103.824ZM31.1184 103.824L31.6 103.69L31.4982 103.324H31.1184V103.824ZM32.6186 107.392L32.9684 107.749L33.2457 107.478L33.0515 107.142L32.6186 107.392ZM28.169 111.748L27.8193 111.391L27.4573 111.745L27.8164 112.103L28.169 111.748ZM34.0658 117.616L33.7132 117.97L34.063 118.318L34.4156 117.973L34.0658 117.616ZM38.5445 113.231L38.7891 112.795L38.4624 112.612L38.1948 112.874L38.5445 113.231ZM42.1359 114.699H42.6359V114.316L42.2668 114.216L42.1359 114.699ZM42.1359 121.448H41.6359V121.948H42.1359V121.448ZM50.5093 121.448V121.948H51.0093V121.448H50.5093ZM50.5093 114.699L50.3784 114.216L50.0093 114.316V114.699H50.5093ZM54.1007 113.231L54.4505 112.874L54.1828 112.612L53.8561 112.795L54.1007 113.231ZM58.5794 117.616L58.2296 117.973L58.5823 118.318L58.9321 117.97L58.5794 117.616ZM64.4762 111.748L64.8289 112.103L65.188 111.745L64.826 111.391L64.4762 111.748ZM60.0266 107.392L59.5937 107.142L59.3995 107.478L59.6768 107.749L60.0266 107.392ZM61.5269 103.824V103.324H61.1471L61.0452 103.69L61.5269 103.824ZM68.3523 103.824V104.324H68.8523V103.824H68.3523ZM68.3523 95.56H68.8523V95.06H68.3523V95.56ZM61.5269 95.56L61.0452 95.694L61.1471 96.06H61.5269V95.56ZM59.9964 91.9404L59.6466 91.5831L59.3682 91.8557L59.5645 92.1923L59.9964 91.9404ZM64.4762 87.5545L64.826 87.9118L65.188 87.5574L64.8289 87.2001L64.4762 87.5545ZM58.5794 81.687L58.9321 81.3326L58.5823 80.9845L58.2296 81.3298L58.5794 81.687ZM54.0476 86.1238L53.8047 86.5608L54.1308 86.7421L54.3974 86.4811L54.0476 86.1238ZM50.0093 77.8552V84.6856H51.0093V77.8552H50.0093ZM42.1359 78.3552H50.5093V77.3552H42.1359V78.3552ZM42.6359 84.6857V77.8552H41.6359V84.6857H42.6359ZM38.8406 86.5608C39.9095 85.9667 41.0581 85.496 42.2668 85.1682L42.0051 84.2031C40.7174 84.5523 39.4935 85.0538 38.3547 85.6867L38.8406 86.5608ZM33.7161 82.0443L38.2479 86.4811L38.9474 85.7665L34.4156 81.3298L33.7161 82.0443ZM28.5217 87.909L34.4185 82.0415L33.7132 81.3326L27.8164 87.2001L28.5217 87.909ZM32.9986 91.5831L28.5188 87.1973L27.8193 87.9118L32.2991 92.2977L32.9986 91.5831ZM31.6 95.694C31.9447 94.4559 32.4456 93.2813 33.0808 92.1923L32.217 91.6885C31.5394 92.8502 31.0047 94.1039 30.6367 95.4259L31.6 95.694ZM24.293 96.06H31.1184V95.06H24.293V96.06ZM24.793 103.824V95.56H23.793V103.824H24.793ZM31.1184 103.324H24.293V104.324H31.1184V103.324ZM33.0515 107.142C32.4302 106.067 31.9394 104.909 31.6 103.69L30.6367 103.959C30.999 105.26 31.523 106.496 32.1858 107.642L33.0515 107.142ZM28.5188 112.105L32.9684 107.749L32.2689 107.035L27.8193 111.391L28.5188 112.105ZM34.4185 117.261L28.5217 111.394L27.8164 112.103L33.7132 117.97L34.4185 117.261ZM38.1948 112.874L33.7161 117.258L34.4156 117.973L38.8943 113.588L38.1948 112.874ZM42.2668 114.216C41.0387 113.883 39.8726 113.403 38.7891 112.795L38.3 113.667C39.4543 114.314 40.6967 114.827 42.0051 115.181L42.2668 114.216ZM42.6359 121.448V114.699H41.6359V121.448H42.6359ZM50.5093 120.948H42.1359V121.948H50.5093V120.948ZM50.0093 114.699V121.448H51.0093V114.699H50.0093ZM53.8561 112.795C52.7727 113.403 51.6065 113.883 50.3784 114.216L50.6402 115.181C51.9485 114.827 53.191 114.314 54.3453 113.667L53.8561 112.795ZM58.9292 117.258L54.4505 112.874L53.7509 113.588L58.2296 117.973L58.9292 117.258ZM64.1235 111.394L58.2267 117.261L58.9321 117.97L64.8289 112.103L64.1235 111.394ZM59.6768 107.749L64.1264 112.105L64.826 111.391L60.3764 107.035L59.6768 107.749ZM61.0452 103.69C60.7059 104.909 60.215 106.067 59.5937 107.142L60.4595 107.642C61.1223 106.496 61.6463 105.26 62.0086 103.959L61.0452 103.69ZM68.3523 103.324H61.5269V104.324H68.3523V103.324ZM67.8523 95.56V103.824H68.8523V95.56H67.8523ZM61.5269 96.06H68.3523V95.06H61.5269V96.06ZM59.5645 92.1923C60.1996 93.2813 60.7006 94.4559 61.0452 95.694L62.0086 95.4259C61.6406 94.1039 61.1059 92.8502 60.4283 91.6885L59.5645 92.1923ZM64.1264 87.1973L59.6466 91.5831L60.3462 92.2977L64.826 87.9118L64.1264 87.1973ZM58.2267 82.0415L64.1235 87.909L64.8289 87.2001L58.9321 81.3326L58.2267 82.0415ZM54.3974 86.4811L58.9292 82.0443L58.2296 81.3298L53.6978 85.7665L54.3974 86.4811ZM50.3784 85.1682C51.5871 85.496 52.7358 85.9667 53.8047 86.5608L54.2905 85.6867C53.1517 85.0538 51.9279 84.5523 50.6402 84.2031L50.3784 85.1682ZM53.7823 99.6922C53.7823 103.749 50.4487 107.048 46.3226 107.048V108.048C50.9886 108.048 54.7823 104.313 54.7823 99.6922H53.7823ZM46.3226 92.3361C50.4487 92.3361 53.7823 95.6357 53.7823 99.6922H54.7823C54.7823 95.0711 50.9886 91.3361 46.3226 91.3361V92.3361ZM38.863 99.6922C38.863 95.6357 42.1966 92.3361 46.3226 92.3361V91.3361C41.6567 91.3361 37.863 95.0711 37.863 99.6922H38.863ZM46.3226 107.048C42.1966 107.048 38.863 103.749 38.863 99.6922H37.863C37.863 104.313 41.6567 108.048 46.3226 108.048V107.048Z" fill="#1A213D" mask="url(#path-10-inside-2)"/>
<mask id="path-12-inside-3" fill="white">
<path fill-rule="evenodd" clip-rule="evenodd" d="M81.0916 55.9552V50.7441H74.7035V55.9552C73.7512 56.2134 72.8462 56.5843 72.0041 57.0524L68.5467 53.6675L64.0479 58.1439L67.4657 61.4899C66.9649 62.3485 66.5699 63.2748 66.298 64.2514L61.0908 64.2514V70.5564H66.298C66.5657 71.518 66.9528 72.4307 67.4426 73.2782L64.0479 76.6016L68.5467 81.078L71.9636 77.7328C72.8172 78.2116 73.736 78.5903 74.7035 78.8526V84.0014H81.0917V78.8526C82.0592 78.5902 82.978 78.2116 83.8316 77.7328L87.2485 81.078L91.7472 76.6016L88.3526 73.2782C88.8424 72.4307 89.2295 71.518 89.4971 70.5564H94.7043V64.2514L89.4971 64.2514C89.2253 63.2748 88.8302 62.3485 88.3295 61.4899L91.7472 58.1439L87.2485 53.6675L83.7911 57.0524C82.9489 56.5843 82.0439 56.2134 81.0916 55.9552ZM77.8976 73.3975C81.2513 73.3975 83.9701 70.7141 83.9701 67.4039C83.9701 64.0938 81.2513 61.4104 77.8976 61.4104C74.5438 61.4104 71.8251 64.0938 71.8251 67.4039C71.8251 70.7141 74.5438 73.3975 77.8976 73.3975Z"/>
</mask>
<path fill-rule="evenodd" clip-rule="evenodd" d="M81.0916 55.9552V50.7441H74.7035V55.9552C73.7512 56.2134 72.8462 56.5843 72.0041 57.0524L68.5467 53.6675L64.0479 58.1439L67.4657 61.4899C66.9649 62.3485 66.5699 63.2748 66.298 64.2514L61.0908 64.2514V70.5564H66.298C66.5657 71.518 66.9528 72.4307 67.4426 73.2782L64.0479 76.6016L68.5467 81.078L71.9636 77.7328C72.8172 78.2116 73.736 78.5903 74.7035 78.8526V84.0014H81.0917V78.8526C82.0592 78.5902 82.978 78.2116 83.8316 77.7328L87.2485 81.078L91.7472 76.6016L88.3526 73.2782C88.8424 72.4307 89.2295 71.518 89.4971 70.5564H94.7043V64.2514L89.4971 64.2514C89.2253 63.2748 88.8302 62.3485 88.3295 61.4899L91.7472 58.1439L87.2485 53.6675L83.7911 57.0524C82.9489 56.5843 82.0439 56.2134 81.0916 55.9552ZM77.8976 73.3975C81.2513 73.3975 83.9701 70.7141 83.9701 67.4039C83.9701 64.0938 81.2513 61.4104 77.8976 61.4104C74.5438 61.4104 71.8251 64.0938 71.8251 67.4039C71.8251 70.7141 74.5438 73.3975 77.8976 73.3975Z" fill="#53CFA2"/>
<path d="M81.0916 50.7441H81.5916V50.2441H81.0916V50.7441ZM81.0916 55.9552H80.5916V56.3377L80.9608 56.4378L81.0916 55.9552ZM74.7035 50.7441V50.2441H74.2035V50.7441H74.7035ZM74.7035 55.9552L74.8343 56.4378L75.2035 56.3377V55.9552H74.7035ZM72.0041 57.0524L71.6543 57.4096L71.9209 57.6706L72.247 57.4894L72.0041 57.0524ZM68.5467 53.6675L68.8965 53.3102L68.5438 52.965L68.194 53.3131L68.5467 53.6675ZM64.0479 58.1439L63.6953 57.7895L63.3362 58.1468L63.6982 58.5012L64.0479 58.1439ZM67.4657 61.4899L67.8976 61.7418L68.0939 61.4052L67.8154 61.1327L67.4657 61.4899ZM66.298 64.2514V64.7514H66.6778L66.7797 64.3855L66.298 64.2514ZM61.0908 64.2514L61.0908 63.7514H60.5908V64.2514H61.0908ZM61.0908 70.5564H60.5908V71.0564H61.0908V70.5564ZM66.298 70.5564L66.7797 70.4224L66.6778 70.0564H66.298V70.5564ZM67.4426 73.2782L67.7924 73.6354L68.0697 73.3639L67.8755 73.0279L67.4426 73.2782ZM64.0479 76.6016L63.6982 76.2443L63.3362 76.5987L63.6953 76.956L64.0479 76.6016ZM68.5467 81.078L68.194 81.4324L68.5438 81.7805L68.8965 81.4353L68.5467 81.078ZM71.9636 77.7328L72.2081 77.2967L71.8814 77.1135L71.6138 77.3755L71.9636 77.7328ZM74.7035 78.8526H75.2035V78.4701L74.8344 78.37L74.7035 78.8526ZM74.7035 84.0014H74.2035V84.5014H74.7035V84.0014ZM81.0917 84.0014V84.5014H81.5917V84.0014H81.0917ZM81.0917 78.8526L80.9608 78.37L80.5917 78.4701V78.8526H81.0917ZM83.8316 77.7328L84.1814 77.3755L83.9137 77.1135L83.587 77.2967L83.8316 77.7328ZM87.2485 81.078L86.8987 81.4353L87.2513 81.7805L87.6011 81.4324L87.2485 81.078ZM91.7472 76.6016L92.0999 76.956L92.459 76.5987L92.097 76.2443L91.7472 76.6016ZM88.3526 73.2782L87.9197 73.0279L87.7255 73.3639L88.0028 73.6354L88.3526 73.2782ZM89.4971 70.5564V70.0564H89.1173L89.0155 70.4224L89.4971 70.5564ZM94.7043 70.5564V71.0564H95.2043V70.5564H94.7043ZM94.7043 64.2514H95.2043V63.7514H94.7043V64.2514ZM89.4971 64.2514L89.0155 64.3855L89.1173 64.7514H89.4971V64.2514ZM88.3295 61.4899L87.9797 61.1327L87.7013 61.4052L87.8976 61.7418L88.3295 61.4899ZM91.7472 58.1439L92.097 58.5012L92.459 58.1468L92.0999 57.7895L91.7472 58.1439ZM87.2485 53.6675L87.6011 53.3131L87.2513 52.965L86.8987 53.3102L87.2485 53.6675ZM83.7911 57.0524L83.5482 57.4894L83.8743 57.6706L84.1409 57.4096L83.7911 57.0524ZM80.5916 50.7441V55.9552H81.5916V50.7441H80.5916ZM74.7035 51.2441H81.0916V50.2441H74.7035V51.2441ZM75.2035 55.9552V50.7441H74.2035V55.9552H75.2035ZM72.247 57.4894C73.0542 57.0407 73.9216 56.6853 74.8343 56.4378L74.5726 55.4726C73.5808 55.7416 72.6383 56.1278 71.7612 56.6153L72.247 57.4894ZM68.1969 54.0248L71.6543 57.4096L72.3539 56.6951L68.8965 53.3102L68.1969 54.0248ZM64.4006 58.4983L68.8994 54.0219L68.194 53.3131L63.6953 57.7895L64.4006 58.4983ZM67.8154 61.1327L64.3977 57.7866L63.6982 58.5012L67.1159 61.8472L67.8154 61.1327ZM66.7797 64.3855C67.0399 63.4508 67.418 62.5641 67.8976 61.7418L67.0337 61.238C66.5118 62.133 66.0999 63.0988 65.8163 64.1173L66.7797 64.3855ZM61.0908 64.7514L66.298 64.7514V63.7514L61.0908 63.7514L61.0908 64.7514ZM61.5908 70.5564V64.2514H60.5908V70.5564H61.5908ZM66.298 70.0564H61.0908V71.0564H66.298V70.0564ZM67.8755 73.0279C67.4064 72.2164 67.0359 71.3426 66.7797 70.4224L65.8163 70.6905C66.0955 71.6934 66.4992 72.6451 67.0097 73.5284L67.8755 73.0279ZM64.3977 76.9589L67.7924 73.6354L67.0928 72.9209L63.6982 76.2443L64.3977 76.9589ZM68.8994 80.7236L64.4006 76.2472L63.6953 76.956L68.194 81.4324L68.8994 80.7236ZM71.6138 77.3755L68.1969 80.7207L68.8965 81.4353L72.3133 78.0901L71.6138 77.3755ZM74.8344 78.37C73.907 78.1186 73.0263 77.7556 72.2081 77.2967L71.719 78.1689C72.608 78.6676 73.5649 79.0619 74.5727 79.3352L74.8344 78.37ZM75.2035 84.0014V78.8526H74.2035V84.0014H75.2035ZM81.0917 83.5014H74.7035V84.5014H81.0917V83.5014ZM80.5917 78.8526V84.0014H81.5917V78.8526H80.5917ZM83.587 77.2967C82.7688 77.7556 81.8882 78.1186 80.9608 78.37L81.2225 79.3352C82.2302 79.0619 83.1872 78.6675 84.0762 78.1689L83.587 77.2967ZM87.5983 80.7207L84.1814 77.3755L83.4818 78.0901L86.8987 81.4353L87.5983 80.7207ZM91.3946 76.2472L86.8958 80.7236L87.6011 81.4324L92.0999 76.956L91.3946 76.2472ZM88.0028 73.6354L91.3974 76.9589L92.097 76.2443L88.7024 72.9209L88.0028 73.6354ZM89.0155 70.4224C88.7593 71.3426 88.3888 72.2164 87.9197 73.0279L88.7855 73.5284C89.296 72.6451 89.6997 71.6934 89.9788 70.6905L89.0155 70.4224ZM94.7043 70.0564H89.4971V71.0564H94.7043V70.0564ZM94.2043 64.2514V70.5564H95.2043V64.2514H94.2043ZM89.4971 64.7514L94.7043 64.7514V63.7514L89.4971 63.7514V64.7514ZM87.8976 61.7418C88.3771 62.5641 88.7553 63.4508 89.0155 64.3855L89.9788 64.1173C89.6953 63.0988 89.2834 62.133 88.7614 61.238L87.8976 61.7418ZM91.3974 57.7866L87.9797 61.1327L88.6793 61.8472L92.097 58.5012L91.3974 57.7866ZM86.8958 54.0219L91.3946 58.4983L92.0999 57.7895L87.6011 53.3131L86.8958 54.0219ZM84.1409 57.4096L87.5983 54.0248L86.8987 53.3102L83.4413 56.6951L84.1409 57.4096ZM80.9608 56.4378C81.8735 56.6853 82.741 57.0407 83.5482 57.4894L84.034 56.6153C83.1569 56.1278 82.2143 55.7416 81.2225 55.4726L80.9608 56.4378ZM83.4701 67.4039C83.4701 70.4318 80.9814 72.8975 77.8976 72.8975V73.8975C81.5213 73.8975 84.4701 70.9963 84.4701 67.4039H83.4701ZM77.8976 61.9104C80.9814 61.9104 83.4701 64.3761 83.4701 67.4039H84.4701C84.4701 63.8115 81.5213 60.9104 77.8976 60.9104V61.9104ZM72.3251 67.4039C72.3251 64.3761 74.8138 61.9104 77.8976 61.9104V60.9104C74.2739 60.9104 71.3251 63.8115 71.3251 67.4039H72.3251ZM77.8976 72.8975C74.8138 72.8975 72.3251 70.4318 72.3251 67.4039H71.3251C71.3251 70.9963 74.2739 73.8975 77.8976 73.8975V72.8975Z" fill="#1A213D" mask="url(#path-12-inside-3)"/>
</svg>
