<svg width="160" height="211" viewBox="0 0 160 211" fill="none" xmlns="http://www.w3.org/2000/svg">
<rect y="0.5" width="160" height="210" rx="18" fill="#262231"/>
<path d="M28.0524 129.96H34.0284C35.151 117.004 37.457 90.0287 37.7 85.7743C37.7 78.8923 42.9164 72.3231 48.6644 72.3231H75.455V61.3483C75.455 59.4453 77.1263 57.9073 80.1396 57.9073C80.1396 57.9073 84.6469 58.0116 84.6469 61.7393V72.3231H108.753C117.383 72.3231 121.364 79.6222 122.275 83.2718L126.175 129.778H131.746C133.822 129.778 135.848 131.759 135.848 134.522C135.848 137.285 134.48 139.475 131.746 139.475H114.122L121.718 166.743C122.225 168.15 122.437 171.289 119.237 172.582C116.409 173.724 113.716 173.02 112.704 169.766L103.942 139.475H84.6975V159.026C84.6975 161.92 82.5705 163.197 79.9117 163.197C77.3795 163.197 75.2778 162.196 75.2778 158.609V139.475H55.6786L47.1704 169.193C46.4108 170.688 44.1217 173.406 41.0425 172.321C39.6752 171.939 37.2341 170.079 38.4091 165.7C39.2194 162.78 44.0305 146.792 46.3348 139.162H27.4447C24.3807 139.162 24.1528 136.086 24.1528 134.574C24.1528 133.062 24.3048 129.96 28.0524 129.96Z" fill="white" stroke="#1A213D" stroke-width="1.5"/>
<path d="M46.9679 85.7222L42.8657 129.778L117.667 129.83C116.637 117.143 114.436 90.6543 113.868 86.1914C113.564 83.6367 112.552 81.7077 109.462 81.7077C109.462 81.6034 54.2606 81.7077 52.0829 81.7077C49.9052 81.7077 47.2717 82.4897 46.9679 85.7222Z" fill="#2B3E51" stroke="#1A213D" stroke-width="1.5"/>
<path d="M52.7668 117.526L67.5181 97.5615C68.8366 95.7771 71.3555 95.4067 73.1318 96.736L80.1252 101.97C81.9048 103.301 84.4277 102.928 85.7469 101.139C89.1294 96.5529 93.6316 90.4783 95.0544 88.6679C96.7449 86.5169 99.4433 87.2844 100.803 88.0475C100.974 88.1434 101.132 88.2613 101.271 88.399C102.405 89.5172 103.844 91.9746 101.866 94.3248C100.752 95.7324 90.1166 110.617 87.9895 113.641C86.2879 116.061 83.8705 115.675 82.8745 115.179L74.8171 109.799C73.0359 108.61 70.6348 109.033 69.3687 110.761C65.8584 115.551 61.1839 121.922 60.2367 123.182C58.7681 125.138 55.3749 124.851 53.805 123.834C52.235 122.817 51.3487 118.985 52.7668 117.526Z" fill="#00BD9C" stroke="#1A213D" stroke-width="1.5"/>
<rect x="104.408" y="26.9854" width="7.93519" height="16.9054" fill="#E94B35"/>
<rect x="114.068" y="30.0905" width="7.59018" height="13.8003" fill="#F4CC20"/>
<rect x="123.383" y="33.8856" width="7.93519" height="10.0052" fill="#2B3E51"/>
<rect x="133.388" y="21.1203" width="7.93519" height="22.7706" fill="#00BD9C"/>
<rect x="104.408" y="46.9959" width="36.9159" height="2.07005" fill="#C1C7CB"/>
</svg>
