<svg width="183" height="253" viewBox="0 0 183 253" fill="none" xmlns="http://www.w3.org/2000/svg">
<path d="M1.62773 233.99V14.7477C1.62773 3.73974 9.10897 1.5993 12.8496 1.90507H115.193L181.627 71.6222V233.99C181.627 246.099 177.979 251.878 171.752 251.878H15.9918C1.26868 251.878 1.62779 240.188 1.62773 233.99Z" fill="#2185F8" stroke="#2185F8" stroke-width="2"/>
<path d="M181.627 136.285L124.927 69.8808L181.627 71.6135V136.285Z" fill="#1D71CB"/>
<path d="M115.165 54.7922V1.87781L181.625 71.6134H134.018C118.218 71.6134 114.866 60.5169 115.165 54.7922Z" fill="#9BC5FF" stroke="#6AA8F1"/>
<rect x="32.6138" y="181.333" width="61.936" height="12.6641" fill="white"/>
<rect x="32.6138" y="155.833" width="114.436" height="12.6641" fill="white"/>
<rect x="32.6138" y="130.333" width="114.436" height="12.6641" fill="white"/>
<rect x="32.6138" y="103.083" width="114.436" height="12.6641" fill="white"/>
</svg>
