<svg width="822" height="401" viewBox="0 0 822 401" fill="none" xmlns="http://www.w3.org/2000/svg">
<path d="M521.366 177.212H599.793V247C599.793 249.209 598.002 251 595.793 251H525.366C523.157 251 521.366 249.209 521.366 247V177.212Z" fill="#53C9AC"/>
<path d="M606.155 223.266C606.155 223.266 601.207 178.758 597.544 176.316C592.277 182.542 590.582 195.551 590.582 195.551L595.598 224.586C593.838 226.522 590.371 230.868 590.582 232.768C590.794 234.669 594.014 238.663 595.598 240.423C607.211 232.61 606.155 227.292 606.155 223.266Z" fill="#F3B02B"/>
<path d="M749.165 253.335C754.307 253.335 760.926 252.18 763.593 251.603L774.307 255.068C770.878 257.841 759.164 260.363 753.736 261.277C747.069 261.662 731.536 265.104 719.308 270.302C707.08 275.501 708.737 293.093 711.165 301.709C712.118 305.897 713.508 314.994 714.308 319.615C715.308 325.391 719.308 351.094 721.451 358.891C723.594 366.689 726.121 379.492 724.9 379.756C722.647 380.243 713.451 377.567 709.023 376.797C709.023 376.219 708.765 373.62 707.737 367.844C706.451 360.624 695.88 320.192 694.737 312.828C693.594 305.464 685.88 281.638 685.452 276.006C685.023 270.375 687.166 267.487 689.166 262.433C690.766 258.389 693.547 256.608 694.737 256.223C697.928 255.935 706.08 255.299 713.165 255.068C722.022 254.779 742.736 253.335 749.165 253.335Z" fill="#755A45"/>
<path d="M676.738 122.717L624.739 179.466L651.417 235.204L727.022 228.995L676.738 122.717Z" fill="url(#paint0_linear)"/>
<path d="M169.925 122.717L221.923 179.466L195.534 235.276L119.64 228.995L169.925 122.717Z" fill="url(#paint1_linear)"/>
<rect x="515.652" y="291.287" width="88.4265" height="9.67475" rx="4" fill="#53C9AC"/>
<ellipse cx="601.223" cy="388.897" rx="3.53182" ry="3.57002" fill="black"/>
<ellipse cx="521.733" cy="388.897" rx="3.53182" ry="3.57002" fill="black"/>
<path d="M555.454 361.963C555.454 361.411 555.902 360.963 556.454 360.963H563.605C564.157 360.963 564.605 361.411 564.605 361.963V381.205H555.454V361.963Z" fill="#2D3647"/>
<path d="M556.804 349.588C556.804 349.036 557.251 348.589 557.804 348.589H562.626C563.179 348.589 563.626 349.036 563.626 349.589V360.963H556.804V349.588Z" fill="#4D5268"/>
<rect x="558.023" y="327.656" width="4.38494" height="20.933" fill="#A6A6A6"/>
<rect x="555.454" y="307.858" width="9.15043" height="19.7971" rx="1" fill="#2D3647"/>
<rect x="557.541" y="305.668" width="5.45821" height="2.19066" fill="#868998"/>
<path d="M537.795 300.962H581.862V303.668C581.862 304.772 580.967 305.668 579.862 305.668H539.795C538.691 305.668 537.795 304.772 537.795 303.668V300.962Z" fill="#4D5268"/>
<path d="M560.27 383.62C576.195 382.841 596.658 384.918 604.899 386.054C606.111 386.221 606.287 384.711 605.501 384.492C596.896 382.09 571.829 380.456 560.27 379.888V383.62Z" fill="#070E1A"/>
<path d="M560.27 383.62C544.345 382.841 523.882 384.918 515.642 386.054C514.43 386.221 514.254 384.711 515.04 384.492C523.644 382.09 548.712 380.456 560.27 379.888V383.62Z" fill="#070E1A"/>
<rect x="558.023" y="383.39" width="4.38494" height="4.28708" fill="black"/>
<path d="M547.332 341.879C546.303 348.117 544.629 368.942 543.868 378.52C538.725 385.22 531.808 382.575 529.189 379.784C529.761 371.553 529.761 334.226 528.904 324.984C528.047 315.743 526.618 291.339 526.332 278.921C526.104 268.986 529.285 263.615 530.904 262.171H590.188C590.902 263.951 592.588 268.12 593.616 270.546C594.902 273.578 595.474 296.971 594.616 302.891C593.759 308.811 592.331 339.135 592.331 354.008C592.331 365.907 592.997 376.968 593.331 381.011H578.617C578.617 375.813 575.617 344.334 574.617 335.092C573.817 327.699 569.903 308.041 568.046 299.137C564.903 297.837 554.903 298.415 552.903 299.137C550.903 299.859 548.617 334.081 547.332 341.879Z" fill="#04AFC3"/>
<path d="M520.761 174.123L504.19 234.482C509.676 234.482 516.38 237.948 519.047 239.68C519.39 234.944 523.951 214.699 526.189 205.169C527.218 210.367 526.618 233.327 526.189 244.157H594.188C591.474 232.172 597.709 180.242 597.995 177.499C598.281 174.755 592.902 174.123 590.617 172.968C588.331 171.813 541.332 168.058 530.475 168.636C521.79 169.098 520.38 172.487 520.761 174.123Z" fill="#F3B02B"/>
<path d="M531.904 160.838C534.418 153.445 542.094 154.677 545.617 156.218H579.331C587.331 158.817 588.759 166.903 586.759 169.214C584.759 171.524 585.045 175.567 581.045 177.877C577.045 180.188 572.76 179.899 568.188 183.942C563.617 187.985 563.331 189.429 558.189 185.964C553.046 182.498 540.475 176.433 537.046 175.567C533.618 174.701 528.761 170.08 531.904 160.838Z" fill="#E8CD42"/>
<path d="M541.831 166.181C542.291 164.772 544.622 163.597 545.826 163.746L554.26 169.502L577.688 161.56C579.688 160.983 581.259 163.871 580.402 166.181C579.555 168.463 576.341 172.434 573.784 175.592L573.688 175.712C571.116 178.888 568.974 177.733 565.974 180.621C562.974 183.509 561.26 183.798 560.402 182.643C559.545 181.487 555.831 177.444 552.545 175.712C549.917 174.325 540.366 170.674 541.831 166.181Z" fill="#FADDBF"/>
<path d="M544.19 143.366C544.875 141.402 546.571 142.548 547.333 143.366C548.018 145.561 547.047 149.19 546.475 150.73C542.047 150.586 543.333 145.821 544.19 143.366Z" fill="#FADDBF"/>
<path d="M583.072 151.019C582.272 149.286 580.929 150.297 580.358 151.019L578.501 156.218C579.453 157.036 581.701 158.499 583.072 157.806C584.787 156.94 584.072 153.185 583.072 151.019Z" fill="#FADDBF"/>
<path d="M545.332 158.095C544.646 164.91 549.189 167.77 549.189 167.77C549.189 167.77 556.103 176.809 560.903 176C566.903 174.99 571.903 170.224 574.331 167.77C576.76 165.315 579.617 155.496 579.617 154.196C579.617 152.896 582.617 146.11 582.331 142.644C582.102 139.872 584.617 136.579 585.902 135.28C583.188 134.269 585.188 133.114 584.045 132.536C583.131 132.074 585.95 131.285 587.474 130.948C585.998 130.707 582.36 129.677 579.617 127.482C576.188 124.739 576.903 121.417 569.188 118.963C561.474 116.508 558.189 118.674 556.332 119.685C554.846 120.493 553.998 120.022 553.76 119.685C554.046 121.706 554.103 125.721 552.046 125.605C549.989 125.489 549.284 127.867 549.189 129.071L547.475 127.482C547.284 130.563 547.018 137.186 547.475 139.034C548.046 141.345 546.189 149.575 545.332 158.095Z" fill="#2D3837"/>
<path d="M530.475 256.431V244.157H588.474L587.045 256.431H530.475Z" fill="#F3B02B"/>
<path d="M528.618 256.395H530.332L590.188 255.275V262.459H529.332L528.618 256.395Z" fill="#864541"/>
<path d="M524.793 202.117C524.463 200.325 524.001 195.796 524.793 192.813C525.478 190.233 525.554 188.175 525.491 187.168C525.478 187.031 525.465 186.899 525.453 186.775C525.468 186.879 525.481 187.011 525.491 187.168C525.757 189.98 526.151 195.348 525.849 197.135C525.532 199.009 525.013 201.238 524.793 202.117Z" fill="#D89A37"/>
<path d="M543.332 218.309L561.903 190.585L572.189 234.482L561.903 203.869L543.332 218.309Z" fill="#D89A37"/>
<path d="M531.618 379.278H527.903C527.523 383.321 527.432 390.331 527.432 392.393C527.432 394.768 530.006 397.906 536.67 397.906C543.335 397.906 544.903 393.119 544.903 390.686V378.267L540.903 379.278L541.617 372.925C538.303 370.73 533.57 372.01 531.618 372.925V379.278Z" fill="#807675"/>
<path d="M579.188 395.884L577.331 381.3L582.045 378.845V375.524C581.998 374.321 582.617 371.914 585.474 371.914C588.331 371.914 589.426 373.358 589.617 374.08V378.123H595.045V392.707C595.045 395.164 594.9 400.072 587.943 400.072C582.8 400.072 579.188 397.54 579.188 395.884Z" fill="#807675"/>
<rect x="530.689" y="377.257" width="11.5712" height="3.46558" fill="#92896C"/>
<path d="M595.852 187.105C595.671 190.009 595.174 194.562 594.948 196.475C595.552 198.769 595.103 206.504 595.334 211.884C595.379 212.943 595.291 214.21 595.928 214.68C595.912 213.976 596.404 211.547 596.802 207.165C597.299 201.688 596.078 183.476 595.852 187.105Z" fill="#E2A52A"/>
<rect x="581.724" y="377.257" width="8.60694" height="3.46558" fill="#92896C"/>
<path fill-rule="evenodd" clip-rule="evenodd" d="M527.618 270.401C531.523 268.187 540.589 264.048 545.618 265.203C550.646 266.358 553.427 270.69 554.189 272.712C552.57 275.118 548.589 280.451 545.618 282.531C541.952 285.096 555.822 280.909 556.731 276.912C556.08 280.263 552.617 287.617 543.618 291.484C535.486 294.977 538.927 304.612 541.588 312.065C542.667 315.085 543.618 317.748 543.618 319.497C543.618 321.035 543.213 323.8 542.712 327.226C541.238 337.305 538.927 353.105 543.618 360.218L545.337 360.069C546.038 352.484 546.789 345.168 547.332 341.879C547.775 339.192 548.337 333.367 548.965 326.856C550.159 314.473 551.592 299.61 552.903 299.137C554.903 298.415 564.903 297.837 568.046 299.137C569.903 308.041 573.817 327.699 574.617 335.092C575.079 339.362 575.968 348.379 576.791 357.358L580.474 357.041C579.141 347.607 576.874 325.273 578.474 311.411C580.087 297.438 574.455 295.671 570.565 294.451C569.631 294.158 568.797 293.897 568.189 293.505C565.046 291.484 564.475 288.884 565.617 285.708C566.115 284.325 566.667 285.24 567.555 286.716C568.708 288.629 570.428 291.484 573.331 291.484C575.645 291.484 575.125 290.958 573.724 289.538C572.01 287.802 568.975 284.728 568.189 279.643C566.76 270.401 576.474 268.091 584.474 270.401C589.833 271.949 593.028 274.414 594.429 275.967C594.209 273.295 593.935 271.296 593.616 270.546C592.588 268.12 590.902 263.951 590.188 262.171H530.904C529.878 263.086 528.225 265.578 527.209 269.809L527.618 270.401Z" fill="#0795AD"/>
<path d="M509.181 231.594C504.049 231.825 502.969 236.696 503.071 239.103V241.702H514.068H519.261C519.261 235.926 515.595 231.305 509.181 231.594Z" fill="#FAE1C6"/>
<path d="M511.187 238.236C512.092 237.397 513.427 237.397 514.333 238.236C515.319 239.151 514.333 241.702 514.333 241.702H511.187C511.187 241.702 510.2 239.151 511.187 238.236Z" fill="#FFD4A6"/>
<rect x="524.761" y="196.361" width="71.1587" height="47.7961" fill="#F5E7C2"/>
<path fill-rule="evenodd" clip-rule="evenodd" d="M524.761 197.04V244.157H594.426L524.761 197.04Z" fill="#EADFB6"/>
<ellipse cx="559.229" cy="220.259" rx="4.67344" ry="4.724" fill="#C0C06F"/>
<path d="M564.189 139.756C560.074 139.294 555.808 136.868 554.189 135.713C551.903 136.435 549.475 142.5 548.332 147.698C547.189 152.896 547.903 159.683 548.332 161.994C548.76 164.304 555.189 169.647 556.474 171.235C557.76 172.823 562.046 173.69 566.331 171.235C569.76 169.271 572.903 166.181 574.045 164.882C575.426 161.897 578.245 154.831 578.474 150.442C578.702 146.052 577.426 141.489 576.76 139.756C574.284 139.949 568.303 140.218 564.189 139.756Z" fill="#FADDBF"/>
<path fill-rule="evenodd" clip-rule="evenodd" d="M578.235 145.775C577.32 145.756 576.395 145.715 575.523 145.641C571.649 145.315 570.616 146.265 567.177 149.427C567.099 149.499 567.019 149.572 566.938 149.646C564.033 152.316 561.105 165.666 560.005 172.007C559.739 172.195 559.48 172.404 559.25 172.625C561.175 172.987 563.753 172.712 566.332 171.235C569.76 169.271 572.903 166.181 574.046 164.882C575.427 161.897 578.246 154.831 578.474 150.442C578.556 148.862 578.444 147.26 578.235 145.775Z" fill="#FCD2A2"/>
<path d="M245.002 60.6546C248.202 58.8063 252.109 52.3847 253.252 49.4005C255.966 52.2884 262.434 58.0247 264.377 60.104C266.319 62.1834 266.424 62.607 266.948 62.1256L278.019 58.0825C277.79 63.1653 280.18 68.061 281.323 69.842L267.781 81.6195L245.002 60.6546Z" fill="#FFCEBB"/>
<path d="M255.162 29.7802C254.191 30.8199 254.234 32.4757 254.377 33.1736L251.734 43.7147L263.519 57.8659C269.233 57.3845 280.862 56.3352 281.662 55.9887C282.662 55.5555 283.947 53.2451 284.233 49.9961C284.462 47.3969 288.424 40.2973 290.376 37.0724C290.614 32.3072 290.704 21.9971 289.162 18.8781C287.619 15.759 274.567 16.6639 268.234 17.5063C269.019 16.0623 269.862 13.2321 266.948 13.4631C263.305 13.7519 260.519 19.0225 260.448 20.8275C260.377 22.6324 256.377 28.4806 255.162 29.7802Z" fill="#FFCEBB"/>
<path d="M172.782 148.368C174.61 144.671 174.877 137.586 174.782 134.506C177.448 135.276 184.553 137.798 191.638 141.726C198.724 145.653 208.495 147.79 212.495 148.368C214.781 154.606 211.543 162.904 209.638 166.274C207.828 166.274 201.695 166.736 191.638 168.584C181.581 170.432 173.353 167.814 170.496 166.274C168.21 164.541 170.496 152.989 172.782 148.368Z" fill="#FFFDF7"/>
<path d="M279.233 145.011C278.776 149.401 283.638 161.183 286.923 166.671L216.496 182.555C217.115 172.591 218.496 150.469 219.068 141.69C219.639 132.91 216.639 111.847 215.068 102.413C213.973 94.7117 211.468 77.4031 210.211 69.7788C208.954 62.1545 214.115 59.8152 216.853 59.5986L245.002 60.65C248.234 63.3169 261.27 75.4103 267.734 81.6195C268.648 81.3885 277.239 73.6836 281.287 69.8329C285.401 69.9484 292.644 71.0663 295.644 71.6921C293.93 77.2755 288.261 89.3435 287.78 94.0378C286.923 102.413 279.805 139.524 279.233 145.011Z" fill="#FE6405"/>
<path d="M256.924 318.434V214.178C256.019 240.603 254.21 294.464 254.21 298.507C254.21 303.561 251.21 318.434 249.496 327.676C248.124 335.069 243.21 368.878 240.924 384.858H223.925C224.382 383.934 224.972 354.823 225.21 340.383C225.401 326.906 225.668 299.027 225.21 295.33C224.639 290.71 223.21 278.58 222.353 264.718C221.668 253.628 218.199 205.237 216.485 182.518L286.939 166.668C285.13 202.671 281.666 278.06 281.209 292.154C280.752 306.247 276.066 361.176 273.781 386.879L254.924 384.858C255.591 369.07 256.924 333.683 256.924 318.434Z" fill="#748795"/>
<path fill-rule="evenodd" clip-rule="evenodd" d="M216.656 179.987C217.328 169.19 218.542 149.778 219.068 141.69C219.639 132.91 216.64 111.847 215.068 102.413C214.172 96.1082 212.33 83.3643 211.002 74.7666C227.429 113.721 246.072 146.395 285.704 164.483C286.125 165.285 286.535 166.022 286.924 166.671L251.104 174.749L216.656 179.987Z" fill="#EF6008"/>
<path fill-rule="evenodd" clip-rule="evenodd" d="M280.499 152.035C279.598 149.157 279.067 146.6 279.232 145.011C279.275 144.603 279.353 144.02 279.463 143.286L278.351 139.524C260.054 138.776 251.67 141.146 243.593 143.43C241.681 143.97 239.786 144.506 237.78 144.994L235.923 146.022L232.493 153.658C246.415 152.142 265.968 151.595 280.499 152.035Z" fill="#C64C00"/>
<path d="M256.638 393.305L256.252 385.002L273.305 386.807L293.495 393.305H256.638Z" fill="#90867D"/>
<path d="M260.638 394.533L239.091 384.786H225.877L224.067 394.533H260.638Z" fill="#90867D"/>
<path fill-rule="evenodd" clip-rule="evenodd" d="M254.796 278.079C254.449 288.994 254.21 297.038 254.21 298.507C254.21 302.746 252.1 313.891 250.408 322.828C250.082 324.547 249.772 326.185 249.496 327.676C248.278 334.242 244.265 361.642 241.782 378.886V310.348C245.305 305.727 252.81 291.634 254.639 272.226L254.796 278.079Z" fill="#637883"/>
<path fill-rule="evenodd" clip-rule="evenodd" d="M256.908 214.36V318.434C256.908 333.683 255.585 369.07 254.924 384.858L273.626 386.879C275.893 361.176 280.54 306.247 280.993 292.154C281.446 278.08 285.138 202.743 286.936 166.679L286.93 166.668C278.707 181.402 261.721 210.813 256.908 214.36ZM256.901 214.364C256.873 214.385 256.845 214.405 256.817 214.424L256.801 217.307C256.836 216.294 256.869 215.312 256.901 214.364Z" fill="#637883"/>
<path fill-rule="evenodd" clip-rule="evenodd" d="M262.813 172.108L216.496 182.555C216.613 180.672 216.757 178.356 216.918 175.779C227.467 176.019 248.889 175.321 263.067 172.013L262.813 172.108Z" fill="#C64C00"/>
<path d="M230.925 154.252C232.067 150.094 229.21 145.588 227.639 143.856C233.996 142.749 247.174 139.478 250.496 138.08C255.638 135.914 275.424 131.004 276.888 130.679C277.899 130.455 280.566 129.343 280.781 128.116C281.001 126.853 285.185 105.253 287.495 94.6155C288.59 87.2511 293.976 73.8075 294.662 72.3058C295.519 70.4286 300.066 73.2444 302.637 75.988C305.494 78.0096 304.923 87.8287 302.637 92.3051C300.352 96.7815 294.066 139.957 293.495 141.69C292.923 143.422 291.923 147.61 286.78 147.61C282.78 146.686 247.877 151.653 230.925 154.252Z" fill="#FC8D46"/>
<path fill-rule="evenodd" clip-rule="evenodd" d="M258.508 57.7394C260.417 59.2433 262.901 61.2009 265.826 64.9414C265.971 64.8282 266.113 64.7174 266.254 64.6082C268.075 63.1907 269.532 62.0571 270.87 59.7333L267.097 61.0438C266.706 61.3858 266.558 61.2285 265.636 60.2503C265.371 59.9687 265.042 59.6192 264.624 59.1941C263.757 58.311 261.951 56.7071 260.005 54.9775C257.758 52.9807 255.322 50.8164 253.923 49.4005C253.901 49.4564 253.877 49.5137 253.852 49.5722C253.96 49.7924 254.091 50.027 254.249 50.2758C254.249 54.3842 255.798 55.6046 258.508 57.7394Z" fill="#FAC0AA"/>
<path d="M257.638 4.22154C255.467 4.5681 255.019 7.35019 255.067 8.69792V18.6615C255.067 21.7805 254.257 28.1437 253.853 30.9354C255.353 30.43 260.352 23.2822 261.067 19.9611C261.638 17.3041 264.352 14.9071 265.638 14.0407C267.695 15.658 267.162 17.5063 266.638 18.2283C273.152 16.842 282.685 18.3245 286.637 19.2391C288.637 20.1055 289.78 26.3146 289.923 30.5022C290.066 34.6898 288.495 38.4442 286.637 40.4657C284.78 42.4873 282.066 47.6857 282.638 51.4401C283.095 54.4436 284.161 53.7505 284.638 53.0285C285.066 48.8409 289.209 39.4549 292.066 35.2674C294.923 31.0798 296.78 22.9934 298.637 20.6831C300.494 18.3727 299.351 15.0515 296.78 12.7411C294.209 10.4307 293.494 13.3187 292.066 14.0407C290.637 14.7627 290.209 13.8963 292.066 10.7195C293.923 7.54272 289.352 5.80993 286.637 5.66553C283.923 5.52113 277.495 2.63315 274.781 1.33356C272.066 0.033965 270.352 -0.688031 268.495 1.33356C266.638 3.35515 260.352 3.78834 257.638 4.22154Z" fill="#31090B"/>
<path d="M255.924 33.5346C255.81 31.5708 254.829 31.1761 254.352 31.2242C254.352 32.6682 250.067 41.3322 249.495 43.3538C248.924 45.3753 252.353 48.4077 255.067 51.2957C257.238 53.6061 263.59 59.6709 266.495 62.4144C270.162 61.0186 277.923 58.0825 279.638 57.5049C281.78 56.7829 284.066 54.9057 282.78 53.0285C281.752 51.5267 280.257 52.4028 279.638 53.0285C278.4 53.6542 275.238 55.079 272.495 55.7721C269.066 56.6385 266.495 55.6277 264.924 54.9057C263.352 54.1837 258.495 48.8409 257.638 48.4077C256.781 47.9745 254.352 45.0865 254.352 43.3538C254.352 41.621 256.067 35.9894 255.924 33.5346Z" fill="#150103"/>
<path d="M260.833 45.9045C260.408 46.5494 258.849 48.867 258.008 49.8887L259.402 50.5616C259.739 50.0508 260.639 48.7044 261.552 47.405C262.464 46.1055 263.831 46.3449 264.4 46.6269C265.804 47.5415 268.889 49.4766 269.988 49.9005C271.362 50.4305 270.607 51.6707 269.97 52.8208C269.29 54.3417 267.834 55.5621 267.093 55.9371C268.096 56.4918 269.293 56.5174 269.986 56.3195C273.386 52.6168 273.04 49.2385 271.512 48.4393C269.875 47.5828 266.296 45.7536 265.076 45.2889C263.55 44.708 261.551 44.8157 260.833 45.9045Z" fill="#160404"/>
<path fill-rule="evenodd" clip-rule="evenodd" d="M262.389 36.206C258.732 34.5887 258.484 27.4457 258.817 24.0764C265.674 22.4158 271.389 25.737 273.246 28.625C273.365 29.7802 274.488 31.8451 278.031 30.8632C282.004 29.7622 286.895 31.682 288.995 32.5061C289.236 32.6007 289.441 32.6809 289.602 32.7404C290.86 33.2025 292.221 32.9329 292.745 32.7404C292.626 33.1014 292.202 33.9461 291.46 34.4371C291.002 34.7397 290.127 35.9199 289.221 37.1426L289.221 37.1426C288.289 38.3997 287.325 39.7016 286.745 40.1408C285.603 41.0072 280.353 43.101 276.353 39.2744C274.296 37.2817 274.329 34.3288 274.603 33.1014L273.246 32.7404C272.96 34.6176 266.96 38.2276 262.389 36.206ZM264.246 34.6176C260.589 33.8089 260.912 28.3121 261.531 25.6648C269.817 25.6648 272.674 30.5744 271.674 32.0184C270.674 33.4624 268.817 35.6284 264.246 34.6176ZM276.245 33.0292C276.15 35.0989 276.845 39.3827 280.388 39.9603C284.816 40.6823 286.959 39.0939 287.674 37.7943C288.388 36.4948 286.674 33.8956 283.531 33.0292C281.016 32.3361 277.626 32.7404 276.245 33.0292Z" fill="#D14C07"/>
<path d="M264.376 28.9026C264.305 29.9134 264.805 31.7618 267.376 31.0686C266.781 30.5873 265.348 29.4802 264.376 28.9026Z" fill="black"/>
<path d="M280.093 35.6549C280.49 36.5852 281.777 37.9927 283.743 36.1799C282.995 36.03 281.218 35.715 280.093 35.6549Z" fill="black"/>
<path d="M282.293 62.6408C284.174 66.1225 282.535 69.8217 281.09 71.4766C278.343 70.2634 271.343 68.292 271.949 67.1242C272.707 65.6643 272.943 65.2588 273.326 62.7575C273.71 60.2561 272.59 59.5691 274.853 53.4887C277.117 47.4084 283.242 47.338 285.224 48.8772C286.81 50.1085 285.697 51.7126 284.668 51.4887C283.822 51.3045 282.742 51.1581 281.511 53.0173C279.973 55.3413 279.941 58.2886 282.293 62.6408Z" fill="#FFCEBB"/>
<path d="M278.212 53.4187C278.359 52.6136 279.02 51.1548 281.223 49.772C282.556 48.9357 284.525 49.07 285.888 49.7392C286.036 49.873 286.032 50.3752 285.986 50.4576C282.443 48.623 279.616 51.2009 278.212 53.4187Z" fill="#FAC0AA"/>
<path d="M278.963 49.5384C279.256 49.0851 279.629 48.7661 279.774 48.6625C280.748 47.9664 281.58 47.9707 282.766 48.0247C283.144 48.0419 283.572 48.155 283.964 48.2854C280.799 47.6853 279.75 48.7772 278.963 49.5384Z" fill="#FAC0AA"/>
<path d="M270.496 68.1904C271.353 67.093 272.074 67.8271 272.853 68.1904C276.567 69.9232 281.483 69.7307 283.483 69.6344C282.912 72.8112 278.495 82.9191 274.781 89.2727C271.067 95.6263 258.21 123.062 255.067 128.694C251.924 134.325 244.139 142.7 234.377 140.968C225.698 139.427 223.663 127.25 222.806 119.163C221.949 111.077 217.782 97.3591 212.211 77.8652C205.664 60.7178 214.467 58.3893 221.994 59.7972C225.661 66.247 233.554 80.6954 235.496 86.2403C237.925 93.1715 241.568 116.131 241.568 118.369C241.568 120.607 243.496 122.051 244.139 120.174C244.496 118.369 251.282 104.796 253.067 101.547C254.853 98.2977 269.424 69.5622 270.496 68.1904Z" fill="#FC8D46"/>
<path d="M216.352 147.321C217.952 147.321 224.799 144.884 227.752 143.874C231.637 145.664 231.323 151.545 231.037 154.216L225.781 154.902C222.68 155.408 218.752 154.714 214.924 155.408C210.138 156.274 210.496 156.707 206.531 156.888C202.567 157.068 200.414 155.999 200.414 154.866C200.414 154.044 201.471 153.696 202.207 153.597C196.985 153.868 196.812 152.35 196.968 151.545C197.123 150.742 198.864 150.355 199.635 150.353C196.355 150.296 196.498 148.886 196.807 148.188C197.182 147.339 199.246 147.538 200.103 147.682C199.829 147.562 199.45 147.014 199.895 146.437C200.465 145.698 202.924 146.551 203.924 146.888C203.128 146.351 202.244 146.184 202.11 145.895C201.682 143.82 206.542 145.387 207.496 145.733C210.867 146.958 214.353 147.321 216.352 147.321Z" fill="#FFCEBB"/>
<path d="M205.561 147.524C204.418 146.662 203.746 146.629 203.222 146.491L203.878 146.852C203.293 146.664 203.451 146.703 202.999 146.595C203.878 147.123 204.722 147.389 205.561 147.524Z" fill="#FAC0AA"/>
<path d="M201.959 148.321C200.667 147.636 200.549 147.574 199.958 147.574L200.088 147.687L199.771 147.637C200.347 148.043 200.633 148.151 201.981 148.332L201.959 148.321Z" fill="#FAC0AA"/>
<path fill-rule="evenodd" clip-rule="evenodd" d="M229.736 145.55C231.501 148.073 231.26 152.127 231.037 154.216L225.78 154.902C224.349 155.135 222.742 155.113 221.049 155.09C220.73 155.086 220.407 155.081 220.081 155.079C220.067 155.074 220.052 155.069 220.038 155.065C221.395 155.028 228.806 153.53 229.77 151.834C230.53 150.496 230.356 147.133 229.736 145.55Z" fill="#FAC0AA"/>
<path d="M450.129 383.926C453.443 379.883 452.843 370.401 452.129 366.165L466.807 363.133C466.464 367.407 468.747 373.529 469.7 376.128L471.271 380.605H464.414V376.128C463.271 379.941 453.414 389.197 446.557 392.879C444.245 394.12 442.796 392.397 443.7 391.435C444.462 390.617 446.815 387.969 450.129 383.926Z" fill="#F76D42"/>
<path d="M483.128 391.671V369.053H468.271C467.652 370.561 466.328 374.059 465.986 375.989C465.557 378.402 460.986 388.354 456.414 389.56C452.757 390.525 453.367 392.174 454.129 392.878C457.272 392.978 464.5 392.878 468.271 391.671C472.043 390.465 476.223 386.444 477.842 384.584V391.671H483.128Z" fill="#F76D42"/>
<path d="M415.129 148.122C416.044 139.805 421.25 111.899 423.44 98.7106C428.065 98.7106 432.743 115.172 432.743 115.172L428.558 131.949C427.51 137.34 425.301 149.508 424.843 155.053C424.386 160.598 418.177 163.332 415.129 164.006L394.273 167.183L390.844 160.252C395.606 159.193 409.13 157.075 409.13 157.075C409.13 157.075 414.145 157.075 415.129 148.122Z" fill="#FCCAB0"/>
<path d="M433.986 252.378C435.815 240.133 436.653 211.273 436.843 198.373C440.957 193.29 475.128 191.827 491.699 191.731C492.175 193.175 493.585 197.045 495.413 200.972C497.699 205.882 495.127 216.567 493.128 225.52C491.528 232.682 487.509 262.583 485.699 276.637C484.271 285.59 481.985 304.766 484.271 309.849C487.128 316.203 486.842 325.156 484.271 333.82C482.213 340.751 481.509 355.576 481.413 362.122C477.071 364.201 471.604 362.988 469.414 362.122C471.128 355.768 469.699 313.315 469.414 301.763C469.128 290.211 467.414 281.547 465.985 272.305C464.842 264.912 463.414 237.072 462.842 224.076C462.842 235.05 449.414 278.081 447.414 283.28C445.414 288.478 454.271 300.319 458.557 307.539C462.842 314.759 462.557 316.78 462.842 325.156C463.071 331.856 464.081 348.933 464.557 356.635L455.986 359.523C454.081 351.821 449.7 334.166 447.414 325.156C444.557 313.892 433.986 292.521 431.7 287.901C429.415 283.28 431.7 267.685 433.986 252.378Z" fill="#008099"/>
<path fill-rule="evenodd" clip-rule="evenodd" d="M469.36 300.042C469.151 294.508 468.619 289.629 467.966 284.993C468.019 284.998 468.073 285.005 468.128 285.013C469.033 288.142 472.157 296.161 477.414 303.207C475.324 302.906 471.438 301.906 469.36 300.042Z" fill="#056375"/>
<path fill-rule="evenodd" clip-rule="evenodd" d="M436.801 200.903C436.547 214.73 435.703 240.88 433.986 252.378C431.7 267.685 429.415 283.28 431.7 287.901C433.986 292.521 444.557 313.892 447.414 325.156C449.7 334.166 454.081 351.821 455.986 359.523L464.557 356.635C464.081 348.933 463.071 331.856 462.842 325.156C462.82 324.496 462.801 323.876 462.783 323.289C462.747 322.116 462.716 321.078 462.668 320.129C461.643 317.765 459.635 313.254 458.557 311.293C458.064 310.396 457.231 309.053 456.129 307.274C454.035 303.897 450.97 298.953 447.415 292.521C442.313 283.293 448.062 273.555 450.433 269.539C450.585 269.282 450.723 269.048 450.843 268.84C452.843 265.374 459.414 233.895 456.843 222.054C454.786 212.582 443.224 203.283 437.7 199.817L436.801 200.903Z" fill="#017187"/>
<path fill-rule="evenodd" clip-rule="evenodd" d="M481.985 194.402C481.985 198.951 486.213 198.777 493.984 198.084C494.002 198.012 494.019 197.935 494.035 197.854C492.892 195.134 492.047 192.785 491.699 191.731C490.719 191.736 489.678 191.747 488.585 191.763C486.253 192.404 483.609 193.575 481.985 194.402Z" fill="#056375"/>
<path d="M449.557 358.801L455.414 359.523L463.985 356.635L467.7 355.624L466.985 364.288C463.9 363.364 454.081 365.636 449.557 366.887V358.801Z" fill="#A6BE15"/>
<path d="M467.271 361.989L469.414 361.255C474.671 364.777 479.604 362.723 481.414 361.255H486.128V370.353C483.728 368.944 472.557 369.766 467.271 370.353V361.989Z" fill="#A6BE15"/>
<path fill-rule="evenodd" clip-rule="evenodd" d="M447.875 282.001C447.686 282.546 447.531 282.977 447.414 283.28C446.73 285.059 447.317 287.616 448.557 290.5C448.557 290.5 448.557 290.5 448.557 290.5C443.072 294.427 439.796 292.81 438.843 291.511C441.472 290.24 445.843 284.628 447.7 281.98C447.761 281.98 447.819 281.987 447.875 282.001Z" fill="#056375"/>
<path d="M447.128 158.519C448.271 167.067 438.081 188.843 432.843 198.662C483.356 197.276 495.413 191.346 495.127 188.554C475.242 171.688 477.985 132.383 481.985 114.477L474.556 109.531C476.613 105.835 477.128 93.443 476.271 88.6297C470.556 86.7814 449.128 89.3998 439.129 90.9401C438.081 91.6139 434.672 93.1349 429.415 93.828C424.158 94.5212 423.224 97.5824 423.415 99.0264C429.986 101.626 429.7 120.109 429.415 125.307C429.129 130.505 424.558 133.971 435.986 137.148C447.414 140.325 445.7 147.833 447.128 158.519Z" fill="#F4E9C9"/>
<path fill-rule="evenodd" clip-rule="evenodd" d="M432.843 198.662C438.081 188.843 448.271 167.067 447.129 158.519C446.879 156.649 446.725 154.877 446.58 153.207C445.898 145.338 445.415 139.769 435.986 137.148C435.434 136.994 434.919 136.84 434.439 136.685C441.635 132.825 453.945 128.586 467.414 130.794C466.842 133.778 467.185 141.942 473.128 150.721C478.367 158.46 466.081 182.477 456.899 197.489C450.064 198.001 442.099 198.408 432.843 198.662Z" fill="#FFF3CF"/>
<path fill-rule="evenodd" clip-rule="evenodd" d="M447.134 161.61C447.244 160.454 447.248 159.414 447.129 158.519C447.088 158.215 447.05 157.914 447.014 157.616C454.108 157.447 467.757 156.804 480.128 155.246C480.314 156.754 480.536 158.255 480.797 159.743C472.791 160.274 459.86 161.058 447.134 161.61Z" fill="#97CED1"/>
<path d="M497.699 133.393L481.985 114.91C481.985 114.91 476.699 111.084 474.414 109.712C472.192 106.882 476.039 88.6838 476.039 88.6838C479.896 87.8174 485.842 99.4596 489.128 104.802C492.413 110.145 503.841 122.419 506.984 126.318C510.127 130.217 509.556 132.094 509.413 135.126C509.27 138.159 505.27 144.801 502.699 149.566C500.127 154.331 493.985 168.049 492.27 171.226C490.556 174.403 491.556 175.558 489.128 178.446C486.699 181.334 483.985 181.334 481.985 179.746C480.385 178.475 482.652 177.291 483.985 176.858C480.128 174.692 475.271 176.424 472.699 176.858C470.128 177.291 468.985 175.702 469.271 174.114C469.499 172.843 473.366 172.911 475.271 173.103C474.842 173.007 474.071 172.497 474.414 171.226C474.842 169.638 479.699 170.071 481.985 171.226C484.271 172.381 487.699 172.67 489.128 167.183C490.556 161.696 495.985 145.234 497.699 140.613C499.07 136.917 498.27 134.26 497.699 133.393Z" fill="#FCCAB0"/>
<path d="M434.844 79.0993C432.101 77.9441 429.32 74.9599 428.272 73.6122L419.415 65.237L425.701 40.6891L456.272 43.5771L461.7 56.2843C459.891 60.6162 455.414 70.1466 451.986 73.6122C447.7 77.9441 452.272 77.3665 456.272 81.4097C460.271 85.4529 459.129 93.2505 456.272 96.716C453.986 99.4885 449.224 108.653 447.129 112.889C444.558 109.423 437.986 92.3841 438.558 87.7633C439.129 83.1425 438.272 80.5433 434.844 79.0993Z" fill="#F8CBB2"/>
<path d="M461.414 90.0737C462.328 81.9873 455.129 75.3449 451.414 73.0345C451.414 65.6702 453.843 65.959 455.414 63.793C456.986 61.627 457.986 58.739 457.986 54.5514C457.986 50.3639 453.843 51.3747 454.557 53.3962C455.129 55.0135 454.319 57.632 453.843 58.739C451.557 52.3855 441.462 49.3531 436.7 48.6311C433.5 53.1363 429.891 52.3373 428.486 51.3747C431.13 50.2335 429.588 46.3747 428.486 44.5879C424.315 46.8983 424.844 57.5838 425.629 62.6378C425.32 61.8677 424.031 59.743 422.701 60.3274C419.701 61.6451 423.629 66.1756 425.629 66.681C427.629 67.1864 429.129 70.7963 428.486 73.7565C427.972 76.1247 428.701 80.0379 429.129 81.6985C425.701 78.8105 418.387 69.8 416.558 56.8618C414.272 40.6891 421.986 33.1804 430.558 31.4476C439.129 29.7148 448.272 31.1588 454.557 37.2235C460.843 43.2883 463.128 60.0386 461.414 69.569C459.7 79.0993 464.557 79.0993 469.7 87.7633C474.842 96.4272 470.271 106.824 465.985 111.156C462.557 114.622 461.509 120.109 461.414 122.419C455.986 119.531 460.271 100.182 461.414 90.0737Z" fill="#FC6843"/>
<path d="M0.920654 350.991C0.920654 349.887 1.81608 348.991 2.92065 348.991H73.2046C74.3092 348.991 75.2047 349.887 75.2047 350.991V398.809H0.920654V350.991Z" fill="#694A35"/>
<rect x="6.42065" y="371.373" width="30.1422" height="25.0533" fill="#918A80"/>
<rect x="40.8481" y="371.373" width="30.1422" height="25.0533" fill="#918A80"/>
<path d="M18.063 364.626C18.063 364.626 18.063 363.07 20.8129 363.07C23.5986 363.07 23.7771 364.626 23.7771 364.626V398.809H18.063V364.626Z" fill="#F9765A"/>
<path d="M52.634 364.626C52.634 364.626 52.634 363.07 55.384 363.07C58.1696 363.07 58.3482 364.626 58.3482 364.626V398.809H52.634V364.626Z" fill="#F9765A"/>
<path d="M2.37793 350.991C2.37793 349.887 3.27336 348.991 4.37793 348.991H71.5191C72.6237 348.991 73.5191 349.887 73.5191 350.991V370.023C73.5191 371.127 72.6237 372.023 71.5191 372.023H4.37793C3.27336 372.023 2.37793 371.127 2.37793 370.023V350.991Z" fill="#F5E5C1"/>
<rect x="21.4917" y="346.248" width="34.4278" height="2.74359" fill="#F9765A"/>
<path d="M39.2771 340.76C24.9917 340.76 24.9917 345.201 24.9917 346.681H26.8488C26.8488 345.237 28.9941 341.978 39.2771 342.204C49.0983 342.421 50.7054 345.309 50.7054 346.681H52.4196C52.4196 345.526 52.4196 340.76 39.2771 340.76Z" fill="#F9765A"/>
<path d="M5.66357 348.991V367.619C5.71119 368.04 6.04214 368.882 6.98497 368.882C7.92781 368.882 49.5911 368.882 70.3049 368.882C70.6978 368.918 71.4835 368.731 71.4835 367.691C71.4835 366.651 71.4835 354.912 71.4835 349.172" stroke="#C5B490" stroke-width="0.5"/>
<rect x="31.4199" y="367.402" width="13.9283" height="9.38595" rx="2" fill="#019FBE"/>
<rect x="18.063" y="379.604" width="5.71415" height="2.59919" fill="#694A35"/>
<rect x="52.634" y="379.604" width="5.71415" height="2.59919" fill="#694A35"/>
<rect x="18.063" y="386.752" width="5.71415" height="2.59919" fill="#694A35"/>
<rect x="52.634" y="386.752" width="5.71415" height="2.59919" fill="#694A35"/>
<path d="M135.189 185.066C135.061 187.014 133.851 188.15 133.263 188.474L138.56 196.182C138.748 195.587 139.54 194.348 141.209 194.154C143.296 193.91 143.697 194.965 146.667 193.667C149.637 192.369 148.514 190.259 146.667 190.746C144.821 191.233 142.092 190.827 141.611 189.204C141.129 187.582 140.728 187.419 139.764 185.066C138.699 182.464 139.042 179.144 139.764 178.657C140.487 178.17 141.611 176.953 141.209 174.681C140.808 172.409 138.641 173.951 138.56 174.681C138.48 175.411 138.079 175.979 136.634 178.089C135.189 180.198 135.35 182.632 135.189 185.066Z" fill="#FFD0BE"/>
<path d="M177.749 221.486C173.511 220.318 166.264 220.114 163.428 220.223L164.352 227.958C165.396 228.121 167.772 228.672 168.928 229.581C170.372 230.717 173.984 231.204 175.349 231.204C176.713 231.204 178.239 231.204 179.202 232.258C180.165 233.313 180.566 234.043 182.252 234.125C183.938 234.206 184.259 232.258 182.252 231.204C181.526 230.822 180.571 229.752 181.213 229.103C181.855 228.454 182.428 228.453 184.82 228.886C187.213 229.32 188.754 233.476 190.68 232.826C192.606 232.177 190.677 228.201 186.963 226.54C183.249 224.879 183.047 222.946 177.749 221.486Z" fill="#FFD0BE"/>
<path d="M213.244 394.305C213.18 392.815 211.23 386.697 211.23 386.697L224.141 380.199C225.104 383.12 231.706 386.84 235.559 389.599C239.411 392.358 251.933 395.441 252.254 397.226C252.511 398.654 249.365 398.578 247.759 398.362C240.749 397.875 222.605 396.678 218.702 397.226C214.8 397.773 213.308 395.795 213.244 394.305Z" fill="#E76A5F"/>
<path d="M81.4465 176.213C74.2545 175.953 66.5167 165.016 62.8245 158.85C64.1087 154.825 70.5837 146.517 74.383 143.596L83.0519 160.148C81.2539 162.355 81.2324 171.777 81.4465 176.213Z" fill="#FFD0BE"/>
<path d="M100.55 159.336C100.036 161.414 96.9288 163.239 96.2866 163.293L84.6567 159.336L79.3591 143.109L96.5364 130.614L113.108 133.908C113.91 138.776 110.984 144.083 109.219 146.517C107.453 148.951 106.971 153.982 106.65 155.604C106.329 157.227 105.366 156.253 103.76 155.604C102.155 154.955 101.192 156.74 100.55 159.336Z" fill="#FFD0BE"/>
<path d="M44.4667 263.073C50.7597 262.424 70.637 255.617 79.1988 252.805C77.5935 250.208 75.1854 234.468 80.8041 217.592C85.2991 204.091 83.4262 184.272 81.9278 176.05C71.9747 175.077 65.2322 162.257 62.9848 159.174C61.1868 156.708 59.346 156.632 58.6504 156.902C52.7106 161.121 33.2859 190.979 36.8177 226.03C38.3588 242.127 42.1657 257.772 44.4667 263.073Z" fill="#9FC12F"/>
<path d="M64.9111 176.699C56.4348 170.209 50.011 170.707 48.02 171.722C49.6182 168.654 51.3012 166.014 51.3012 166.014C59.649 168.87 63.8409 174.32 64.9111 176.699Z" fill="#90AA3C"/>
<path d="M74.2224 182.379C64.8472 180.432 57.9013 190.222 55.6003 195.361C57.3662 201.527 83.5334 221.486 98.4631 235.279C101.289 238.135 104.992 238.417 106.49 238.2L158.985 229.6L157.861 219.377C146.838 219.755 123.282 220.707 117.246 221.486C113.393 221.811 106.811 220.837 104.082 218.241L74.2224 182.379Z" fill="#9FC12F"/>
<path d="M77.5458 233.191C76.7869 227.081 65.1897 209.229 57.8052 199.763C70.5014 212.461 80.0547 220.01 80.0547 220.01C80.0547 220.01 78.5101 224.645 77.5458 233.191Z" fill="#90AA3C"/>
<path d="M98.9445 216.294C96.4563 214.671 78.7172 193.413 78.7172 193.413C68.3145 194.841 67.5333 202.014 68.443 205.421C76.3091 214.995 92.6837 226.03 102.637 231.385C105.591 232.683 108.496 230.979 111.948 228.464C115.399 225.949 135.867 201.365 135.867 201.365C134.968 197.6 130.463 193.305 128.322 191.628C122.543 198.011 109.299 213.535 106.731 215.401C104.162 217.267 101.433 217.916 98.9445 216.294Z" fill="#9FC12F"/>
<path d="M44.1097 265.022C43.5959 263.205 44.8447 262.739 45.6809 262.495C56.2494 259.412 77.5939 253.145 79.1992 252.561C80.8046 251.977 81.527 252.318 81.6875 252.561C82.1423 253.21 83.3878 255.428 83.9657 256.467C84.2952 257.059 83.8972 257.523 83.4657 257.658C72.2283 261.174 49.1874 269.224 47.4134 269.762C46.0201 270.185 45.5023 270.04 45.1095 268.975C44.8952 268.109 44.6234 266.84 44.1097 265.022Z" fill="#2ABD99"/>
<path d="M101.135 141.155C104.224 139.233 109.592 141.725 111.197 143.24C111.197 143.24 110.813 144.025 110.291 144.882C109.41 143.656 106.313 141.372 103.222 142.453C100.921 143.447 99.9296 141.94 101.135 141.155Z" fill="#482000"/>
<path d="M93.325 156.172C91.6554 157.73 91.0465 160.568 91.5637 161.226C90.6807 161.037 89.0657 160.227 88.9648 159.557C88.8042 158.492 89.0543 156.867 92.4649 154.268C95.8755 151.669 99.9183 154.698 101.925 156.105C101.925 156.105 101.296 156.782 100.952 158.004C100.39 156.625 95.4119 154.225 93.325 156.172Z" fill="#482000"/>
<path d="M132.799 187.367C129.588 187.886 128.272 190.23 128.326 191.636C133.125 195.413 135.482 199.729 135.857 201.351C138.04 200.443 139.321 197.128 139.098 196.55C136.955 193.139 134.726 189.044 132.799 187.367Z" fill="#FFBF00"/>
<path d="M159.867 218.16C158.137 218.324 157.7 218.863 157.7 219.296C157.968 221.946 158.671 227.621 158.904 229.194C159.098 230.502 159.439 230.744 159.867 230.655C160.911 230.438 163.158 230.022 163.801 230.087C164.603 230.168 165.218 229.971 164.839 228.796C164.437 227.551 163.91 222.028 163.91 220.439C163.91 218.876 163.976 218.416 162.998 218.16C162.535 218.038 161.714 217.984 159.867 218.16Z" fill="#FFBF00"/>
<path d="M143.655 194.568L134.825 173.311L152.565 166.658C154.518 173.148 157.878 186.633 158.263 188.321C158.649 190.008 157.514 190.755 156.899 190.917C153.554 192.215 147.893 194.682 146.544 195.136C145.196 195.591 144.056 194.947 143.655 194.568Z" fill="#E5CFC1"/>
<path d="M154.714 174.367L138.107 181.244L141.143 188.563L156.738 182.155L154.714 174.367Z" fill="#66341D"/>
<ellipse cx="147.605" cy="181.465" rx="3.35116" ry="3.38741" fill="#EDB591"/>
<ellipse cx="116.158" cy="394.533" rx="3.53182" ry="3.57002" fill="black"/>
<path d="M80.0015 367.599C80.0015 367.046 80.4492 366.599 81.0015 366.599H88.1519C88.7042 366.599 89.1519 367.046 89.1519 367.599V386.841H80.0015V367.599Z" fill="#2D3647"/>
<path d="M81.3511 355.224C81.3511 354.672 81.7988 354.224 82.3511 354.224H87.1737C87.726 354.224 88.1737 354.672 88.1737 355.224V366.599H81.3511V355.224Z" fill="#4D5268"/>
<rect x="82.5698" y="333.291" width="4.38494" height="20.933" fill="#A6A6A6"/>
<rect x="80.0015" y="313.494" width="9.15043" height="19.7971" rx="1" fill="#2D3647"/>
<rect x="82.0884" y="311.303" width="5.45821" height="2.19066" fill="#868998"/>
<path d="M62.3425 306.598H106.409V309.303C106.409 310.408 105.514 311.303 104.409 311.303H64.3425C63.238 311.303 62.3425 310.408 62.3425 309.303V306.598Z" fill="#4D5268"/>
<path d="M42.918 303.758L23.8144 232.845C22.0164 230.768 21.5669 232.575 21.5669 233.738C26.8378 255.536 37.5722 299.945 38.3428 303.19C39.1133 306.111 40.8043 306.841 41.5535 306.841H129.687C130.714 305.283 129.633 304.137 128.965 303.758H42.918Z" fill="#9E5714"/>
<path d="M32.6438 240.148C31.2312 233.786 26.0619 232.196 23.6538 232.196L42.6772 303.839L129.767 304.407C129.767 303.109 127.68 297.754 121.259 296.618C113.81 295.06 67.9614 295.32 45.9682 295.644C42.1153 279.796 34.0565 246.509 32.6438 240.148Z" fill="#DE7717"/>
<path d="M73.251 117.735C71.7099 119.423 68.1087 122.934 67.4654 126.688C66.8222 130.442 66.9976 135.32 68.7634 139.377C70.1761 142.623 69.9942 148.627 69.7266 151.223C71.1393 149.276 73.954 148.789 75.1848 148.789C74.2216 154.306 77.9139 157.876 82.4089 159.499C83.6931 159.986 87.0644 161.673 90.2751 164.529C93.4858 167.385 96.4748 164.73 97.438 162.783C94.5484 162.945 89.3119 161.121 86.2617 156.091C83.8216 152.067 86.6363 146.95 88.3486 144.894C86.8075 146.192 85.566 145.435 85.138 144.894C86.6791 138.144 93.8068 135.158 97.178 134.509C94.7379 136.716 93.3787 139.972 93.0042 141.324C93.7666 140.675 92.9078 140.124 103.439 137.917C116.603 135.158 118.647 129.617 119.004 128.461C118.335 129.544 118.062 129.901 117.566 129.965C112.268 116.659 102.476 107.734 90.2751 107.734C87.1928 107.994 83.7467 105.138 82.4089 103.677C82.5373 105.105 82.7868 107.116 79.8403 109.032C76.8938 110.948 74.7921 116.048 73.251 117.735Z" fill="#482000"/>
<path d="M134.261 172.482V167.127C134.261 166.608 134.904 166.316 135.225 166.234C138.984 164.977 146.751 162.356 147.746 161.934C148.742 161.512 149.499 162.11 149.753 162.462C150.342 163.097 151.663 164.595 152.241 165.504C152.819 166.413 152.482 166.965 152.241 167.127C147.238 168.912 136.926 172.612 135.706 173.131C134.486 173.65 134.235 172.915 134.261 172.482Z" fill="#66341D"/>
<path d="M75.2043 389.256C91.1293 388.477 111.592 390.554 119.833 391.69C121.045 391.857 121.221 390.347 120.435 390.128C111.83 387.726 86.7629 386.091 75.2043 385.523V389.256Z" fill="#070E1A"/>
<rect x="82.5698" y="389.025" width="4.38494" height="4.28708" fill="black"/>
<path d="M88.5292 372.561C89.2784 371.696 91.2583 369.543 93.1848 367.855C94.2322 366.938 95.1056 366.81 95.7533 366.998L104.572 377.726C103.128 395.251 115.66 393.332 117.426 395.279C118.838 396.837 117.372 397.984 116.462 398.362C106.67 400.31 99.7667 395.604 95.7533 389.762C91.74 383.92 94.4691 380.188 91.7399 378.565C88.4008 376.488 88.2081 373.697 88.5292 372.561Z" fill="#E76A5F"/>
<path d="M152.884 263.028C149.68 262.698 116.015 261.621 99.5867 260.756C92.6516 260.756 85.8381 258.686 83.5371 257.658L60.7373 265.624C63.3059 273.413 69.5667 280.066 75.6671 281.689C81.7674 283.312 130.891 281.04 134.744 282.987C138.597 284.934 133.138 290.289 128.965 296.78C124.791 303.271 111.145 338.322 108.256 347.409C105.944 354.679 98.8375 363.528 95.5733 367.044C96.986 371.068 102.155 375.968 104.563 377.916C104.563 373.534 121.259 351.303 126.717 341.405C132.175 331.506 158.984 292.561 163.319 285.259C167.653 277.957 163.64 272.439 161.874 269.032C160.108 265.624 157.535 263.506 152.884 263.028Z" fill="#143286"/>
<path d="M52.3894 289.316C48.6696 280.903 47.0917 274.765 46.2891 269.843L83.6085 257.586C85.2139 260.182 134.262 264.488 148.068 266.435C159.145 267.896 160.269 272.602 163.319 279.417C166.369 286.233 188.523 318.2 203.131 343.839C208.14 352.407 219.238 371.641 224.161 380.188C219.795 384.861 213.673 386.57 211.158 386.841C210.195 382.784 191.894 354.873 180.817 343.839C172.469 335.238 148.871 302.46 145.339 296.618C142.513 291.945 138.596 290.993 136.991 291.101C122.222 292.615 88.7986 295.839 73.2588 296.618C67.8006 296.78 56.1091 297.729 52.3894 289.316Z" fill="#1D3F99"/>
<path fill-rule="evenodd" clip-rule="evenodd" d="M46.3093 269.963C47.1181 274.865 48.7004 280.971 52.3899 289.316C55.8923 297.237 66.4618 296.859 72.2413 296.652C72.6001 296.64 72.9403 296.627 73.2593 296.618C88.7991 295.839 122.222 292.615 136.992 291.101C138.597 290.993 142.514 291.945 145.339 296.618C148.871 302.46 172.47 335.238 180.818 343.839C191.894 354.873 210.195 382.784 211.159 386.841C213.674 386.57 219.795 384.861 224.162 380.188C223.457 378.964 222.626 377.521 221.704 375.922L219.345 372.399C211.747 361.202 194.784 337.543 187.72 332.48C178.891 326.151 161.392 298.403 155.934 288.342C151.568 280.293 139.346 279.471 133.78 280.066C117.192 281.851 81.0288 285.129 69.085 283.961C62.2783 283.961 56.9379 272.818 55.1185 267.247L46.3093 269.963Z" fill="#183A92"/>
<path d="M106.572 144.63C107.944 144.225 109.144 145.376 109.572 146.001C107.687 144.904 106.025 145.544 105.429 146.001C105.715 145.099 106.063 144.837 106.572 144.63Z" fill="black"/>
<ellipse cx="107.384" cy="145.622" rx="0.732126" ry="0.740046" fill="black"/>
<path d="M315.721 172.591H394.147V242.379C394.147 244.588 392.357 246.379 390.147 246.379H319.721C317.512 246.379 315.721 244.588 315.721 242.379V172.591Z" fill="#30758A"/>
<path d="M334.577 377.782L339.149 362.187L355.72 368.252L349.148 383.847L318.006 394.533L334.577 377.782Z" fill="#8F827C"/>
<path d="M399.201 390.489C388.345 386.562 382.297 373.354 380.63 367.241L363.631 374.028C366.831 375.414 368.964 385.58 369.631 390.489H399.201Z" fill="#8F827C"/>
<rect x="310.007" y="286.666" width="88.4265" height="9.67475" rx="4" fill="#30758A"/>
<path d="M339.524 144.794C340.896 143.986 342.006 138.128 342.006 135.625H365.148C365.034 139.784 365.958 144.77 366.434 146.744L355.863 165.66L339.524 144.794Z" fill="#FEC7B2"/>
<path d="M334.506 120.788C335.81 118.514 335.881 114.074 334.096 110.608C331.925 106.395 333.72 102.557 333.863 101.691L334.506 102.81C334.411 101.21 334.32 97.9367 334.72 97.6479C334.935 98.442 335.606 99.9438 336.578 99.5972C337.549 99.2507 338.411 94.1582 338.72 91.6553C339.22 92.6901 340.135 95.0053 339.792 95.9873C340.53 95.0005 342.02 92.7527 342.077 91.6553C342.468 92.4448 343.094 93.8389 343.222 94.5451C343.687 93.5879 345.165 91.3417 345.22 90.7889C345.292 90.0669 346.72 93.1715 346.22 93.8213C345.72 94.4711 348.863 91.0777 349.149 89.5615C349.41 90.3076 349.92 92.0018 349.863 92.8105C350.768 91.8719 352.577 89.6481 352.577 88.2619C353.196 89.1524 354.348 91.1788 354.006 92.1607C354.768 91.7515 356.363 90.5578 356.648 89.0561C357.267 89.7781 358.463 91.5398 358.291 92.8105C359.148 92.3051 360.863 90.9477 360.863 89.5615C361.601 90.5964 362.934 92.8971 362.363 93.8213C363.291 93.3881 365.22 92.1751 365.505 90.7889C366.172 91.7034 367.305 94.0234 366.505 95.9873C367.482 95.2171 369.72 93.8068 370.862 94.3267C370.339 95.6022 369.448 98.341 370.077 99.0918C370.91 99.7416 372.734 100.752 373.362 99.5972C372.696 100.921 371.52 103.886 372.148 105.157C372.934 106.745 373.719 109.922 373.362 112.377C373.077 114.34 371.309 118.851 370.595 120.03L334.506 120.788Z" fill="#310101"/>
<path fill-rule="evenodd" clip-rule="evenodd" d="M334.728 377.266L334.577 377.782L318.006 394.533L349.148 383.847L349.339 383.395L334.863 377.205L334.728 377.266Z" fill="#877C78"/>
<path fill-rule="evenodd" clip-rule="evenodd" d="M391.218 385.381C393.51 387.57 396.168 389.392 399.201 390.489H369.631C369.425 388.975 369.08 386.961 368.607 384.858H389.576L391.218 385.381Z" fill="#877C78"/>
<path d="M368.773 252.697C361.802 255.7 337.084 255.813 327.132 255.332C337.417 261.339 345.387 281.468 346.863 290.854C352.806 292.356 358.006 291.48 359.863 290.854L368.773 252.697Z" fill="#DA5840"/>
<path d="M400.719 204.648C397.176 205.803 391.528 209.654 389.147 211.434V226.163C395.766 222.553 409.976 214.871 413.861 213.023C417.747 211.175 415.48 203.493 413.861 199.883L392.416 158.512C389.33 167.523 390.147 181.592 390.862 187.031C393.719 194.309 398.623 201.808 400.719 204.648Z" fill="#877C76"/>
<path d="M304.578 199.883C306.178 194.453 312.233 169.866 314.9 158.458C319.699 167.007 322.197 183.036 323.006 189.775C320.949 196.937 316.53 207.776 314.578 212.301H319.489L319.132 226.994C314.132 227.427 305.721 224.286 301.864 222.698C298.778 221.427 299.436 218.029 300.15 216.488C300.959 213.215 302.978 205.312 304.578 199.883Z" fill="#877C76"/>
<path d="M330.131 152.953C322.246 153.646 316.863 156.659 314.863 158.44L323.149 190.063C319.492 198.727 318.958 219.761 319.149 229.196H389.29L392.433 158.44C390.833 155.552 381.32 152.917 376.844 152.051C373.187 155.632 360.434 196.176 354.434 215.911L330.131 152.953Z" fill="#8D837E"/>
<path d="M376.862 151.942C373.776 151.249 368.999 147.791 367.809 145.914L355.434 156.996C355.101 157.237 352.952 157.502 351.863 156.996C349.922 156.095 342.679 148.549 338.631 144.939C337.26 148.635 331.911 151.99 330.149 152.953L354.434 221.254L376.862 151.942Z" fill="#97CCD2"/>
<rect x="352.202" y="157.267" width="3.3879" height="44.475" rx="1" fill="#6CBDC0"/>
<path d="M333.006 120.607C334.149 119.221 335.672 120.03 336.291 120.607C336.293 118.465 336.568 113.893 337.653 112.738C338.739 111.582 339.674 108.309 340.006 106.817C340.623 107.106 341.917 108.323 343.434 109.416C345.939 111.221 354.293 112.002 358.153 111.221C360.653 110.716 364.724 107.924 365.867 107.178C365.891 107.852 366.095 109.604 366.724 111.221C368.001 113.196 370.545 117.754 370.6 120.315C370.595 118.738 371.633 118.097 372.183 117.972C375.38 117.972 375.898 121.004 374.648 122.557C373.372 124.14 370.005 126.817 369.148 129.704C368.291 132.592 364.291 135.625 362.862 138.946C361.719 141.603 358.386 142.845 356.862 143.134H350.005C346.577 143.134 344.291 141.256 343.434 138.946C342.577 136.636 340.577 133.892 340.006 131.87C339.434 129.849 336.291 126.816 334.149 125.372C332.006 123.929 331.577 122.34 333.006 120.607Z" fill="#FFCEBB"/>
<path d="M320.305 247.101V238.004H390.844C390.844 240.567 390.307 248.085 384.059 252.155C371.091 260.602 356.259 259.592 341.737 259.086C328.369 258.621 321.91 250.519 320.305 247.101Z" fill="#DCDCDC"/>
<path d="M363.434 164.071L356.291 157.718C355.561 157.068 356.225 156.051 356.648 155.624C359.779 152.062 366.184 144.787 366.755 144.18C367.47 143.422 368.934 141.906 368.969 143.278C369.005 144.65 367.434 157.718 366.291 161.905C365.377 165.256 364.005 164.745 363.434 164.071Z" fill="#6CBDC0"/>
<path d="M342.787 164.071L349.93 157.718C350.66 157.068 350.353 156.052 349.93 155.624C346.799 152.063 340.037 144.787 339.466 144.18C338.752 143.422 337.287 141.906 337.252 143.278C337.216 144.65 338.787 157.718 339.93 161.905C340.844 165.256 342.216 164.745 342.787 164.071Z" fill="#6CBDC0"/>
<rect x="320.305" y="189.775" width="70.5698" height="48.2293" fill="white"/>
<ellipse cx="356.376" cy="215.694" rx="4.21419" ry="4.25978" fill="#D1D1D1"/>
<path d="M363.291 330.275C369.005 350.491 374.243 356.604 376.148 357.133L359.577 363.342C356.767 358.481 350.805 347.834 349.434 344.137C347.72 339.516 327.292 302.55 324.863 298.218C322.434 293.886 311.863 278.869 312.149 267.75C312.435 256.631 318.006 254.61 320.863 253.888C323.72 253.166 331.149 256.054 335.577 258.509C340.005 260.963 346.291 272.226 348.72 282.046C351.148 291.865 356.148 305.005 363.291 330.275Z" fill="#FB7260"/>
<path fill-rule="evenodd" clip-rule="evenodd" d="M357.11 359.007C354.165 353.761 350.475 346.945 349.434 344.137C347.72 339.517 327.291 302.55 324.863 298.218C324.485 297.545 323.911 296.613 323.212 295.479C320.846 291.641 317.047 285.477 314.573 279.106C319.925 281.076 328.419 283.673 332.714 283.081C337.448 299.979 347.822 330.51 353.506 347.238C355.14 352.047 356.386 355.716 357 357.591C357.21 358.236 357.176 358.718 357.11 359.007Z" fill="#E06953"/>
<path fill-rule="evenodd" clip-rule="evenodd" d="M338.972 261.613C340.034 262.904 341.119 264.484 342.172 266.254C338.297 263.238 333.466 267.621 331.524 270.205C332.533 266.24 336.831 262.876 338.972 261.613Z" fill="#E06953"/>
<path d="M356.434 305.005C354.148 322.189 347.006 342.501 343.72 354.39L359.577 358.577C363.243 349.769 371.405 330.159 374.719 322.189C378.862 312.225 393.433 277.28 396.29 271.216C399.147 265.151 397.29 251.577 388.576 247.679C379.862 243.78 370.862 249.556 368.148 253.166C365.434 256.776 361.434 273.526 359.577 282.19C357.72 290.854 358.282 291.111 356.434 305.005Z" fill="#FB7260"/>
<path fill-rule="evenodd" clip-rule="evenodd" d="M356.21 306.595C356.289 306.063 356.364 305.532 356.434 305.005C357.148 299.636 357.502 296.303 357.775 293.735C358.209 289.657 358.437 287.506 359.577 282.19C361.019 275.461 363.754 263.854 366.175 257.314C363.605 268.018 360.424 288.622 361.381 299.807C362.19 303.706 363.924 313.409 364.381 321.034C364.639 325.341 365.054 329.421 365.383 332.659C365.636 335.153 365.839 337.147 365.881 338.362C364.805 331.554 361.072 320.745 358.223 312.492C357.468 310.307 356.775 308.301 356.21 306.595Z" fill="#E06953"/>
<path fill-rule="evenodd" clip-rule="evenodd" d="M369.022 252.154C368.991 252.306 368.968 252.451 368.952 252.589C371.142 254.37 375.266 260.04 374.237 268.473C375.904 264.718 378.409 256.285 375.095 252.589C376.714 252.3 380.066 252.618 380.523 256.199C381.19 253.84 381.237 248.863 376.095 247.824C375.971 247.799 375.85 247.776 375.73 247.757C372.88 248.914 370.511 250.619 369.022 252.154Z" fill="#E06953"/>
<path d="M333.72 360.31L335.309 351.682C343.881 354.801 352.857 356.64 356.666 357.603L363.63 371.176L333.72 360.31Z" fill="#7B7D67"/>
<path fill-rule="evenodd" clip-rule="evenodd" d="M333.841 360.354C334.18 357.914 335.366 353.506 337.238 353.668C339.238 353.841 347.262 355.521 351.024 356.339L350.596 356.153C346.269 355.104 340.709 353.647 335.31 351.682L333.729 360.26L333.735 360.315L333.841 360.354Z" fill="#63654E"/>
<path d="M384.005 365.942C382.405 364.786 379.285 358.89 378.523 356.195L359.095 363.487L360.863 375.328L384.005 365.942Z" fill="#7B7D67"/>
<path fill-rule="evenodd" clip-rule="evenodd" d="M374.243 357.801L359.095 363.487L360.863 375.328L360.943 375.295C360.9 374.749 360.815 374.08 360.722 373.34C360.323 370.185 359.762 365.753 361.595 364.209C363.651 362.477 367.417 360.848 370.573 359.482C372.022 358.855 373.342 358.283 374.309 357.783L374.243 357.801Z" fill="#63654E"/>
<path d="M709.084 250.366H105.722L102.274 240.98H713.117L709.084 250.366Z" fill="#795845"/>
<rect x="185.987" y="249.499" width="8.57123" height="148.982" fill="#715746"/>
<rect x="612.834" y="249.499" width="8.57123" height="148.982" fill="#715746"/>
<path fill-rule="evenodd" clip-rule="evenodd" d="M713.117 240.98H102.274L103.49 244.289L711.665 244.319L713.117 240.98Z" fill="#FFA863"/>
<path d="M612.953 239.5L612.047 216.892L630.968 216.766C630.609 223.541 629.209 237.375 629 239.094C628.863 240.224 627.473 241.123 626.84 241.063C623.258 241.127 617.16 241.101 615.739 241.063C614.318 241.024 612.953 240.258 612.953 239.5Z" fill="#E5CFC1"/>
<path d="M630.381 224.754L612.346 224.754L612.596 233.074L629.631 233.074L630.381 224.754Z" fill="#66341D"/>
<ellipse rx="3.35541" ry="3.3832" transform="matrix(0.938613 0.344973 -0.338478 0.940974 621.408 228.752)" fill="#EDB591"/>
<path d="M611.798 215.918L613.608 210.885C613.783 210.397 614.486 210.345 614.815 210.379C618.773 210.496 626.958 210.716 628.036 210.663C629.115 210.61 629.624 211.434 629.744 211.852C630.082 212.652 630.818 214.517 631.054 215.571C631.29 216.624 630.787 217.026 630.505 217.096C625.2 217.045 614.258 216.96 612.936 217.027C611.614 217.094 611.626 216.315 611.798 215.918Z" fill="#66341D"/>
<path d="M651.444 235.207L625.117 179.555L624.252 179.529L650.928 235.67L651.444 235.207Z" fill="white"/>
<rect width="65.242" height="3.24389" rx="1.62194" transform="matrix(-0.428264 -0.903654 0.900031 -0.435826 648.988 238.681)" fill="#61B598"/>
<rect x="647.966" y="235.782" width="59.9986" height="5.19837" rx="2.59919" fill="#A4CABD"/>
<rect width="26.6661" height="1.2641" rx="0.632051" transform="matrix(1 0 0 -1 653.466 240.402)" fill="#2E5A4F"/>
<rect width="5.92843" height="1.2641" rx="0.632051" transform="matrix(1 0 0 -1 653.466 238.381)" fill="#2E5A4F"/>
<rect width="3.35707" height="1.2641" rx="0.632051" transform="matrix(1 0 0 -1 661.252 238.381)" fill="#2E5A4F"/>
<rect width="3.35707" height="1.2641" rx="0.632051" transform="matrix(1 0 0 -1 666.18 238.381)" fill="#2E5A4F"/>
<rect width="6.21414" height="1.2641" rx="0.632051" transform="matrix(1 0 0 -1 674.858 238.381)" fill="#2E5A4F"/>
<path d="M195.218 235.207L221.545 179.555L222.41 179.529L195.734 235.67L195.218 235.207Z" fill="white"/>
<rect width="65.242" height="3.24389" rx="1.62194" transform="matrix(0.428264 -0.903654 -0.900031 -0.435826 197.674 238.681)" fill="#D5D7D6"/>
<rect width="59.9986" height="5.19837" rx="2.59919" transform="matrix(-1 0 0 1 198.696 235.782)" fill="#FEFEFE"/>
<rect x="193.197" y="240.402" width="26.6661" height="1.2641" rx="0.632051" transform="rotate(180 193.197 240.402)" fill="#818181"/>
<rect x="193.197" y="238.381" width="5.92843" height="1.2641" rx="0.632051" transform="rotate(180 193.197 238.381)" fill="#818181"/>
<rect x="185.411" y="238.381" width="3.35707" height="1.2641" rx="0.632051" transform="rotate(180 185.411 238.381)" fill="#818181"/>
<rect x="180.482" y="238.381" width="3.35707" height="1.2641" rx="0.632051" transform="rotate(180 180.482 238.381)" fill="#818181"/>
<rect x="171.804" y="238.381" width="6.21414" height="1.2641" rx="0.632051" transform="rotate(180 171.804 238.381)" fill="#818181"/>
<ellipse rx="3.53182" ry="3.57002" transform="matrix(-1 0 0 1 726.964 387.19)" fill="black"/>
<path d="M763.12 360.256C763.12 359.704 762.672 359.256 762.12 359.256H754.969C754.417 359.256 753.969 359.704 753.969 360.256V379.498H763.12V360.256Z" fill="#2D3647"/>
<path d="M761.77 347.881C761.77 347.329 761.323 346.881 760.77 346.881H755.948C755.395 346.881 754.948 347.329 754.948 347.881V359.256H761.77V347.881Z" fill="#4D5268"/>
<rect width="4.38494" height="20.933" transform="matrix(-1 0 0 1 760.551 325.948)" fill="#A6A6A6"/>
<rect width="9.15043" height="19.7971" rx="1" transform="matrix(-1 0 0 1 763.12 306.151)" fill="#2D3647"/>
<rect width="5.45821" height="2.19066" transform="matrix(-1 0 0 1 761.032 303.961)" fill="#868998"/>
<path d="M780.779 299.255H736.712V301.961C736.712 303.065 737.607 303.961 738.712 303.961H778.779C779.883 303.961 780.779 303.065 780.779 301.961V299.255Z" fill="#4D5268"/>
<path d="M800.203 296.415L819.307 225.503C821.105 223.426 821.554 225.232 821.554 226.395C816.284 248.194 805.549 292.602 804.779 295.847C804.008 298.768 802.317 299.498 801.568 299.498H713.434C712.407 297.94 713.488 296.794 714.157 296.415H800.203Z" fill="#41825F"/>
<path d="M810.477 232.805C811.89 226.444 817.059 224.854 819.467 224.854L800.444 296.496L713.354 297.064C713.354 295.766 715.441 290.411 721.862 289.275C729.311 287.717 775.16 287.977 797.153 288.302C801.006 272.453 809.065 239.166 810.477 232.805Z" fill="#45B177"/>
<path d="M767.917 381.913C751.992 381.134 731.529 383.211 723.288 384.347C722.077 384.514 721.901 383.004 722.686 382.785C731.291 380.383 756.358 378.748 767.917 378.18V381.913Z" fill="#070E1A"/>
<rect width="4.38494" height="4.28708" transform="matrix(-1 0 0 1 760.551 381.682)" fill="black"/>
<path d="M738.022 136.661C736.422 135.044 736.498 127.804 736.736 124.387L742.879 113.557L777.592 124.387L783.592 145.758L766.021 158.934C764.736 151.714 756.164 153.267 753.022 155.433C749.879 157.599 747.45 155.433 747.45 153.267C747.45 151.101 745.593 152.112 745.736 149.801C745.879 147.491 744.307 144.314 742.879 145.758C741.45 147.202 739.45 146.913 739.736 145.758C740.022 144.603 740.022 138.682 738.022 136.661Z" fill="#FFD4AB"/>
<path d="M737.022 217.091C743.193 217.553 754.45 218.439 759.307 218.824L761.735 232.397C759.735 231.868 754.421 230.203 749.164 227.777C742.593 224.744 730.736 222.723 726.022 222.723C721.308 222.723 717.736 224.889 715.165 225.178C712.594 225.466 706.594 226.91 705.022 227.777C703.451 228.643 696.88 228.643 697.308 226.91C697.737 225.178 704.022 223.878 704.022 222.723C704.022 221.568 701.88 222.29 698.737 223.878C695.594 225.466 694.451 227.344 692.451 226.91C690.451 226.477 690.451 223.445 694.451 221.134C698.451 218.824 707.308 217.091 712.165 217.091C717.022 217.091 729.307 216.514 737.022 217.091Z" fill="#FBD9B6"/>
<path fill-rule="evenodd" clip-rule="evenodd" d="M761.593 232.359C759.493 231.791 754.301 230.147 749.165 227.777C742.593 224.744 730.736 222.723 726.022 222.723C723.082 222.723 720.586 223.565 718.501 224.27C717.242 224.694 716.133 225.069 715.165 225.178C712.594 225.466 706.594 226.91 705.023 227.777C704.185 228.239 701.924 228.454 700.062 228.292C700.271 227.527 701.072 226.699 704.452 226.333C706.32 226.13 711.594 224.961 715.88 223.228C720.166 221.495 721.88 221.207 732.165 221.062C740.329 220.948 754.839 227.48 761.438 230.732L761.593 231.601V232.359Z" fill="#F9CFA4"/>
<path d="M784.735 290.735C798.677 289.349 802.925 272.637 803.306 264.454L773.307 254.779C771.592 256.849 762.364 261.277 739.165 262.433C715.965 263.588 709.308 277.258 708.88 283.948C707.165 305.175 719.879 323.513 722.451 328.567C725.022 333.621 741.45 361.057 743.593 363.656C745.307 365.736 746.117 369.336 746.307 370.876C747.593 369.384 750.536 365.851 752.021 363.656C753.507 361.461 753.783 358.602 753.736 357.447C750.45 354.704 738.879 333.621 736.165 325.679C733.45 317.737 725.736 298.099 722.451 292.323C719.822 287.702 722.498 286.451 724.165 286.403C738.546 288.424 770.792 292.121 784.735 290.735Z" fill="#755A45"/>
<path d="M763.164 251.747L765.557 244.924L804.806 255.862V264.96L763.164 251.747Z" fill="#80A623"/>
<path d="M768.449 220.268C769.135 226.044 766.64 239.232 765.307 245.105L805.306 256.368C803.02 254.057 805.02 232.397 805.306 220.268C805.591 208.138 804.734 193.698 801.592 178.392C799.077 166.147 788.735 150.956 783.878 144.892L756.735 165.974C753.593 170.017 758.45 191.388 759.878 198.608C761.307 205.828 767.592 213.048 768.449 220.268Z" fill="#FC7D6E"/>
<path d="M728.736 120.055C729.193 125.369 734.736 124.964 737.45 124.098C741.022 121.499 746.879 124.098 747.736 127.564C748.421 130.336 752.116 130.355 753.878 130.018C755.926 128.286 760.792 126.322 763.878 132.329C766.964 138.336 778.259 141.258 782.878 142.509C780.735 138.899 781.306 125.109 781.592 122.798C781.821 120.95 783.116 120.199 783.735 120.055C783.354 118.996 781.649 116.156 777.878 113.268C774.106 110.38 772.021 102.631 771.449 99.117C771.354 99.5502 769.335 100.474 762.021 100.705C752.878 100.994 746.879 104.46 742.593 106.048C738.307 107.637 737.45 115.145 733.879 118.322C731.022 120.864 729.26 120.536 728.736 120.055Z" fill="#E9BA74"/>
<path d="M776.878 166.696C771.164 166.696 768.878 171.99 768.45 174.638C767.84 176.788 769.878 182.724 771.164 189.511C772.449 196.298 772.592 209.149 772.592 211.46C772.592 213.77 772.592 216.658 769.878 217.669C767.164 218.68 760.307 216.514 759.021 216.658C757.993 216.774 760.307 228.066 761.593 233.697C764.497 233.505 771.992 233.062 778.735 232.831C787.163 232.542 785.306 229.943 785.449 225.9C785.592 221.856 790.449 187.489 790.163 178.681C789.878 169.873 784.021 166.696 776.878 166.696Z" fill="#F25B5B"/>
<path fill-rule="evenodd" clip-rule="evenodd" d="M756.878 182.002C757.307 179.403 758.878 173.569 761.735 171.028C761.212 173.82 760.478 179.663 761.735 180.703C765.45 171.942 776.249 154.191 789.735 153.267L789.878 153.257C787.604 149.783 785.452 146.858 783.878 144.892L756.735 165.974C755.1 168.078 755.631 174.875 756.718 181.929C756.772 181.954 756.826 181.978 756.878 182.002Z" fill="#F25B5B"/>
<path fill-rule="evenodd" clip-rule="evenodd" d="M804.847 201.979C801.753 202.19 798.581 205.573 797.021 216.081C794.372 233.935 787.332 246.041 783.809 250.314L805.306 256.368C803.64 254.684 804.251 242.726 804.815 231.668C805.025 227.551 805.229 223.559 805.306 220.268C805.439 214.623 805.324 208.479 804.847 201.979Z" fill="#F25B5B"/>
<path fill-rule="evenodd" clip-rule="evenodd" d="M685.623 277.318C685.538 276.811 685.479 276.37 685.452 276.006C685.156 272.126 686.082 269.549 687.34 266.668C687.998 275.192 694.128 284.206 697.166 287.702C692.074 286.584 687.465 280.499 685.623 277.318Z" fill="#674E38"/>
<path fill-rule="evenodd" clip-rule="evenodd" d="M802.97 267.876C801.712 276.575 796.935 289.522 784.735 290.735C782.992 290.908 780.963 291.002 778.719 291.03C768.332 291.157 753.331 289.867 740.721 288.466C734.261 287.749 728.428 287.002 724.165 286.403C723.957 286.409 723.732 286.434 723.505 286.481C722.926 286.603 722.324 286.874 721.904 287.365C721.168 288.222 720.987 289.75 722.451 292.323C725.736 298.099 733.45 317.737 736.165 325.679C736.504 326.672 736.982 327.87 737.564 329.212C741.642 338.605 750.861 355.047 753.736 357.447C753.742 357.592 753.742 357.763 753.737 357.956C753.695 359.307 753.321 361.736 752.021 363.656C751.836 363.931 751.627 364.226 751.402 364.536C749.826 366.703 747.432 369.571 746.307 370.876C746.117 369.336 745.307 365.736 743.593 363.656C743.325 363.331 742.834 362.619 742.175 361.61C737.56 354.548 724.701 332.99 722.451 328.567C722.407 328.482 722.361 328.394 722.313 328.301C722.044 327.793 721.692 327.173 721.277 326.449C721.163 326.251 721.045 326.046 720.923 325.833C716.797 318.662 707.735 302.909 708.809 284.953C709.653 281.82 713.629 276.526 723.594 278.316C736.451 280.627 772.736 284.092 780.164 281.204C786.107 278.894 791.973 267.15 794.164 261.566L794.717 261.684L803.306 264.454C803.258 265.477 803.15 266.633 802.97 267.876Z" fill="#674E38"/>
<path fill-rule="evenodd" clip-rule="evenodd" d="M751.458 156.192C749.621 156.704 748.207 155.721 747.677 154.413C748.555 153.324 750.564 151.482 753.165 150.956C756.736 150.234 758.45 148.502 757.593 146.336C756.908 144.603 756.736 141.185 756.736 139.693H760.593C760.069 141.233 759.336 144.718 760.593 146.336C761.85 147.953 760.915 150.487 759.165 151.967C758.515 152.517 757.013 153.37 755.382 154.225C754.474 154.574 753.668 154.992 753.053 155.411C752.483 155.694 751.941 155.959 751.458 156.192Z" fill="#E2A66A"/>
<path fill-rule="evenodd" clip-rule="evenodd" d="M783.064 118.747C780.418 119.08 776.787 119.263 771.643 119.055C761.729 118.654 756.31 123.453 754.84 125.903L756.729 128.422C756.831 128.421 756.933 128.422 757.036 128.425C759.251 127.916 761.922 128.521 763.878 132.329C766.888 138.188 777.708 141.112 782.525 142.413C782.646 142.446 782.764 142.478 782.878 142.509C780.735 138.899 781.306 125.109 781.592 122.798C781.821 120.95 783.116 120.199 783.735 120.055C783.626 119.752 783.408 119.302 783.064 118.747Z" fill="#E9A767"/>
<ellipse cx="758.765" cy="131.607" rx="8.54179" ry="8.6342" fill="#FBFFFF"/>
<ellipse cx="758.765" cy="131.607" rx="5.42845" ry="5.48717" fill="#767676"/>
<path fill-rule="evenodd" clip-rule="evenodd" d="M742.186 106.221L753.232 125.687L757.164 123.391L746.962 104.244C746.43 104.465 745.918 104.682 745.425 104.892C744.403 105.326 743.462 105.726 742.593 106.048C742.454 106.1 742.318 106.158 742.186 106.221Z" fill="#FBFBF2"/>
<path d="M705.493 383.611C708.464 381.762 708.445 378.027 708.064 376.391L725.064 379.567C724.778 380.819 723.893 385.401 722.635 389.098C721.378 392.794 716.397 394.777 714.064 395.307C714.064 395.307 686.336 401.336 684.851 396.462C684.295 394.64 687.253 391.726 689.493 390.831C693.588 389.194 702.522 385.459 705.493 383.611Z" fill="#00AFBF"/>
<path fill-rule="evenodd" clip-rule="evenodd" d="M723.69 379.311L725.064 379.567C725.017 379.775 724.953 380.074 724.874 380.445C724.474 382.313 723.684 386.014 722.635 389.098C721.378 392.794 716.397 394.777 714.064 395.307C714.064 395.307 686.336 401.336 684.851 396.462C684.725 396.051 684.779 395.585 684.962 395.099C687.871 396.017 694.512 397.391 699.783 396.101C702.578 395.417 705.628 394.978 708.413 394.577C712.389 394.005 715.825 393.51 717.211 392.491C719.568 390.758 722.068 386.571 722.568 382.672C722.774 381.068 723.35 379.948 723.69 379.311Z" fill="#059CAA"/>
<path d="M749.164 376.941C749.964 374.053 746.974 371.983 745.879 371.021C750.336 366.4 753.218 359.481 753.789 357.122C761.075 360.299 763.021 365.967 762.592 368.855C762.164 371.743 756.164 385.461 751.593 389.215C747.021 392.969 741.307 394.413 739.022 392.392C736.736 390.37 739.45 388.349 741.307 387.482C743.164 386.616 748.164 380.551 749.164 376.941Z" fill="#02AFB5"/>
<path fill-rule="evenodd" clip-rule="evenodd" d="M738.521 391.742C739.759 392.055 742.707 392.493 744.593 391.742C746.95 390.803 751.664 387.988 753.235 385.605C754.807 383.222 759.092 375.714 760.164 372.032C761.235 368.349 760.842 365.57 759.592 363.44C759.051 362.517 755.522 359.449 753.594 357.821C753.676 357.558 753.741 357.323 753.79 357.122C761.075 360.299 763.022 365.967 762.593 368.855C762.165 371.743 756.165 385.461 751.593 389.215C747.022 392.969 741.308 394.413 739.022 392.392C738.796 392.191 738.618 391.991 738.484 391.791L738.521 391.742Z" fill="#059CAA"/>
<path d="M741.629 132.42C739.343 132.073 737.7 132.42 737.7 133.864C737.7 135.862 740.272 133.841 742.057 133.552C743.486 133.321 742.343 134.973 745.2 136.368C744.7 134.274 744.486 132.853 741.629 132.42Z" fill="#E2A66A"/>
<path fill-rule="evenodd" clip-rule="evenodd" d="M738.717 137.653C738.552 137.333 738.366 137.047 738.155 136.805C738.201 136.762 738.247 136.72 738.292 136.682C738.517 136.444 740.058 135.16 740.537 135.955C741.078 136.853 740.243 137.293 738.717 137.653Z" fill="#7B6957"/>
<path fill-rule="evenodd" clip-rule="evenodd" d="M710.229 282.032C708.631 288.853 709.771 296.761 711.166 301.709C711.849 304.715 712.758 310.249 713.513 314.843C713.81 316.649 714.083 318.31 714.308 319.615C714.507 320.761 714.824 322.693 715.221 325.114C716.823 334.889 719.734 352.641 721.451 358.891C723.531 366.46 725.973 378.747 724.998 379.701C722.708 368.486 718.066 346.412 715.49 336.509C712.111 323.523 705.048 292.027 706.891 286.225C707.345 284.796 708.61 283.326 710.229 282.032Z" fill="#674E38"/>
<defs>
<linearGradient id="paint0_linear" x1="577.311" y1="224.085" x2="682.813" y2="178.422" gradientUnits="userSpaceOnUse">
<stop stop-color="#6BCAFF" stop-opacity="0.67"/>
<stop offset="1" stop-color="white" stop-opacity="0"/>
</linearGradient>
<linearGradient id="paint1_linear" x1="269.351" y1="224.15" x2="163.828" y2="178.508" gradientUnits="userSpaceOnUse">
<stop stop-color="#6BCAFF" stop-opacity="0.67"/>
<stop offset="1" stop-color="white" stop-opacity="0"/>
</linearGradient>
</defs>
</svg>
