<svg width="365" height="101" viewBox="0 0 365 101" fill="none" xmlns="http://www.w3.org/2000/svg">
<path d="M134.214 83H128.673C128.053 83 127.538 82.859 127.129 82.577C126.735 82.281 126.46 81.9074 126.305 81.4562L124.486 76.0847H112.77L110.952 81.4562C110.811 81.851 110.536 82.2105 110.127 82.5348C109.718 82.8449 109.217 83 108.625 83H103.042L114.97 52.1879H122.287L134.214 83ZM114.42 71.2208H122.836L120.003 62.7829C119.819 62.2471 119.601 61.6198 119.347 60.9007C119.107 60.1676 118.868 59.3781 118.628 58.5322C118.403 59.3922 118.17 60.1888 117.93 60.9219C117.691 61.655 117.465 62.2894 117.253 62.8252L114.42 71.2208ZM153.894 58.4476C153.683 58.786 153.457 59.0397 153.217 59.2089C152.992 59.3781 152.696 59.4627 152.329 59.4627C152.005 59.4627 151.652 59.364 151.272 59.1666C150.905 58.9552 150.482 58.7225 150.003 58.4688C149.538 58.215 149.002 57.9894 148.396 57.792C147.789 57.5806 147.099 57.4748 146.323 57.4748C144.984 57.4748 143.983 57.7638 143.32 58.3419C142.672 58.9058 142.347 59.6742 142.347 60.647C142.347 61.2673 142.545 61.7819 142.94 62.1907C143.334 62.5996 143.849 62.9521 144.483 63.2481C145.132 63.5442 145.865 63.8191 146.683 64.0729C147.515 64.3126 148.36 64.5875 149.22 64.8976C150.08 65.1937 150.919 65.5462 151.737 65.955C152.569 66.3639 153.302 66.8855 153.936 67.5199C154.585 68.1544 155.107 68.9298 155.501 69.8462C155.896 70.7485 156.093 71.8411 156.093 73.1241C156.093 74.548 155.847 75.8803 155.353 77.121C154.86 78.3616 154.141 79.4472 153.196 80.3777C152.266 81.2941 151.11 82.0202 149.728 82.5559C148.36 83.0775 146.803 83.3384 145.054 83.3384C144.096 83.3384 143.116 83.2397 142.115 83.0423C141.128 82.8449 140.169 82.57 139.239 82.2175C138.308 81.851 137.434 81.421 136.616 80.9275C135.799 80.4341 135.087 79.8843 134.481 79.278L136.595 75.9367C136.75 75.6829 136.969 75.4785 137.251 75.3234C137.533 75.1683 137.836 75.0908 138.16 75.0908C138.583 75.0908 139.006 75.2247 139.429 75.4926C139.866 75.7605 140.353 76.0565 140.888 76.3808C141.438 76.7051 142.065 77.0011 142.77 77.269C143.475 77.5369 144.307 77.6708 145.266 77.6708C146.563 77.6708 147.571 77.3888 148.29 76.8249C149.009 76.2469 149.368 75.3375 149.368 74.0969C149.368 73.3778 149.171 72.7927 148.776 72.3416C148.382 71.8905 147.86 71.5168 147.211 71.2208C146.577 70.9247 145.851 70.6639 145.033 70.4383C144.215 70.2127 143.377 69.966 142.517 69.6981C141.657 69.4162 140.818 69.0778 140 68.6831C139.182 68.2742 138.449 67.7455 137.801 67.097C137.166 66.4344 136.652 65.6167 136.257 64.6439C135.862 63.657 135.665 62.4445 135.665 61.0065C135.665 59.8504 135.897 58.7225 136.363 57.6229C136.828 56.5232 137.512 55.5433 138.414 54.6833C139.316 53.8233 140.423 53.1396 141.734 52.632C143.045 52.1104 144.547 51.8496 146.239 51.8496C147.183 51.8496 148.1 51.9271 148.988 52.0822C149.89 52.2232 150.743 52.4417 151.547 52.7378C152.35 53.0197 153.097 53.3651 153.788 53.774C154.493 54.1687 155.121 54.6199 155.67 55.1274L153.894 58.4476ZM176.818 58.4476C176.606 58.786 176.381 59.0397 176.141 59.2089C175.915 59.3781 175.619 59.4627 175.253 59.4627C174.929 59.4627 174.576 59.364 174.195 59.1666C173.829 58.9552 173.406 58.7225 172.927 58.4688C172.461 58.215 171.926 57.9894 171.319 57.792C170.713 57.5806 170.022 57.4748 169.247 57.4748C167.908 57.4748 166.907 57.7638 166.244 58.3419C165.595 58.9058 165.271 59.6742 165.271 60.647C165.271 61.2673 165.469 61.7819 165.863 62.1907C166.258 62.5996 166.773 62.9521 167.407 63.2481C168.056 63.5442 168.789 63.8191 169.606 64.0729C170.438 64.3126 171.284 64.5875 172.144 64.8976C173.004 65.1937 173.843 65.5462 174.661 65.955C175.492 66.3639 176.226 66.8855 176.86 67.5199C177.509 68.1544 178.03 68.9298 178.425 69.8462C178.82 70.7485 179.017 71.8411 179.017 73.1241C179.017 74.548 178.77 75.8803 178.277 77.121C177.783 78.3616 177.064 79.4472 176.12 80.3777C175.189 81.2941 174.033 82.0202 172.652 82.5559C171.284 83.0775 169.726 83.3384 167.978 83.3384C167.019 83.3384 166.04 83.2397 165.039 83.0423C164.052 82.8449 163.093 82.57 162.162 82.2175C161.232 81.851 160.358 81.421 159.54 80.9275C158.722 80.4341 158.01 79.8843 157.404 79.278L159.519 75.9367C159.674 75.6829 159.893 75.4785 160.175 75.3234C160.457 75.1683 160.76 75.0908 161.084 75.0908C161.507 75.0908 161.93 75.2247 162.353 75.4926C162.79 75.7605 163.276 76.0565 163.812 76.3808C164.362 76.7051 164.989 77.0011 165.694 77.269C166.399 77.5369 167.231 77.6708 168.19 77.6708C169.487 77.6708 170.495 77.3888 171.214 76.8249C171.933 76.2469 172.292 75.3375 172.292 74.0969C172.292 73.3778 172.095 72.7927 171.7 72.3416C171.305 71.8905 170.784 71.5168 170.135 71.2208C169.501 70.9247 168.775 70.6639 167.957 70.4383C167.139 70.2127 166.3 69.966 165.44 69.6981C164.58 69.4162 163.741 69.0778 162.924 68.6831C162.106 68.2742 161.373 67.7455 160.724 67.097C160.09 66.4344 159.575 65.6167 159.181 64.6439C158.786 63.657 158.588 62.4445 158.588 61.0065C158.588 59.8504 158.821 58.7225 159.286 57.6229C159.752 56.5232 160.435 55.5433 161.338 54.6833C162.24 53.8233 163.347 53.1396 164.658 52.632C165.969 52.1104 167.47 51.8496 169.162 51.8496C170.107 51.8496 171.023 51.9271 171.912 52.0822C172.814 52.2232 173.667 52.4417 174.47 52.7378C175.274 53.0197 176.021 53.3651 176.712 53.774C177.417 54.1687 178.044 54.6199 178.594 55.1274L176.818 58.4476ZM195.385 77.3536C196.344 77.3536 197.197 77.1985 197.944 76.8883C198.705 76.5641 199.347 76.1059 199.868 75.5137C200.39 74.9216 200.785 74.2026 201.053 73.3567C201.335 72.4967 201.476 71.5239 201.476 70.4383V52.1879H208.623V70.4383C208.623 72.3275 208.313 74.0616 207.693 75.6406C207.087 77.2197 206.213 78.5801 205.071 79.7221C203.929 80.8641 202.54 81.7523 200.905 82.3867C199.269 83.0211 197.429 83.3384 195.385 83.3384C193.327 83.3384 191.48 83.0211 189.844 82.3867C188.209 81.7523 186.82 80.8641 185.678 79.7221C184.536 78.5801 183.662 77.2197 183.056 75.6406C182.45 74.0616 182.147 72.3275 182.147 70.4383V52.1879H189.295V70.4172C189.295 71.5027 189.428 72.4755 189.696 73.3355C189.978 74.1814 190.38 74.9075 190.902 75.5137C191.423 76.1059 192.058 76.5641 192.805 76.8883C193.566 77.1985 194.426 77.3536 195.385 77.3536ZM220.406 71.6014V83H213.258V52.1879H223.282C225.51 52.1879 227.406 52.4205 228.971 52.8858C230.55 53.3369 231.833 53.9714 232.82 54.7891C233.821 55.6068 234.547 56.5725 234.998 57.6863C235.449 58.8001 235.675 60.0125 235.675 61.3237C235.675 62.3247 235.541 63.2693 235.273 64.1575C235.005 65.0457 234.603 65.8704 234.068 66.6317C233.546 67.379 232.897 68.0486 232.122 68.6408C231.361 69.2329 230.48 69.7193 229.479 70.1C229.958 70.3396 230.402 70.6357 230.811 70.9882C231.234 71.3406 231.6 71.7706 231.911 72.2782L238.466 83H231.995C230.797 83 229.937 82.5489 229.415 81.6466L224.297 72.7011C224.072 72.3064 223.804 72.0244 223.494 71.8552C223.198 71.686 222.775 71.6014 222.225 71.6014H220.406ZM220.406 66.674H223.282C224.255 66.674 225.08 66.5542 225.757 66.3145C226.447 66.0608 227.011 65.7153 227.448 65.2783C227.886 64.8412 228.203 64.3337 228.4 63.7557C228.597 63.1635 228.696 62.5291 228.696 61.8524C228.696 60.4989 228.252 59.4416 227.364 58.6802C226.49 57.9189 225.129 57.5383 223.282 57.5383H220.406V66.674ZM270.063 83H264.522C263.902 83 263.387 82.859 262.978 82.577C262.583 82.281 262.308 81.9074 262.153 81.4562L260.335 76.0847H248.619L246.8 81.4562C246.659 81.851 246.384 82.2105 245.975 82.5348C245.567 82.8449 245.066 83 244.474 83H238.891L250.818 52.1879H258.135L270.063 83ZM250.268 71.2208H258.685L255.851 62.7829C255.668 62.2471 255.45 61.6198 255.196 60.9007C254.956 60.1676 254.716 59.3781 254.477 58.5322C254.251 59.3922 254.019 60.1888 253.779 60.9219C253.539 61.655 253.314 62.2894 253.102 62.8252L250.268 71.2208ZM276.335 52.1879C276.645 52.1879 276.906 52.202 277.118 52.2302C277.329 52.2584 277.519 52.3148 277.689 52.3994C277.858 52.4699 278.02 52.5756 278.175 52.7166C278.33 52.8576 278.506 53.0479 278.704 53.2876L293.338 71.7918C293.281 71.1996 293.239 70.6286 293.211 70.0788C293.183 69.5149 293.169 68.9862 293.169 68.4927V52.1879H299.471V83H295.749C295.199 83 294.734 82.9154 294.353 82.7462C293.972 82.577 293.606 82.2669 293.253 81.8157L278.725 63.4596C278.767 63.9953 278.802 64.524 278.831 65.0457C278.859 65.5532 278.873 66.0326 278.873 66.4837V83H272.571V52.1879H276.335ZM325.244 75.0273C325.413 75.0273 325.582 75.0626 325.751 75.1331C325.92 75.1895 326.082 75.2952 326.238 75.4503L329.071 78.4321C327.831 80.0534 326.273 81.28 324.398 82.1118C322.537 82.9295 320.33 83.3384 317.779 83.3384C315.438 83.3384 313.338 82.9436 311.477 82.1541C309.63 81.3505 308.058 80.2508 306.761 78.8551C305.478 77.4452 304.491 75.7816 303.8 73.8642C303.109 71.9327 302.764 69.8391 302.764 67.5834C302.764 65.2853 303.158 63.1776 303.948 61.2602C304.737 59.3288 305.837 57.6652 307.247 56.2694C308.671 54.8737 310.37 53.7881 312.344 53.0127C314.317 52.2373 316.496 51.8496 318.878 51.8496C320.034 51.8496 321.12 51.9553 322.135 52.1668C323.164 52.3641 324.123 52.6461 325.011 53.0127C325.899 53.3651 326.717 53.7951 327.464 54.3027C328.211 54.7961 328.874 55.346 329.452 55.9522L327.041 59.1878C326.886 59.3852 326.703 59.5684 326.491 59.7376C326.28 59.8927 325.984 59.9702 325.603 59.9702C325.349 59.9702 325.11 59.9138 324.884 59.8011C324.659 59.6883 324.419 59.5543 324.165 59.3993C323.911 59.2301 323.629 59.0538 323.319 58.8706C323.023 58.6732 322.664 58.497 322.241 58.3419C321.832 58.1727 321.345 58.0317 320.781 57.9189C320.232 57.8061 319.583 57.7497 318.836 57.7497C317.539 57.7497 316.355 57.9824 315.283 58.4476C314.212 58.8988 313.288 59.5543 312.513 60.4143C311.751 61.2602 311.152 62.2894 310.715 63.5019C310.292 64.7144 310.081 66.0749 310.081 67.5834C310.081 69.1624 310.292 70.5652 310.715 71.7918C311.152 73.0183 311.737 74.0546 312.47 74.9005C313.218 75.7323 314.085 76.3667 315.072 76.8037C316.059 77.2408 317.116 77.4593 318.244 77.4593C318.892 77.4593 319.484 77.4311 320.02 77.3747C320.556 77.3042 321.049 77.1915 321.501 77.0364C321.966 76.8813 322.403 76.6839 322.812 76.4442C323.235 76.1905 323.658 75.8803 324.081 75.5137C324.25 75.3728 324.433 75.26 324.63 75.1754C324.828 75.0767 325.032 75.0273 325.244 75.0273ZM352.174 52.1879V57.6863H339.528V64.8765H349.213V70.1634H339.528V77.5016H352.174V83H332.338V52.1879H352.174Z" fill="white"/>
<path d="M126.895 33.9186C126.895 35.6898 126.6 37.3163 126.01 38.7979C125.419 40.2796 124.589 41.5551 123.52 42.6246C122.451 43.694 121.164 44.5239 119.66 45.1144C118.156 45.7048 116.491 46 114.664 46H105.44V21.8371H114.664C116.491 21.8371 118.156 22.1379 119.66 22.7395C121.164 23.3299 122.451 24.1599 123.52 25.2293C124.589 26.2876 125.419 27.5576 126.01 29.0392C126.6 30.5208 126.895 32.1473 126.895 33.9186ZM122.3 33.9186C122.3 32.5929 122.122 31.4065 121.765 30.3593C121.409 29.301 120.902 28.4098 120.245 27.6857C119.588 26.9504 118.786 26.3879 117.839 25.998C116.903 25.6081 115.845 25.4131 114.664 25.4131H109.968V42.424H114.664C115.845 42.424 116.903 42.2291 117.839 41.8392C118.786 41.4493 119.588 40.8923 120.245 40.1682C120.902 39.4329 121.409 38.5417 121.765 37.4945C122.122 36.4362 122.3 35.2442 122.3 33.9186ZM149.126 46H145.65C145.26 46 144.937 45.9053 144.681 45.7159C144.436 45.5154 144.258 45.2703 144.146 44.9807L142.342 40.0512H132.332L130.528 44.9807C130.438 45.2369 130.26 45.4708 129.993 45.6825C129.737 45.8942 129.419 46 129.04 46H125.548L135.039 21.8371H139.635L149.126 46ZM133.485 36.8763H141.189L138.248 28.8387C138.114 28.4822 137.964 28.0645 137.797 27.5854C137.641 27.0953 137.485 26.5661 137.329 25.998C137.173 26.5661 137.017 27.0953 136.861 27.5854C136.716 28.0756 136.571 28.5045 136.426 28.8721L133.485 36.8763ZM164.523 21.8371V25.5301H157.254V46H152.759V25.5301H145.457V21.8371H164.523ZM184.491 46H181.016C180.626 46 180.303 45.9053 180.047 45.7159C179.801 45.5154 179.623 45.2703 179.512 44.9807L177.707 40.0512H167.698L165.893 44.9807C165.804 45.2369 165.626 45.4708 165.358 45.6825C165.102 45.8942 164.785 46 164.406 46H160.913L170.405 21.8371H175L184.491 46ZM168.851 36.8763H176.554L173.613 28.8387C173.479 28.4822 173.329 28.0645 173.162 27.5854C173.006 27.0953 172.85 26.5661 172.694 25.998C172.538 26.5661 172.382 27.0953 172.226 27.5854C172.081 28.0756 171.937 28.5045 171.792 28.8721L168.851 36.8763ZM213.277 33.9186C213.277 34.9992 213.166 36.0352 212.943 37.0267C212.72 38.007 212.397 38.926 211.974 39.7838C211.561 40.6416 211.055 41.4326 210.453 42.1567C209.851 42.8696 209.166 43.4991 208.398 44.0449L214.53 50.729H210.821C210.286 50.729 209.801 50.6566 209.367 50.5117C208.943 50.3669 208.554 50.0996 208.197 49.7096L204.655 45.7995C204.086 45.9554 203.502 46.0724 202.9 46.1504C202.31 46.2284 201.691 46.2674 201.045 46.2674C199.218 46.2674 197.547 45.961 196.032 45.3483C194.528 44.7245 193.236 43.8611 192.155 42.7582C191.086 41.6554 190.256 40.352 189.666 38.8481C189.075 37.333 188.78 35.6898 188.78 33.9186C188.78 32.1473 189.075 30.5097 189.666 29.0058C190.256 27.4907 191.086 26.1818 192.155 25.0789C193.236 23.976 194.528 23.1183 196.032 22.5056C197.547 21.8817 199.218 21.5698 201.045 21.5698C202.872 21.5698 204.538 21.8817 206.041 22.5056C207.545 23.1294 208.832 23.9928 209.902 25.0956C210.971 26.1874 211.801 27.4907 212.391 29.0058C212.982 30.5097 213.277 32.1473 213.277 33.9186ZM208.665 33.9186C208.665 32.5929 208.487 31.4065 208.13 30.3593C207.785 29.301 207.284 28.4042 206.626 27.669C205.969 26.9337 205.167 26.3712 204.22 25.9813C203.284 25.5914 202.226 25.3964 201.045 25.3964C199.864 25.3964 198.8 25.5914 197.854 25.9813C196.907 26.3712 196.099 26.9337 195.431 27.669C194.773 28.4042 194.266 29.301 193.91 30.3593C193.553 31.4065 193.375 32.5929 193.375 33.9186C193.375 35.2442 193.553 36.4362 193.91 37.4945C194.266 38.5417 194.773 39.4329 195.431 40.1682C196.099 40.8923 196.907 41.4493 197.854 41.8392C198.8 42.2291 199.864 42.424 201.045 42.424C202.226 42.424 203.284 42.2291 204.22 41.8392C205.167 41.4493 205.969 40.8923 206.626 40.1682C207.284 39.4329 207.785 38.5417 208.13 37.4945C208.487 36.4362 208.665 35.2442 208.665 33.9186ZM224.884 42.3739C225.753 42.3739 226.527 42.2291 227.207 41.9394C227.897 41.6498 228.477 41.2432 228.945 40.7196C229.424 40.196 229.786 39.561 230.031 38.8146C230.287 38.0683 230.415 37.2328 230.415 36.3081V21.8371H234.91V36.3081C234.91 37.7452 234.676 39.0764 234.208 40.3018C233.751 41.5161 233.089 42.5689 232.22 43.4601C231.351 44.3401 230.298 45.0308 229.062 45.5321C227.825 46.0223 226.432 46.2674 224.884 46.2674C223.335 46.2674 221.943 46.0223 220.706 45.5321C219.47 45.0308 218.417 44.3401 217.548 43.4601C216.69 42.5689 216.028 41.5161 215.56 40.3018C215.103 39.0764 214.875 37.7452 214.875 36.3081V21.8371H219.37V36.2914C219.37 37.216 219.492 38.0515 219.737 38.7979C219.993 39.5443 220.356 40.1849 220.823 40.7196C221.291 41.2432 221.865 41.6498 222.545 41.9394C223.235 42.2291 224.015 42.3739 224.884 42.3739ZM258.16 46H254.684C254.294 46 253.971 45.9053 253.715 45.7159C253.47 45.5154 253.291 45.2703 253.18 44.9807L251.375 40.0512H241.366L239.561 44.9807C239.472 45.2369 239.294 45.4708 239.026 45.6825C238.77 45.8942 238.453 46 238.074 46H234.582L244.073 21.8371H248.668L258.16 46ZM242.519 36.8763H250.222L247.281 28.8387C247.148 28.4822 246.997 28.0645 246.83 27.5854C246.674 27.0953 246.518 26.5661 246.362 25.998C246.206 26.5661 246.05 27.0953 245.894 27.5854C245.75 28.0756 245.605 28.5045 245.46 28.8721L242.519 36.8763ZM263.472 42.2904H273.147V46H258.977V21.8371H263.472V42.2904ZM279.634 46H275.122V21.8371H279.634V46ZM300.437 21.8371V25.5301H293.168V46H288.673V25.5301H281.37V21.8371H300.437ZM312.359 36.6089V46H307.864V36.6089L299.057 21.8371H303.018C303.408 21.8371 303.714 21.9318 303.937 22.1212C304.171 22.3106 304.366 22.5501 304.522 22.8398L308.95 30.9107C309.206 31.3898 309.429 31.8465 309.618 32.281C309.808 32.7043 309.98 33.1221 310.136 33.5342C310.281 33.1109 310.443 32.6876 310.621 32.2643C310.81 31.8298 311.033 31.3786 311.289 30.9107L315.684 22.8398C315.806 22.5947 315.99 22.3663 316.235 22.1546C316.48 21.943 316.792 21.8371 317.171 21.8371H321.148L312.359 36.6089Z" fill="white"/>
<rect x="0.378418" width="95" height="100.938" rx="12" fill="#14192B"/>
<mask id="mask0" mask-type="alpha" maskUnits="userSpaceOnUse" x="0" y="0" width="96" height="101">
<rect x="0.378418" width="95" height="100.938" rx="12" fill="white"/>
</mask>
<g mask="url(#mask0)">
<path d="M28.6067 92.4913C28.4969 87.5063 28.4374 77.9203 28.4214 73.7504C28.4711 72.9142 29.0555 70.7513 30.9949 68.7893C32.1658 67.9314 34.9035 64.9818 36.4864 60.0471C38.465 53.8788 44.4591 49.8927 49.6639 49.2952C54.8686 48.6976 60.4819 49.9218 63.0215 44.6588C65.8312 39.0623 58.9258 37.2857 56.0911 37.6132C53.2563 37.9407 42.7217 41.7192 38.3954 41.4269C31.3788 40.7924 25.771 34.9614 23.9218 28.4229C22.0726 21.8844 23.2525 13.5127 27.3753 6.62884C33.7156 -3.83619 45.6185 -3.29301 52.2029 -1.63568C58.7874 0.0216618 68.2034 7.399 74.2142 10.8813C80.225 14.3637 87.1587 15.3618 90.5119 7.60032C93.8651 -0.161183 85.2379 -2.66973 78.1052 -2.40032C70.9725 -2.13091 65.8099 0.921281 57.4678 -4.15043C47.0723 -10.5767 49.3545 -20.5113 53.2706 -28.5239C57.1866 -36.5365 67.2996 -37.776 74.9813 -32.7524C77.8209 -30.7989 81.9226 -25.892 86.9278 -27.1305C92.4997 -28.5092 96.6928 -31.7867 94.6095 -39.6613C92.8979 -46.1487 87.9005 -48.0053 79.1893 -45.0616C76.7749 -44.2273 71.149 -43.4465 67.9605 -46.998C64.772 -50.5495 66.2122 -54.4633 67.3308 -55.9762C66.1108 -44.2664 75.0036 -48.2604 81.2069 -50.4922C84.5197 -51.8255 96.2567 -51.8341 99.5155 -44.0189C101.699 -38.7822 101.927 -33.8612 99.138 -28.1167L99.0966 -28.0314C97.3584 -24.4506 96.5841 -22.8556 92.5288 -20.5789C88.4414 -18.2842 81.9173 -19.2616 69.3952 -24.1768C64.829 -26.0705 61.5835 -24.778 60.3201 -21.2368C59.0566 -17.6957 62.1243 -12.6111 73.4605 -14.0536C73.9834 -14.0566 88.3907 -19.5521 98.4777 -10.6105C105.736 -4.16635 105.8 2.03601 103.39 11.1357C100.911 20.4953 95.4976 25.9148 87.3892 28.9255C78.979 32.0482 71.3805 27.7774 66.0028 24.1358C63.1672 22.359 58.5543 18.3441 50.9701 13.6198C47.2939 11.5307 39.2701 9.07564 36.5844 15.9674C33.2273 24.5822 39.8292 27.0352 43.9107 27.5651C47.9923 28.0951 57.1465 25.4477 65.5832 27.7931C70.0561 29.2358 78.5742 34.592 76.8638 44.476C75.8166 48.8865 71.551 57.8212 62.8668 58.2766C60.5766 58.2147 55.0788 58.3418 51.4086 59.3451C48.2918 60.291 45.051 65.9246 46.2341 69.0598C47.2884 71.5116 48.7689 77.2074 46.2559 80.3763C43.35 84.3592 37.109 92.8625 35.3921 95.0122C33.2458 97.6994 28.8962 96.3464 28.6067 92.4913Z" fill="#005377"/>
<path d="M25.7146 92.2008C25.6048 87.2158 25.5453 77.6297 25.5293 73.4598C25.579 72.6236 26.1634 70.4608 28.1028 68.4988C29.2738 67.6408 32.0114 64.6912 33.5943 59.7566C35.5729 53.5883 41.567 49.6022 46.7718 49.0046C51.9766 48.4071 57.5898 49.6312 60.1294 44.3683C62.9391 38.7718 56.0338 36.9952 53.199 37.3227C50.3642 37.6502 39.8296 41.4287 35.5033 41.1363C28.4867 40.5019 22.8789 34.6708 21.0297 28.1324C19.1806 21.5939 20.3604 13.2222 24.4832 6.33832C30.8235 -4.12672 42.7264 -3.58354 49.3109 -1.9262C55.8953 -0.268866 65.3113 7.10847 71.3221 10.5908C77.3329 14.0732 84.2666 15.0713 87.6198 7.3098C90.973 -0.45171 82.3458 -2.96026 75.2131 -2.69084C68.0804 -2.42143 62.9178 0.630754 54.5757 -4.44095C44.1803 -10.8672 46.4624 -20.8018 50.3785 -28.8144C54.2945 -36.827 64.4075 -38.0665 72.0892 -33.0429C74.9288 -31.0894 79.0305 -26.1826 84.0358 -27.4211C89.6076 -28.7998 93.8007 -32.0772 91.7174 -39.9518C90.0058 -46.4392 85.0085 -48.2958 76.2972 -45.3521C73.8828 -44.5178 68.2569 -43.737 65.0684 -47.2885C61.8799 -50.84 63.3201 -54.7538 64.4387 -56.2668C63.2187 -44.5569 72.1115 -48.5509 78.3148 -50.7827C81.6276 -52.116 93.3646 -52.1246 96.6234 -44.3094C98.8069 -39.0727 99.0347 -34.1517 96.2459 -28.4073L96.2045 -28.3219C94.4663 -24.7411 93.6921 -23.1462 89.6367 -20.8694C85.5493 -18.5747 79.0252 -19.5521 66.5031 -24.4674C61.937 -26.3611 58.6914 -25.0685 57.428 -21.5273C56.1645 -17.9862 59.2322 -12.9017 70.5684 -14.3442C71.0913 -14.3472 85.4986 -19.8427 95.5857 -10.9011C102.844 -4.45688 102.908 1.74549 100.498 10.8452C98.0194 20.2048 92.6055 25.6243 84.4971 28.635C76.0869 31.7577 68.4884 27.4869 63.1107 23.8452C60.2751 22.0685 55.6622 18.0536 48.078 13.3292C44.4018 11.2402 36.378 8.78511 33.6923 15.6769C30.3352 24.2917 36.9371 26.7446 41.0186 27.2746C45.1002 27.8046 54.2544 25.1571 62.6911 27.5026C67.164 28.9452 75.6821 34.3015 73.9718 44.1855C72.9245 48.5959 68.6589 57.5307 59.9747 57.9861C57.6845 57.9242 52.1867 58.0513 48.5165 59.0546C45.3998 60.0005 42.1589 65.6341 43.342 68.7693C44.3963 71.2211 45.8768 76.9169 43.3638 80.0858C40.4579 84.0687 34.2169 92.5719 32.5 94.7217C30.3537 97.4089 26.0041 96.0559 25.7146 92.2008Z" fill="#3AB5EA"/>
</g>
<rect x="331" y="24" width="11.3333" height="19" fill="#DE0202"/>
<rect x="342.333" y="24" width="11.3333" height="19" fill="white"/>
<rect x="353.667" y="24" width="11.3333" height="19" fill="#DE0202"/>
</svg>
