<svg width="801" height="651" viewBox="0 0 801 651" fill="none" xmlns="http://www.w3.org/2000/svg">
<ellipse cx="396.805" cy="359.827" rx="303.659" ry="290.724" fill="#FFCB80"/>
<ellipse cx="541.926" cy="50.4597" rx="7.31707" ry="7.42275" fill="#515A7C"/>
<ellipse cx="139.487" cy="137.144" rx="10.9756" ry="11.1341" fill="#515A7C"/>
<ellipse cx="89.487" cy="191.578" rx="7.31707" ry="7.42275" fill="#515A7C"/>
<ellipse cx="50.4631" cy="504.57" rx="7.31707" ry="7.42275" fill="#515A7C"/>
<ellipse cx="741.926" cy="481.065" rx="8.53659" ry="8.65988" fill="#515A7C"/>
<path d="M467.328 21.5921C466.493 19.8678 468.285 18.0499 469.985 18.8964L479.412 23.5909C479.964 23.8657 480.61 23.8657 481.162 23.5909L490.59 18.8964C492.289 18.0499 494.081 19.8678 493.247 21.5921L488.619 31.1555C488.348 31.7154 488.348 32.3709 488.619 32.9308L493.247 42.4942C494.081 44.2185 492.289 46.0364 490.59 45.1899L481.162 40.4954C480.61 40.2206 479.964 40.2206 479.412 40.4954L469.985 45.1899C468.285 46.0364 466.493 44.2185 467.328 42.4942L471.955 32.9308C472.226 32.3709 472.226 31.7154 471.955 31.1555L467.328 21.5921Z" fill="#515A7C"/>
<path d="M7.66243 456.132C5.92948 455.353 6.14922 452.825 7.98979 452.367L18.2301 449.816C18.8304 449.666 19.3268 449.247 19.5744 448.68L23.8101 438.982C24.5763 437.228 27.1341 437.457 27.5858 439.321L30.0826 449.624C30.2286 450.226 30.645 450.727 31.2102 450.981L40.8517 455.318C42.5846 456.097 42.3649 458.625 40.5243 459.084L30.284 461.635C29.6837 461.784 29.1873 462.204 28.9397 462.771L24.704 472.469C23.9379 474.223 21.38 473.993 20.9283 472.13L18.4315 461.827C18.2855 461.225 17.8691 460.723 17.3039 460.469L7.66243 456.132Z" fill="#515A7C"/>
<ellipse cx="400.463" cy="628.901" rx="400" ry="21.6497" fill="#D2C8C6"/>
<rect x="231.731" y="357.419" width="335.024" height="196.414" rx="14" fill="#EDEEEE" stroke="#6D4D42" stroke-width="4"/>
<path fill-rule="evenodd" clip-rule="evenodd" d="M537.292 95.082C531.769 95.082 527.292 99.5592 527.292 105.082V248.721C527.292 254.244 531.769 258.721 537.292 258.721H563.996V289.961C568.584 307.813 587.854 298.887 596.113 292.193C601.679 287.681 621.963 270.535 635.897 258.721H777.893C783.416 258.721 787.893 254.244 787.893 248.721V105.082C787.893 99.5592 783.416 95.082 777.893 95.082H537.292Z" fill="#FFFDF9"/>
<path d="M563.996 258.721H565.996V256.721H563.996V258.721ZM563.996 289.961H561.996V290.214L562.059 290.459L563.996 289.961ZM596.113 292.193L594.853 290.639L596.113 292.193ZM635.897 258.721V256.721H635.164L634.604 257.196L635.897 258.721ZM529.292 105.082C529.292 100.664 532.874 97.082 537.292 97.082V93.082C530.665 93.082 525.292 98.4546 525.292 105.082H529.292ZM529.292 248.721V105.082H525.292V248.721H529.292ZM537.292 256.721C532.874 256.721 529.292 253.14 529.292 248.721H525.292C525.292 255.349 530.665 260.721 537.292 260.721V256.721ZM563.996 256.721H537.292V260.721H563.996V256.721ZM565.996 289.961V258.721H561.996V289.961H565.996ZM594.853 290.639C590.887 293.854 584.344 297.527 578.42 298.299C575.492 298.68 572.897 298.331 570.828 297.074C568.793 295.837 566.983 293.548 565.933 289.464L562.059 290.459C563.304 295.301 565.623 298.59 568.75 300.492C571.842 302.372 575.441 302.72 578.936 302.265C585.858 301.363 593.08 297.226 597.372 293.747L594.853 290.639ZM634.604 257.196C620.659 269.019 600.397 286.145 594.853 290.639L597.372 293.747C602.96 289.217 623.267 272.051 637.191 260.247L634.604 257.196ZM777.893 256.721H635.897V260.721H777.893V256.721ZM785.893 248.721C785.893 253.14 782.311 256.721 777.893 256.721V260.721C784.52 260.721 789.893 255.349 789.893 248.721H785.893ZM785.893 105.082V248.721H789.893V105.082H785.893ZM777.893 97.082C782.311 97.082 785.893 100.664 785.893 105.082H789.893C789.893 98.4546 784.52 93.082 777.893 93.082V97.082ZM537.292 97.082H777.893V93.082H537.292V97.082Z" fill="#6D4D42"/>
<path d="M136.439 426.631C131.967 425.6 123.024 421.559 123.024 413.642C123.024 405.724 128.308 402.507 130.951 401.889" stroke="#6D4D42" stroke-width="4"/>
<path d="M138.877 362.301C143.146 362.919 151.682 367.621 151.682 381.476C151.682 393.848 142.739 397.971 138.268 397.559" stroke="#6D4D42" stroke-width="4"/>
<path d="M89.4873 335.084C89.2841 337.146 89.4873 341.765 91.9263 343.744" stroke="#6D4D42" stroke-width="4"/>
<path d="M93.146 350.548C94.3655 354.672 98.8777 363.167 107.17 364.157" stroke="#6D4D42" stroke-width="4"/>
<path d="M128.511 361.064C120.585 359.62 104.487 353.022 103.511 338.177C101.072 310.96 118.145 298.589 132.17 297.97C153.511 296.733 163.877 320.239 142.536 338.795" stroke="#6D4D42" stroke-width="4"/>
<path d="M132.17 340.033C127.496 339.414 118.146 335.703 118.146 328.28C118.146 317.765 125.463 316.528 125.463 316.528" stroke="#6D4D42" stroke-width="4"/>
<path d="M136.438 322.713C137.658 321.888 140.097 319.249 140.097 315.29C140.097 311.331 135.625 310.754 133.39 310.96" stroke="#6D4D42" stroke-width="4"/>
<rect x="21.1943" y="619.623" width="751.22" height="8.65988" rx="3" fill="#6B4F46"/>
<mask id="path-22-inside-1" fill="white">
<path d="M38.2676 601.592C38.2676 599.935 39.6107 598.592 41.2676 598.592H752.341C753.998 598.592 755.341 599.935 755.341 601.592V619.623H38.2676V601.592Z"/>
</mask>
<path d="M38.2676 601.592C38.2676 599.935 39.6107 598.592 41.2676 598.592H752.341C753.998 598.592 755.341 599.935 755.341 601.592V619.623H38.2676V601.592Z" fill="#EEB07F" stroke="#6D4D42" stroke-width="8" mask="url(#path-22-inside-1)"/>
<path d="M75.1338 589.22C75.1338 588.392 75.8054 587.72 76.6338 587.72H180.39C181.218 587.72 181.89 588.392 181.89 589.22V597.092H75.1338V589.22Z" fill="#C2E8ED" stroke="#6B4F46" stroke-width="3"/>
<path d="M170.585 476.735L162.048 586.839H94.9752L84.6094 476.735H170.585Z" fill="#6C4D42" stroke="#6D4D42" stroke-width="4"/>
<path d="M95.585 555.292H161.439L159 582.509H97.4142L95.585 555.292Z" fill="#FBF2E3"/>
<path d="M166.317 497.766L160.829 550.963H94.9752L90.0972 497.766H166.317Z" fill="#AD8061"/>
<path d="M88.8774 476.735L90.097 492.199H166.926L168.146 476.735H88.8774Z" fill="#FBF2E3"/>
<path d="M135.829 509.519C114.853 508.529 113.674 524.777 115.707 533.024C118.755 532.2 125.097 528.694 126.073 521.272C127.048 515.828 132.983 511.168 135.829 509.519Z" fill="#674A3E"/>
<path d="M121.195 536.736C142.17 537.725 143.349 521.478 141.317 513.23C138.268 514.055 131.926 517.56 130.951 524.983C129.975 530.426 124.04 535.086 121.195 536.736Z" fill="#674A3E"/>
<path d="M91.3166 459.415C77.6581 459.415 74.6499 470.962 74.8532 476.735H181.56C181.56 464.859 172.211 460.24 167.536 459.415H91.3166Z" fill="#7F7C7E" stroke="#6D4D42" stroke-width="4"/>
<path d="M174.853 471.477H82.1699C82.1699 468.075 83.3894 464.673 88.2675 464.673H166.926C172.292 464.673 174.446 469.209 174.853 471.477Z" fill="#C4C4C4"/>
<path d="M98.0236 445.807C90.2187 445.807 88.674 454.879 88.8773 459.415H168.146C168.146 449.023 163.268 446.013 160.829 445.807H98.0236Z" fill="#7F7C7E" stroke="#6D4D42" stroke-width="4"/>
<path d="M132.78 555.292C124.975 573.879 105.773 581.182 97.6426 582.509H158.923L161.438 555.292H132.78Z" fill="#E2D2C5"/>
<path d="M100.635 450.601C95.6816 450.601 94.8186 453.281 95.0062 454.621H161.421C161.421 451.941 157.669 450.824 155.793 450.601H100.635Z" fill="#C4C4C4" stroke="#C4C4C4"/>
<path d="M102.902 550.344L98.024 498.385H90.0972L95.585 550.344H102.902Z" fill="#DAB9A6"/>
<path d="M139.487 479.312H89.087L88.8774 476.735H168.146L166.926 492.199H152.292C152.292 484.467 145.509 479.312 139.487 479.312Z" fill="#E2D2C5"/>
<path d="M557.78 581.272C557.78 566.921 570.381 561.684 576.682 560.859L727.292 561.478C728.308 561.684 730.341 563.086 730.341 567.045C730.341 571.004 728.308 573.231 727.292 573.849H656.56C654.731 574.055 651.072 575.829 651.072 581.272C651.072 586.715 654.731 588.076 656.56 588.076H727.292C728.308 588.282 730.341 589.561 730.341 593.025C730.341 596.489 728.308 598.592 727.292 599.21H576.682C570.381 599.21 557.78 595.623 557.78 581.272Z" fill="#56BFF6" stroke="#6D4D42" stroke-width="4"/>
<path d="M723.024 587.457V574.468L657.17 573.849C655.138 574.055 651.073 575.828 651.073 581.272C651.073 586.715 654.731 587.664 656.561 587.457H723.024Z" fill="white" stroke="#6D4D42" stroke-width="4"/>
<path d="M723.024 580.654H707.78" stroke="#6D4D42" stroke-width="2"/>
<path d="M610.938 580.035C610.938 585.232 606.788 589.432 601.682 589.432C596.577 589.432 592.426 585.232 592.426 580.035C592.426 574.838 596.577 570.638 601.682 570.638C606.788 570.638 610.938 574.838 610.938 580.035Z" fill="#1F96F4" stroke="#1F96F4"/>
<path d="M583.999 582.279C583.999 570.682 593.33 564.857 598.005 563.425L584.056 563.353C579.788 565.321 571.194 571.971 571.194 582.279C571.194 592.587 576.072 596.238 578.511 596.775H596.976C592.301 596.775 583.999 593.875 583.999 582.279Z" fill="#1F96F4"/>
<path d="M631.56 582.257C631.56 570.674 640.548 565.112 645.223 563.682L631.732 563.527C627.463 565.493 618.755 571.961 618.755 582.257C618.755 592.553 623.633 596.2 626.072 596.736H645.585C640.91 596.736 631.56 593.84 631.56 582.257Z" fill="#1F96F4"/>
<path d="M573.634 529.313C569.243 543.664 574.243 555.911 577.292 560.241C603.918 560.653 659.487 561.478 668.756 561.478C678.512 563.952 675.463 573.231 672.414 582.509C669.365 588.695 660.219 608.489 678.512 627.046C684.702 632.886 702.902 640.283 724.853 636.324C732.17 635.087 739.487 617.149 723.024 617.149C717.943 617.767 705.219 618.015 694.975 614.056C690.707 611.376 683.024 604.53 686.438 598.592C690.097 595.293 697.414 586.963 697.414 580.035C696.439 572.117 701.479 562.715 704.121 559.004H723.024C721.804 502.715 677.902 500.859 659.609 500.859C651.073 500.859 635.219 508.282 628.512 517.56C626.682 519.622 621.804 520.034 616.926 505.189C612.658 496.529 608.999 498.385 607.17 506.426C605.341 511.375 601.073 513.23 596.195 508.282C592.536 502.921 585.219 493.931 585.219 500.859C584.609 507.045 583.999 509.519 573.634 529.313Z" fill="#6F7982" stroke="#6D4D42" stroke-width="4"/>
<path d="M647.902 523.746C642.536 518.797 644.44 510.656 646.066 507.151C648.017 505.666 654.084 504.039 656.966 503.546C651.112 507.01 648.512 518.385 647.902 523.746Z" fill="#464D56"/>
<path d="M668.634 521.272C664.731 515.333 666.47 507.037 667.893 503.531C669.845 503.531 675.291 504.216 677.73 504.628C673.34 504.628 669.853 515.705 668.634 521.272Z" fill="#464D56"/>
<path d="M686.927 526.838C686.927 522.385 688.973 512.553 690.802 508.224C695.68 509.708 701.468 514.008 703.631 515.902C697.777 513.428 690.585 522.096 686.927 526.838Z" fill="#464D56"/>
<path d="M700.463 539.828C704.365 539.334 709.609 529.725 712.048 525.601C713.268 527.457 715.504 531.787 716.317 534.261C714.365 539.21 705.138 540.241 700.463 539.828Z" fill="#464D56"/>
<path d="M465.097 338.177V312.197C467.333 307.043 473.024 297.97 480.951 300.445C484.089 301.424 487.17 304.527 485.219 318.383C483.268 330.754 470.991 336.734 465.097 338.177Z" fill="#FBE2B1" stroke="#6D4D42" stroke-width="4"/>
<path d="M319.888 338.177V312.197C317.652 307.043 312.048 298.589 304.034 300.445C300.284 301.313 297.815 304.527 299.766 318.383C301.717 330.754 313.993 336.734 319.888 338.177Z" fill="#FBE2B1" stroke="#6D4D42" stroke-width="4"/>
<ellipse cx="394.975" cy="534.88" rx="118.902" ry="4.32994" fill="#6D4D42"/>
<path d="M312.658 557.148L307.78 578.334H471.194L466.926 557.148H312.658Z" fill="#817470" stroke="#6D4D42" stroke-width="4"/>
<path d="M320.585 356.734V337.559L319.975 312.816C319.366 306.63 310.219 300.445 307.78 298.589C305.341 296.733 301.683 270.754 301.683 248.486C301.683 226.217 319.975 205.805 340.097 184.774C352.902 171.165 379.731 166.217 409 171.784C430.951 176.32 476.683 190.341 481.561 229.929L480.341 299.826C471.561 299.332 467.333 307.455 466.317 311.579V356.734H320.585Z" fill="#FE6B59" stroke="#6D4D42" stroke-width="4"/>
<path d="M329.731 219.413C319.487 217.929 316.926 213.434 316.926 211.372L324.243 202.093C322.78 205.557 327.292 215.083 329.731 219.413Z" fill="#6D4D42"/>
<path d="M379.731 416.29C379.731 431.34 395.381 433.176 404.731 432.817C401.407 431.921 397.414 423.539 397.414 416.29C397.414 409.041 401.407 400.328 404.731 398.178C395.381 398.357 379.731 401.24 379.731 416.29Z" fill="#6D4D42"/>
<rect x="257.341" y="462.034" width="58.1951" height="41.7736" rx="6" fill="#6A4D40" stroke="white" stroke-width="4"/>
<path d="M269.975 470.549L281.56 482.302L269.975 493.436" stroke="white" stroke-width="3"/>
<rect x="279.731" y="490.962" width="24.3902" height="3.71138" fill="white"/>
<path d="M366.471 476.372L366.473 476.353L366.476 476.334C366.635 474.879 367.439 472.524 369.363 470.555C371.233 468.642 374.264 466.982 379.122 466.982H407.78C409.657 466.982 412.287 467.276 414.537 468.571C416.675 469.802 418.653 472.035 419.211 476.371C420.644 487.516 429.609 560.143 434.177 597.21H350.908L366.471 476.372Z" fill="#F0EFED" stroke="#6D4D42" stroke-width="4"/>
<path d="M406.999 514.467C406.999 522.955 400.224 529.787 391.926 529.787C383.628 529.787 376.853 522.955 376.853 514.467C376.853 505.979 383.628 499.148 391.926 499.148C400.224 499.148 406.999 505.979 406.999 514.467Z" fill="#F0EFED" stroke="#6D4D42" stroke-width="4"/>
<path d="M207.17 584.365C196.926 584.365 193.146 594.262 192.536 599.21H257.78C257.78 590.303 248.024 585.602 243.146 584.365H207.17Z" fill="#F0E6E1" stroke="#6D4D42" stroke-width="4"/>
<path d="M199.853 570.138C199.853 581.025 204.731 583.746 207.17 583.746H242.536C244.772 583.746 249.243 581.025 249.243 570.138C249.243 559.251 238.674 555.292 233.39 554.674H216.926C207.17 554.674 199.853 560.241 199.853 570.138Z" fill="#FCE3BB" stroke="#6D4D42" stroke-width="4"/>
<path d="M216.316 584.365V572.612" stroke="#6D4D42" stroke-width="2"/>
<path d="M233.39 584.365V572.612" stroke="#6D4D42" stroke-width="2"/>
<path d="M260.219 589.932C260.219 594.88 263.471 598.179 265.097 599.21H348.634L332.17 581.891H265.097C263.471 582.509 260.219 584.983 260.219 589.932Z" fill="#F0E6E1" stroke="#6D4D42" stroke-width="4"/>
<path d="M525.463 589.932C525.463 594.88 522.211 598.179 520.585 599.21H437.048L453.512 581.891H520.585C522.211 582.509 525.463 584.983 525.463 589.932Z" fill="#F0E6E1" stroke="#6D4D42" stroke-width="4"/>
<path d="M287.048 573.849L274.853 581.89H331.56L336.438 586.22V573.849H287.048Z" fill="#F0E6E1" stroke="#6D4D42" stroke-width="4"/>
<path d="M498.633 573.849L510.829 581.89H454.121L449.243 586.22V573.849H498.633Z" fill="#F0E6E1" stroke="#6D4D42" stroke-width="4"/>
<path d="M350.463 581.891H336.438V586.22L348.634 598.592L350.463 581.891Z" fill="#F0E6E1" stroke="#6D4D42" stroke-width="4"/>
<path d="M434.609 581.891H448.634V586.22L436.439 598.592L434.609 581.891Z" fill="#F0E6E1" stroke="#6D4D42" stroke-width="4"/>
<path d="M509.609 578.334L504.731 557.148L466.926 557.767L471.804 573.849H498.634L509.609 578.334Z" fill="#FCE3BB" stroke="#6D4D42" stroke-width="4"/>
<path d="M268.146 581.272L274.243 557.148L312.048 557.767L307.17 573.849H287.048L275.463 581.272H268.146Z" fill="#FCE3BB" stroke="#6D4D42" stroke-width="4"/>
<path d="M512.658 445.807C483.877 440.363 469.365 414.26 465.707 401.889C468.633 394.961 474.65 391.579 477.292 390.755C502.902 404.982 518.146 423.539 517.536 442.714C517.739 443.951 517.048 446.302 512.658 445.807Z" fill="#C8EBFF" stroke="#6D4D42"/>
<path d="M266.317 581.272C268.268 564.942 253.309 560.447 245.585 560.241C253.878 572.612 247.414 581.478 243.146 584.365C243.756 583.953 246.195 584.118 251.073 588.076C255.951 592.035 259.203 590.138 260.219 588.695C260.707 584.241 264.487 581.891 266.317 581.272Z" fill="#FCE3BB" stroke="#6D4D42" stroke-width="4"/>
<path d="M515.828 432.814C514.452 438.814 506.88 441.928 503.384 442.539C506.88 445.417 513.458 446.513 516.064 444.61C518.214 443.04 516.623 435.104 515.828 432.814Z" fill="#6A2B2B" stroke="#6D4D42"/>
<path d="M491.455 436.259C479.006 423.212 485.093 406.228 489.821 399.367C499.88 405.952 516.645 423.561 515.269 432.422C514.813 435.36 511.444 439.748 503.405 442.103C502.574 442.684 499.227 442.329 491.455 436.259Z" fill="#D3F0FF"/>
<path d="M476.073 422.302C479.833 417.456 489.091 406.961 496.042 403.745" stroke="#6D4D42"/>
<path d="M465.707 399.821V390.136L477.387 390.716C473.485 390.716 467.942 396.315 465.707 399.821Z" fill="#69A3E3" stroke="#6D4D42"/>
<path d="M491.926 443.951V435.292C505.585 438.756 506.967 452.405 505.951 458.797C504.975 454.343 496.195 447.044 491.926 443.951Z" fill="#C66D66" stroke="#6D4D42"/>
<path d="M500.463 433.436V427.868L506.56 429.106C507.048 432.075 514.487 440.652 517.536 444.57L515.707 445.807C510.341 439.374 503.308 434.879 500.463 433.436Z" fill="#C66D66" stroke="#6D4D42"/>
<path d="M470.585 395.085L501.073 428.487" stroke="#6D4D42"/>
<path d="M495.085 411.786C495.085 416.299 491.48 419.946 487.048 419.946C482.617 419.946 479.012 416.299 479.012 411.786C479.012 407.273 482.617 403.626 487.048 403.626C491.48 403.626 495.085 407.273 495.085 411.786Z" fill="#E3D33C" stroke="#6D4D42"/>
<path d="M328.511 322.094C328.023 338.424 329.121 345.6 337.048 345.6C344.975 345.6 352.902 331.991 383.999 336.94C394.975 339.414 395.585 339.414 407.779 336.94C413.877 335.703 435.828 333.847 443.755 339.414C450.462 345.6 457.779 344.363 457.779 325.187C458.186 309.929 458.267 274.465 455.34 254.671C453.511 238.588 436.438 226.836 429.121 231.166C426.682 232.403 419.731 236.485 411.438 242.918C407.17 246.011 390.097 253.434 370.584 239.826C364.69 235.083 351.316 226.959 344.974 232.403C329.121 246.011 328.511 267.661 328.511 322.094Z" fill="#FBE2B1" stroke="#6D4D42" stroke-width="4"/>
<ellipse cx="487.048" cy="411.786" rx="6.09756" ry="6.18563" fill="#1CB8C2"/>
<ellipse cx="487.048" cy="409.611" rx="3.95389" ry="4.01099" fill="#4BD0D9"/>
<ellipse rx="1.4369" ry="1.45765" transform="matrix(-1 0 0 1 489.367 410.506)" fill="#86F5FC"/>
<rect x="361.438" y="288.073" width="10.9756" height="35.8766" rx="4.5" fill="#6D4D42"/>
<rect x="415.097" y="288.073" width="10.9756" height="35.8766" rx="4.5" fill="#6D4D42"/>
<rect x="355.341" y="286.836" width="23.1707" height="7.42275" rx="2" fill="#6D4D42"/>
<rect x="409" y="286.836" width="23.1707" height="7.42275" rx="2" fill="#6D4D42"/>
<path d="M515.707 455.704C511.804 453.724 512.2 448.745 514.487 446.425C514.894 446.013 516.194 444.941 518.146 443.951C520.585 442.714 528.512 443.332 528.512 449.518C528.512 452.982 529.325 460.033 529.731 463.126C527.902 459.415 520.585 458.178 515.707 455.704Z" fill="#D7783D" stroke="#6D4D42"/>
<path d="M516.779 453.682C512.901 452.073 513.096 449.731 514.239 447.604C515.344 446.019 516.157 445.178 518.024 444.435C523.149 442.876 525.345 445.732 525.345 448.929C525.345 453.346 525.958 455.124 526.835 457.096C524.967 455.24 521.652 455.704 516.779 453.682Z" fill="#E2A93A"/>
<path d="M516.587 420.611L508.052 420.446C511.206 434.365 524.633 436.027 530.952 435.118C526.581 434.043 519.554 424.999 516.587 420.611Z" fill="#C66D66" stroke="#6D4D42"/>
<path d="M515.478 426.013L516.278 421.219C519.632 426.226 525.082 432.373 528.531 434.673C525.543 434.487 518.501 428.848 515.478 426.013Z" fill="#BD5F57"/>
<path d="M497.271 442.938L492.526 443.62C497.368 447.156 503.411 452.811 505.584 456.371C505.482 453.336 499.983 446.081 497.271 442.938Z" fill="#BD5F57"/>
<path d="M466.671 396.404V393.766C466.671 393.766 467.576 394.747 469.467 393.979C469.032 394.33 467.363 395.591 466.671 396.404Z" fill="#91BDED"/>
<path d="M685.325 579.379C681.061 578.263 678.125 576.403 677.308 574.332C676.32 578.823 674.557 583.675 674.557 583.675C678.546 584.512 683.319 581.124 685.325 579.379Z" fill="#464D56"/>
<path d="M679.2 594.053C672.58 595.405 672.73 591.916 671.914 589.845C670.323 594.424 669.915 599.177 669.915 599.177C673.904 600.014 677.845 598.348 679.2 594.053Z" fill="#464D56"/>
<path d="M680.487 612.106C676.703 617.78 674.562 615.258 672.548 614.363C674.622 618.888 677.502 622.289 677.502 622.289C680.924 620.047 682.492 616.131 680.487 612.106Z" fill="#464D56"/>
<path d="M695.201 624.125C696.251 630.892 692.989 630.53 690.914 631.269C695.473 633.142 699.747 633.725 699.747 633.725C700.741 629.718 699.374 625.68 695.201 624.125Z" fill="#464D56"/>
<rect x="542.646" y="108.333" width="227.768" height="134.314" rx="4" fill="#F1F1F1" stroke="#6D4D42" stroke-width="4"/>
<path d="M542.646 130.809H770.414V238.647C770.414 240.856 768.623 242.647 766.414 242.647H546.646C544.437 242.647 542.646 240.856 542.646 238.647V130.809Z" fill="#2A3752" stroke="#6D4D42" stroke-width="4"/>
<ellipse cx="565" cy="121.029" rx="2.48925" ry="2.59338" fill="#E2430C"/>
<ellipse cx="574.958" cy="121.029" rx="2.48925" ry="2.59338" fill="#E7D749"/>
<ellipse cx="584.915" cy="121.029" rx="2.48925" ry="2.59338" fill="#63B53C"/>
<path d="M621.649 160.93H623.536L627.256 171.199H627.31C627.292 170.959 627.268 170.693 627.238 170.399C627.208 170.106 627.181 169.773 627.157 169.402C627.133 169.024 627.112 168.599 627.094 168.126C627.076 167.653 627.067 167.12 627.067 166.527V160.93H629.151V176.275H627.247L623.545 166.275H623.473C623.491 166.545 623.515 166.838 623.545 167.156C623.575 167.467 623.602 167.836 623.626 168.261C623.65 168.686 623.671 169.183 623.689 169.752C623.707 170.315 623.716 170.986 623.716 171.765V176.275H621.649V160.93ZM636.284 176.41C636.038 176.41 635.772 176.389 635.484 176.347C635.197 176.311 634.912 176.23 634.631 176.104C634.349 175.978 634.077 175.802 633.813 175.574C633.556 175.34 633.325 175.035 633.121 174.658C632.924 174.28 632.765 173.816 632.645 173.265C632.525 172.708 632.466 172.046 632.466 171.28V165.844C632.466 165.071 632.525 164.412 632.645 163.867C632.771 163.316 632.936 162.855 633.139 162.484C633.343 162.106 633.574 161.807 633.831 161.585C634.095 161.364 634.367 161.196 634.649 161.082C634.936 160.962 635.221 160.885 635.502 160.849C635.784 160.813 636.044 160.795 636.284 160.795C636.511 160.795 636.763 160.813 637.039 160.849C637.32 160.879 637.599 160.95 637.874 161.064C638.156 161.172 638.428 161.337 638.692 161.558C638.955 161.774 639.189 162.071 639.392 162.448C639.596 162.819 639.758 163.283 639.878 163.84C640.003 164.392 640.066 165.059 640.066 165.844V171.28C640.066 172.04 640.003 172.696 639.878 173.247C639.752 173.792 639.587 174.256 639.383 174.64C639.18 175.017 638.943 175.322 638.674 175.556C638.41 175.784 638.138 175.963 637.856 176.095C637.581 176.221 637.305 176.305 637.03 176.347C636.754 176.389 636.505 176.41 636.284 176.41ZM636.284 174.658C636.511 174.658 636.709 174.619 636.877 174.541C637.051 174.463 637.191 174.328 637.299 174.137C637.413 173.945 637.497 173.693 637.551 173.382C637.611 173.064 637.641 172.666 637.641 172.187V165.206C637.641 164.715 637.611 164.305 637.551 163.975C637.497 163.646 637.413 163.382 637.299 163.185C637.191 162.981 637.051 162.837 636.877 162.753C636.709 162.67 636.511 162.628 636.284 162.628C636.05 162.628 635.847 162.67 635.673 162.753C635.499 162.837 635.355 162.981 635.242 163.185C635.128 163.382 635.041 163.646 634.981 163.975C634.927 164.305 634.9 164.715 634.9 165.206V172.187C634.9 172.666 634.927 173.064 634.981 173.382C635.041 173.693 635.128 173.945 635.242 174.137C635.355 174.328 635.499 174.463 635.673 174.541C635.847 174.619 636.05 174.658 636.284 174.658ZM647.818 173.166C647.818 172.837 647.836 172.534 647.872 172.259C647.913 171.977 647.973 171.675 648.051 171.351H649.857V172.097C649.857 172.51 649.881 172.876 649.929 173.193C649.983 173.511 650.067 173.78 650.181 174.002C650.3 174.217 650.456 174.382 650.648 174.496C650.845 174.604 651.085 174.658 651.366 174.658C651.81 174.658 652.148 174.538 652.382 174.298C652.615 174.053 652.732 173.696 652.732 173.229C652.732 172.99 652.714 172.771 652.678 172.573C652.648 172.37 652.591 172.169 652.508 171.971C652.43 171.774 652.322 171.567 652.184 171.351C652.046 171.13 651.87 170.884 651.654 170.615L649.228 167.731C648.797 167.18 648.465 166.626 648.231 166.069C647.997 165.506 647.881 164.907 647.881 164.272C647.881 163.763 647.958 163.295 648.114 162.87C648.276 162.445 648.506 162.08 648.806 161.774C649.105 161.463 649.474 161.223 649.911 161.055C650.354 160.882 650.854 160.795 651.411 160.795C652.088 160.795 652.651 160.891 653.1 161.082C653.556 161.274 653.918 161.525 654.188 161.837C654.457 162.148 654.646 162.499 654.754 162.888C654.867 163.271 654.924 163.658 654.924 164.047C654.924 164.377 654.897 164.682 654.843 164.964C654.796 165.239 654.739 165.545 654.673 165.88H652.876V165.152C652.876 164.338 652.759 163.715 652.525 163.283C652.292 162.846 651.912 162.628 651.384 162.628C650.947 162.628 650.621 162.75 650.405 162.996C650.19 163.236 650.082 163.559 650.082 163.966C650.082 164.182 650.097 164.377 650.127 164.55C650.163 164.724 650.21 164.886 650.27 165.035C650.336 165.179 650.414 165.32 650.504 165.458C650.594 165.595 650.696 165.739 650.809 165.889L653.514 169.159C654.005 169.8 654.382 170.417 654.646 171.01C654.909 171.597 655.041 172.22 655.041 172.879C655.041 173.424 654.954 173.915 654.781 174.352C654.613 174.789 654.37 175.161 654.053 175.466C653.735 175.772 653.352 176.008 652.903 176.176C652.454 176.338 651.947 176.419 651.384 176.419C650.69 176.419 650.112 176.326 649.65 176.14C649.195 175.954 648.83 175.709 648.554 175.403C648.285 175.098 648.093 174.75 647.979 174.361C647.872 173.972 647.818 173.574 647.818 173.166ZM658.104 160.93H663.791V162.762H660.431V167.353H663.027V169.186H660.431V174.442H663.881V176.275H658.104V160.93ZM671.704 160.93H677.391V162.762H674.031V167.353H676.627V169.186H674.031V174.442H677.481V176.275H671.704V160.93ZM680.265 160.93H682.152L685.871 171.199H685.925C685.907 170.959 685.883 170.693 685.853 170.399C685.823 170.106 685.796 169.773 685.772 169.402C685.748 169.024 685.727 168.599 685.709 168.126C685.691 167.653 685.682 167.12 685.682 166.527V160.93H687.767V176.275H685.862L682.161 166.275H682.089C682.107 166.545 682.131 166.838 682.161 167.156C682.191 167.467 682.218 167.836 682.241 168.261C682.265 168.686 682.286 169.183 682.304 169.752C682.322 170.315 682.331 170.986 682.331 171.765V176.275H680.265V160.93ZM694.81 176.41C694.57 176.41 694.309 176.389 694.028 176.347C693.752 176.311 693.474 176.23 693.192 176.104C692.917 175.978 692.65 175.802 692.393 175.574C692.141 175.34 691.917 175.035 691.719 174.658C691.527 174.28 691.372 173.816 691.252 173.265C691.138 172.708 691.081 172.046 691.081 171.28V165.844C691.081 165.071 691.141 164.412 691.261 163.867C691.38 163.316 691.539 162.855 691.737 162.484C691.935 162.106 692.162 161.807 692.42 161.585C692.677 161.364 692.944 161.196 693.219 161.082C693.495 160.962 693.767 160.885 694.037 160.849C694.312 160.813 694.567 160.795 694.801 160.795C695.411 160.795 695.921 160.882 696.328 161.055C696.741 161.223 697.071 161.457 697.316 161.756C697.568 162.05 697.744 162.394 697.846 162.789C697.954 163.185 698.008 163.604 698.008 164.047C698.008 164.377 697.99 164.682 697.954 164.964C697.924 165.239 697.876 165.545 697.81 165.88H695.924V165.098C695.924 164.254 695.831 163.622 695.645 163.203C695.459 162.783 695.187 162.574 694.828 162.574C694.612 162.574 694.423 162.616 694.261 162.699C694.1 162.783 693.965 162.927 693.857 163.131C693.749 163.328 693.666 163.592 693.606 163.921C693.552 164.251 693.525 164.661 693.525 165.152V172.16C693.525 172.639 693.546 173.037 693.588 173.355C693.636 173.672 693.71 173.927 693.812 174.119C693.914 174.31 694.046 174.448 694.208 174.532C694.375 174.61 694.576 174.649 694.81 174.649C694.959 174.649 695.103 174.616 695.241 174.55C695.379 174.478 695.498 174.37 695.6 174.226C695.708 174.077 695.792 173.891 695.852 173.669C695.918 173.442 695.951 173.175 695.951 172.87V171.369H698.08V172.789C698.08 174.023 697.798 174.933 697.235 175.52C696.672 176.107 695.864 176.404 694.81 176.41ZM704.413 176.41C704.167 176.41 703.901 176.389 703.613 176.347C703.326 176.311 703.041 176.23 702.76 176.104C702.478 175.978 702.206 175.802 701.942 175.574C701.684 175.34 701.454 175.035 701.25 174.658C701.053 174.28 700.894 173.816 700.774 173.265C700.654 172.708 700.594 172.046 700.594 171.28V165.844C700.594 165.071 700.654 164.412 700.774 163.867C700.9 163.316 701.065 162.855 701.268 162.484C701.472 162.106 701.702 161.807 701.96 161.585C702.224 161.364 702.496 161.196 702.778 161.082C703.065 160.962 703.35 160.885 703.631 160.849C703.913 160.813 704.173 160.795 704.413 160.795C704.64 160.795 704.892 160.813 705.167 160.849C705.449 160.879 705.727 160.95 706.003 161.064C706.284 161.172 706.557 161.337 706.821 161.558C707.084 161.774 707.318 162.071 707.521 162.448C707.725 162.819 707.887 163.283 708.007 163.84C708.132 164.392 708.195 165.059 708.195 165.844V171.28C708.195 172.04 708.132 172.696 708.007 173.247C707.881 173.792 707.716 174.256 707.512 174.64C707.309 175.017 707.072 175.322 706.803 175.556C706.539 175.784 706.267 175.963 705.985 176.095C705.709 176.221 705.434 176.305 705.158 176.347C704.883 176.389 704.634 176.41 704.413 176.41ZM704.413 174.658C704.64 174.658 704.838 174.619 705.006 174.541C705.179 174.463 705.32 174.328 705.428 174.137C705.542 173.945 705.626 173.693 705.68 173.382C705.739 173.064 705.769 172.666 705.769 172.187V165.206C705.769 164.715 705.739 164.305 705.68 163.975C705.626 163.646 705.542 163.382 705.428 163.185C705.32 162.981 705.179 162.837 705.006 162.753C704.838 162.67 704.64 162.628 704.413 162.628C704.179 162.628 703.976 162.67 703.802 162.753C703.628 162.837 703.484 162.981 703.371 163.185C703.257 163.382 703.17 163.646 703.11 163.975C703.056 164.305 703.029 164.715 703.029 165.206V172.187C703.029 172.666 703.056 173.064 703.11 173.382C703.17 173.693 703.257 173.945 703.371 174.137C703.484 174.328 703.628 174.463 703.802 174.541C703.976 174.619 704.179 174.658 704.413 174.658ZM711.5 160.93H713.387L717.107 171.199H717.161C717.143 170.959 717.119 170.693 717.089 170.399C717.059 170.106 717.032 169.773 717.008 169.402C716.984 169.024 716.963 168.599 716.945 168.126C716.927 167.653 716.918 167.12 716.918 166.527V160.93H719.002V176.275H717.098L713.396 166.275H713.324C713.342 166.545 713.366 166.838 713.396 167.156C713.426 167.467 713.453 167.836 713.477 168.261C713.501 168.686 713.522 169.183 713.54 169.752C713.558 170.315 713.567 170.986 713.567 171.765V176.275H711.5V160.93ZM724.158 162.762H721.688V160.93H728.947V162.762H726.485V176.275H724.158V162.762ZM731.623 160.93H734.148C734.435 160.93 734.75 160.942 735.091 160.965C735.439 160.989 735.783 161.049 736.124 161.145C736.472 161.235 736.804 161.373 737.122 161.558C737.445 161.744 737.73 161.999 737.975 162.322C738.227 162.646 738.427 163.053 738.577 163.544C738.727 164.029 738.802 164.619 738.802 165.314V165.7C738.802 166.868 738.634 167.821 738.299 168.557C737.963 169.288 737.469 169.815 736.816 170.139L739.278 176.275H736.816L734.777 170.534H733.905V176.275H731.623V160.93ZM734.256 168.854C734.663 168.854 735.007 168.809 735.289 168.719C735.57 168.629 735.798 168.479 735.972 168.27C736.145 168.054 736.271 167.773 736.349 167.425C736.427 167.072 736.466 166.638 736.466 166.122V164.91C736.466 164.514 736.43 164.173 736.358 163.885C736.286 163.598 736.163 163.361 735.99 163.176C735.822 162.99 735.597 162.852 735.316 162.762C735.034 162.672 734.681 162.628 734.256 162.628H733.905V168.854H734.256ZM745.539 176.41C745.293 176.41 745.027 176.389 744.739 176.347C744.452 176.311 744.167 176.23 743.886 176.104C743.604 175.978 743.332 175.802 743.068 175.574C742.811 175.34 742.58 175.035 742.376 174.658C742.179 174.28 742.02 173.816 741.9 173.265C741.78 172.708 741.721 172.046 741.721 171.28V165.844C741.721 165.071 741.78 164.412 741.9 163.867C742.026 163.316 742.191 162.855 742.394 162.484C742.598 162.106 742.829 161.807 743.086 161.585C743.35 161.364 743.622 161.196 743.904 161.082C744.191 160.962 744.476 160.885 744.757 160.849C745.039 160.813 745.299 160.795 745.539 160.795C745.767 160.795 746.018 160.813 746.294 160.849C746.575 160.879 746.854 160.95 747.129 161.064C747.411 161.172 747.683 161.337 747.947 161.558C748.21 161.774 748.444 162.071 748.647 162.448C748.851 162.819 749.013 163.283 749.133 163.84C749.258 164.392 749.321 165.059 749.321 165.844V171.28C749.321 172.04 749.258 172.696 749.133 173.247C749.007 173.792 748.842 174.256 748.639 174.64C748.435 175.017 748.198 175.322 747.929 175.556C747.665 175.784 747.393 175.963 747.111 176.095C746.836 176.221 746.56 176.305 746.285 176.347C746.009 176.389 745.761 176.41 745.539 176.41ZM745.539 174.658C745.767 174.658 745.964 174.619 746.132 174.541C746.306 174.463 746.446 174.328 746.554 174.137C746.668 173.945 746.752 173.693 746.806 173.382C746.866 173.064 746.896 172.666 746.896 172.187V165.206C746.896 164.715 746.866 164.305 746.806 163.975C746.752 163.646 746.668 163.382 746.554 163.185C746.446 162.981 746.306 162.837 746.132 162.753C745.964 162.67 745.767 162.628 745.539 162.628C745.305 162.628 745.102 162.67 744.928 162.753C744.754 162.837 744.611 162.981 744.497 163.185C744.383 163.382 744.296 163.646 744.236 163.975C744.182 164.305 744.155 164.715 744.155 165.206V172.187C744.155 172.666 744.182 173.064 744.236 173.382C744.296 173.693 744.383 173.945 744.497 174.137C744.611 174.328 744.754 174.463 744.928 174.541C745.102 174.619 745.305 174.658 745.539 174.658ZM649.462 183.93H651.879C652.244 183.93 652.621 183.942 653.011 183.965C653.406 183.983 653.789 184.046 654.161 184.154C654.538 184.262 654.891 184.43 655.221 184.657C655.556 184.879 655.85 185.193 656.101 185.601C656.353 186.002 656.55 186.511 656.694 187.128C656.844 187.739 656.919 188.488 656.919 189.374V193.83C656.919 194.717 656.844 195.468 656.694 196.085C656.55 196.702 656.353 197.211 656.101 197.613C655.85 198.014 655.556 198.328 655.221 198.556C654.891 198.778 654.538 198.942 654.161 199.05C653.789 199.158 653.406 199.224 653.011 199.248C652.621 199.266 652.244 199.275 651.879 199.275H649.462V183.93ZM652.382 197.649C652.801 197.649 653.145 197.595 653.415 197.487C653.69 197.379 653.906 197.19 654.062 196.921C654.224 196.645 654.334 196.274 654.394 195.807C654.454 195.334 654.484 194.738 654.484 194.019V189.257C654.484 188.539 654.454 187.946 654.394 187.478C654.334 187.005 654.224 186.634 654.062 186.364C653.906 186.089 653.69 185.897 653.415 185.789C653.145 185.681 652.801 185.628 652.382 185.628H651.789V197.649H652.382ZM661.796 183.93H664.474L667.313 199.275H664.959L664.537 196.526H661.733L661.329 199.275H658.966L661.796 183.93ZM664.267 194.774L663.189 187.128H663.09L662.003 194.774H664.267ZM671.328 185.762H668.857V183.93H676.116V185.762H673.655V199.275H671.328V185.762ZM682.189 199.41C681.943 199.41 681.677 199.389 681.389 199.347C681.102 199.311 680.817 199.23 680.536 199.104C680.254 198.978 679.981 198.802 679.718 198.574C679.46 198.34 679.23 198.035 679.026 197.658C678.828 197.28 678.67 196.816 678.55 196.265C678.43 195.708 678.37 195.046 678.37 194.28V188.844C678.37 188.071 678.43 187.412 678.55 186.867C678.676 186.316 678.84 185.855 679.044 185.484C679.248 185.106 679.478 184.807 679.736 184.585C679.999 184.364 680.272 184.196 680.553 184.082C680.841 183.962 681.125 183.885 681.407 183.849C681.689 183.813 681.949 183.795 682.189 183.795C682.416 183.795 682.668 183.813 682.943 183.849C683.225 183.879 683.503 183.95 683.779 184.064C684.06 184.172 684.333 184.337 684.596 184.558C684.86 184.774 685.094 185.071 685.297 185.448C685.501 185.819 685.663 186.283 685.782 186.84C685.908 187.392 685.971 188.059 685.971 188.844V194.28C685.971 195.04 685.908 195.696 685.782 196.247C685.657 196.792 685.492 197.256 685.288 197.64C685.085 198.017 684.848 198.322 684.578 198.556C684.315 198.784 684.042 198.963 683.761 199.095C683.485 199.221 683.21 199.305 682.934 199.347C682.659 199.389 682.41 199.41 682.189 199.41ZM682.189 197.658C682.416 197.658 682.614 197.619 682.782 197.541C682.955 197.463 683.096 197.328 683.204 197.137C683.318 196.945 683.402 196.693 683.455 196.382C683.515 196.064 683.545 195.666 683.545 195.187V188.206C683.545 187.715 683.515 187.305 683.455 186.975C683.402 186.646 683.318 186.382 683.204 186.185C683.096 185.981 682.955 185.837 682.782 185.753C682.614 185.67 682.416 185.628 682.189 185.628C681.955 185.628 681.751 185.67 681.578 185.753C681.404 185.837 681.26 185.981 681.146 186.185C681.033 186.382 680.946 186.646 680.886 186.975C680.832 187.305 680.805 187.715 680.805 188.206V195.187C680.805 195.666 680.832 196.064 680.886 196.382C680.946 196.693 681.033 196.945 681.146 197.137C681.26 197.328 681.404 197.463 681.578 197.541C681.751 197.619 681.955 197.658 682.189 197.658ZM688.683 196.166C688.683 195.837 688.701 195.534 688.737 195.259C688.779 194.977 688.839 194.675 688.917 194.351H690.723V195.097C690.723 195.51 690.747 195.876 690.795 196.193C690.849 196.511 690.932 196.78 691.046 197.002C691.166 197.217 691.322 197.382 691.513 197.496C691.711 197.604 691.951 197.658 692.232 197.658C692.675 197.658 693.014 197.538 693.247 197.298C693.481 197.053 693.598 196.696 693.598 196.229C693.598 195.99 693.58 195.771 693.544 195.573C693.514 195.37 693.457 195.169 693.373 194.971C693.295 194.774 693.187 194.567 693.05 194.351C692.912 194.13 692.735 193.884 692.52 193.615L690.094 190.731C689.663 190.18 689.33 189.626 689.097 189.069C688.863 188.506 688.746 187.907 688.746 187.272C688.746 186.763 688.824 186.295 688.98 185.87C689.141 185.445 689.372 185.08 689.672 184.774C689.971 184.463 690.339 184.223 690.777 184.055C691.22 183.882 691.72 183.795 692.277 183.795C692.954 183.795 693.517 183.891 693.966 184.082C694.421 184.274 694.784 184.525 695.053 184.837C695.323 185.148 695.511 185.499 695.619 185.888C695.733 186.271 695.79 186.658 695.79 187.047C695.79 187.377 695.763 187.682 695.709 187.964C695.661 188.239 695.604 188.545 695.538 188.88H693.741V188.152C693.741 187.338 693.625 186.715 693.391 186.283C693.157 185.846 692.777 185.628 692.25 185.628C691.813 185.628 691.486 185.75 691.271 185.996C691.055 186.236 690.947 186.559 690.947 186.966C690.947 187.182 690.962 187.377 690.992 187.55C691.028 187.724 691.076 187.886 691.136 188.035C691.202 188.179 691.28 188.32 691.37 188.458C691.459 188.595 691.561 188.739 691.675 188.889L694.379 192.159C694.871 192.8 695.248 193.417 695.511 194.01C695.775 194.597 695.907 195.22 695.907 195.879C695.907 196.424 695.82 196.915 695.646 197.352C695.478 197.789 695.236 198.161 694.918 198.466C694.601 198.772 694.218 199.008 693.768 199.176C693.319 199.338 692.813 199.419 692.25 199.419C691.555 199.419 690.977 199.326 690.516 199.14C690.061 198.954 689.696 198.709 689.42 198.403C689.15 198.098 688.959 197.75 688.845 197.361C688.737 196.972 688.683 196.574 688.683 196.166ZM704.565 182.986H707.018L706.74 194.289H704.88L704.565 182.986ZM704.413 197.685C704.413 197.056 704.539 196.606 704.79 196.337C705.042 196.061 705.383 195.924 705.814 195.924C706.264 195.924 706.611 196.067 706.857 196.355C707.102 196.642 707.225 197.086 707.225 197.685C707.225 198.23 707.099 198.652 706.848 198.951C706.602 199.251 706.255 199.401 705.805 199.401C705.38 199.401 705.042 199.257 704.79 198.969C704.539 198.676 704.413 198.248 704.413 197.685ZM711.869 182.986H714.321L714.043 194.289H712.183L711.869 182.986ZM711.716 197.685C711.716 197.056 711.842 196.606 712.093 196.337C712.345 196.061 712.686 195.924 713.118 195.924C713.567 195.924 713.914 196.067 714.16 196.355C714.405 196.642 714.528 197.086 714.528 197.685C714.528 198.23 714.402 198.652 714.151 198.951C713.905 199.251 713.558 199.401 713.109 199.401C712.683 199.401 712.345 199.257 712.093 198.969C711.842 198.676 711.716 198.248 711.716 197.685ZM719.172 182.986H721.625L721.346 194.289H719.486L719.172 182.986ZM719.019 197.685C719.019 197.056 719.145 196.606 719.397 196.337C719.648 196.061 719.99 195.924 720.421 195.924C720.87 195.924 721.217 196.067 721.463 196.355C721.709 196.642 721.831 197.086 721.831 197.685C721.831 198.23 721.706 198.652 721.454 198.951C721.208 199.251 720.861 199.401 720.412 199.401C719.987 199.401 719.648 199.257 719.397 198.969C719.145 198.676 719.019 198.248 719.019 197.685Z" fill="white"/>
<path d="M557.185 200.995L576.135 166.732C577.228 164.756 580.03 164.65 581.268 166.538L603.745 200.801C605.054 202.797 603.623 205.447 601.237 205.447H559.811C557.526 205.447 556.079 202.995 557.185 200.995Z" fill="white" stroke="#DF3E3E" stroke-width="4"/>
<path d="M577.229 177.181H580.215L579.876 190.94H577.612L577.229 177.181ZM577.043 195.074C577.043 194.309 577.196 193.762 577.503 193.434C577.809 193.098 578.224 192.931 578.749 192.931C579.296 192.931 579.719 193.106 580.018 193.456C580.317 193.806 580.467 194.345 580.467 195.074C580.467 195.738 580.313 196.252 580.007 196.616C579.708 196.981 579.285 197.163 578.738 197.163C578.221 197.163 577.809 196.988 577.503 196.638C577.196 196.281 577.043 195.76 577.043 195.074Z" fill="#DF3E3E"/>
</svg>
