<svg width="751" height="827" viewBox="0 0 751 827" fill="none" xmlns="http://www.w3.org/2000/svg">
<circle cx="381.47" cy="419.084" r="288.667" fill="#54B5AF"/>
<path d="M239.365 69.4685C242.961 68.8448 245.37 65.4241 244.746 61.828C244.122 58.232 240.702 55.8224 237.106 56.4461C233.511 57.0697 231.102 60.4905 231.726 64.0865C232.349 67.6826 235.77 70.0922 239.365 69.4685Z" fill="#EF2E4A"/>
<path d="M28.5609 777.378H6.22461L69.7406 421.613H92.0546L28.5609 777.378Z" fill="#3E3E3E"/>
<path d="M622.141 778.378H644.478L580.984 422.613H558.647L622.141 778.378Z" fill="#3E3E3E"/>
<path d="M172.323 398.07H147.451L124.336 269.528L128.585 263.165L149.208 269.528L176.55 391.707L172.323 398.07Z" fill="#110422"/>
<path d="M176.55 391.707H151.678L128.585 263.165H153.435L176.55 391.707Z" fill="#140428"/>
<path d="M39.6 182.454L161.84 96.6408L167.289 105.271L45.3242 190.201" fill="#C5C5C5"/>
<path d="M31.0971 394.852L12.4761 390.357L31.0971 188.032L49.1396 190.146L31.0971 394.852Z" fill="#160033"/>
<path d="M252.748 349.386H58.551L35.436 220.822L39.6853 214.48L229.633 220.822L256.997 343.022L252.748 349.386Z" fill="#130723"/>
<path d="M256.996 343.022H62.7995L39.6846 214.48H233.881L256.996 343.022Z" fill="#190F23"/>
<path d="M248.097 337.771H69.7852L48.5835 219.731H226.873L248.097 337.771Z" fill="#EF2E4A"/>
<path d="M114.836 285.638L118.285 260.806H123.624L129.052 285.638H131.277L132.412 290.889H130.187L131.633 297.564H126.828L125.382 290.889H115.949L114.836 285.638ZM124.247 285.638L121.244 271.842L119.308 285.638H124.247Z" fill="white"/>
<path d="M137.684 269.618C136.416 263.743 138.285 260.384 143.09 260.384C147.895 260.384 151.255 263.743 152.545 269.618L156.705 288.753C157.996 294.627 156.105 297.987 151.299 297.987C146.494 297.987 143.157 294.627 141.866 288.753L137.684 269.618ZM146.828 289.109C147.406 291.735 148.607 292.736 150.165 292.736C151.722 292.736 152.389 291.735 151.9 289.109L147.562 269.262C146.983 266.636 145.804 265.635 144.247 265.635C142.69 265.635 142.022 266.636 142.489 269.262L146.828 289.109Z" fill="white"/>
<path d="M166.027 285.638L169.498 260.806H174.837L180.266 285.638H182.49L183.647 290.889H181.422L182.891 297.564H178.085L176.617 290.889H167.273L166.027 285.638ZM175.46 285.638L172.435 271.842L170.521 285.638H175.46Z" fill="white"/>
<path d="M213.792 391.707H110.387V401.986H213.792V391.707Z" fill="#110422"/>
<path d="M340.824 340.886H294.505V399.517H340.824V340.886Z" fill="white"/>
<path d="M45.1354 389.37H0.462891V413.868H45.1354V389.37Z" fill="#160033"/>
<path d="M389.079 398.07C389.079 398.07 398.222 375.041 426.899 378.735C455.576 382.428 456.132 403.655 456.132 403.655H394.106L389.079 398.07Z" fill="#160033"/>
<path d="M750.463 399.517H12.4761V422.613H750.463V399.517Z" fill="#585858"/>
<path d="M375.798 391.707H229.744V399.517H375.798V391.707Z" fill="#160033"/>
<path d="M246.874 389.37H240.623V395.623H246.874V389.37Z" fill="#160033"/>
<path d="M256.996 389.37H250.745V395.623H256.996V389.37Z" fill="#160033"/>
<path d="M267.097 389.37H260.845V395.623H267.097V389.37Z" fill="#160033"/>
<path d="M277.219 389.37H270.967V395.623H277.219V389.37Z" fill="#160033"/>
<path d="M287.319 389.37H281.068V395.623H287.319V389.37Z" fill="#160033"/>
<path d="M297.442 389.37H291.191V395.623H297.442V389.37Z" fill="#160033"/>
<path d="M307.564 389.37H301.312V395.623H307.564V389.37Z" fill="#160033"/>
<path d="M317.665 389.37H311.413V395.623H317.665V389.37Z" fill="#160033"/>
<path d="M327.787 389.37H321.535V395.623H327.787V389.37Z" fill="#160033"/>
<path d="M337.887 389.37H331.636V395.623H337.887V389.37Z" fill="#160033"/>
<path d="M348.01 389.37H341.759V395.623H348.01V389.37Z" fill="#160033"/>
<path d="M358.111 389.37H351.859V395.623H358.111V389.37Z" fill="#160033"/>
<path d="M368.232 389.37H361.981V395.623H368.232V389.37Z" fill="#160033"/>
<path d="M329.523 353.013H348.722C349.822 353.013 350.877 353.448 351.656 354.223C352.436 354.999 352.877 356.052 352.883 357.151V375.219C352.877 376.319 352.436 377.371 351.656 378.147C350.877 378.922 349.822 379.357 348.722 379.357H329.523" stroke="white" stroke-width="1.9" stroke-miterlimit="10"/>
<path d="M311.413 324.777C311.413 324.777 332.837 288.13 307.542 263.165C282.247 238.199 262.291 205.736 277.219 176.098C292.147 146.46 307.542 145.97 307.542 145.97L331.636 173.272C331.636 173.272 292.726 191.629 314.528 231.613C336.33 271.598 330.702 318.658 311.413 324.777Z" fill="url(#paint0_linear)"/>
<path d="M44.0457 188.144C44.0487 188.709 43.9397 189.27 43.7253 189.794C43.5108 190.317 43.1951 190.793 42.7961 191.195C42.3971 191.596 41.9227 191.914 41.4003 192.131C40.8779 192.348 40.3178 192.46 39.752 192.46C38.6073 192.46 37.5096 192.005 36.7002 191.196C35.8908 190.386 35.436 189.288 35.436 188.144C35.4419 187.003 35.8992 185.91 36.7079 185.106C37.5167 184.301 38.6112 183.849 39.752 183.849C40.3159 183.849 40.8742 183.96 41.3952 184.176C41.9161 184.392 42.3895 184.708 42.7882 185.107C43.1869 185.506 43.5031 185.979 43.7189 186.5C43.9347 187.021 44.0457 187.58 44.0457 188.144Z" fill="#EF2E4A" stroke="#EF2E4A" stroke-width="0.95" stroke-linecap="round" stroke-linejoin="round"/>
<path d="M163.274 98.9212L167.758 95.6141L170.523 100.487L164.889 101.464" fill="#160033"/>
<path d="M176.878 113.431L164.3 84.787L231.005 56.4374L238.652 72.9288L176.878 113.431Z" fill="#160033"/>
<path d="M558.648 503.449L550.928 559.454C550.928 559.454 522.007 569.067 522.007 566.441C522.007 563.815 532.419 503.449 532.419 503.449H558.648Z" fill="#245E6A"/>
<path d="M475.487 513.84C475.487 513.84 595.956 524.143 614.488 514.864C633.02 505.585 706.124 253.13 703.054 219.754C699.984 186.378 540.226 178.1 516.177 197.681C492.128 217.262 454.975 430.423 450.859 462.464C446.743 494.505 456.02 512.35 475.487 513.84Z" fill="#387C8B"/>
<path d="M393.417 478.751L233.837 524.877L104.313 735.323L115.882 750.632L220.667 608.673L120.198 766.652L137.662 786.3L280.401 578.634L453.574 567.108L470.259 552.223C470.259 552.223 439.424 471.965 393.417 478.751Z" fill="#200151"/>
<path d="M480.559 349.386L431.526 433.938L449.835 457.947L480.559 349.386Z" fill="#4BAC89"/>
<path d="M462.561 425.572C459.825 422.613 435.664 414.447 418.489 422.613C401.314 430.779 414.218 465.823 414.218 465.823H437.333L462.561 425.572Z" fill="#3A8A6D"/>
<path d="M616.49 343.022C616.49 343.022 549.548 484.67 528.569 503.049C507.59 521.428 474.085 552.267 466.276 554.893C466.276 554.893 444.029 487.941 394.106 478.751C393.439 470.229 406.565 469.562 406.565 469.562C406.565 469.562 401.982 459.727 414.44 459.727C431.504 441.926 458.757 413.846 458.757 413.846L487.945 321.906C487.945 321.906 570.549 309.668 616.49 343.022Z" fill="#4BBB93"/>
<path d="M510.326 319.993C511.038 327.491 512.551 342.867 514.42 366.052C559.849 350.788 554.465 321.55 554.465 321.55C539.819 319.833 525.057 319.312 510.326 319.993Z" fill="#3A8A6D"/>
<path d="M545.833 321.328C524.809 281.722 462.494 240.38 437.555 225.939C407.365 240.38 398.845 281.076 398.845 281.076C398.845 281.076 417.221 326.356 438.2 336.191C459.179 346.026 478.89 349.341 502.517 293.915C514.442 301.658 524.52 320.304 524.52 320.304L518.624 353.324C518.624 353.324 553.374 335.568 545.833 321.328Z" fill="#FFB883"/>
<path d="M467.011 253.196H454.263L427.789 235.396C427.789 235.396 409.412 278.718 403.317 289.977C397.221 301.236 385.786 327.447 383.895 287.529C377.621 319.548 368.9 321.461 370.658 283.079C359.756 312.205 349.122 321.795 369.034 262.074C388.945 202.354 401.581 196.657 401.581 196.657L475.598 249.058L498.157 268.438L467.011 253.196Z" fill="#EF2E4A"/>
<path d="M427.789 306.064C427.789 306.064 444.786 315.654 451.327 321.751C457.867 327.847 452.194 336.503 446.521 341.131C440.848 345.759 439.847 332.231 441.026 323.597C432.572 312.494 427.789 306.064 427.789 306.064Z" fill="#FC967E"/>
<path d="M468.768 314.675C468.768 314.675 454.819 294.182 468.768 285.015C482.717 275.848 496.667 282.411 489.681 291.134C482.695 299.856 468.768 314.675 468.768 314.675Z" fill="#160033"/>
<path d="M463.54 291.245L467.989 293.737L477.689 281.143C474.515 281.891 471.501 283.202 468.79 285.015C466.434 286.493 464.598 288.672 463.54 291.245Z" fill="white"/>
<path d="M489.859 282.923C485.766 286.15 479.581 292.625 480.804 301.614C484.052 297.965 487.345 294.182 489.703 291.134C492.061 288.085 492.084 284.859 489.859 282.923Z" fill="#F25C79"/>
<path d="M437.377 297.631C439.246 294.761 440.87 292.691 442.272 290.422C442.961 289.309 443.651 288.197 444.296 286.973C444.941 285.749 445.587 284.436 446.521 282.923C447.289 284.469 447.63 286.191 447.509 287.912C447.388 289.634 446.809 291.291 445.831 292.714C444.911 294.154 443.679 295.371 442.227 296.274C440.775 297.184 439.091 297.655 437.377 297.631Z" fill="#160033"/>
<path d="M425.608 312.739C425.906 313.764 425.906 314.852 425.608 315.876C425.357 316.836 424.867 317.716 424.184 318.435C423.351 319.371 422.186 319.945 420.936 320.037C420.546 320.05 420.157 319.979 419.797 319.83C419.436 319.68 419.112 319.455 418.845 319.169C418.646 318.919 418.502 318.628 418.426 318.317C418.349 318.006 418.34 317.682 418.4 317.367C419.045 317.367 419.49 317.523 419.802 317.367C420.113 317.211 420.135 316.967 420.18 316.833C420.408 316.355 420.725 315.925 421.114 315.565C421.637 315.021 422.21 314.529 422.827 314.096C423.674 313.495 424.613 313.036 425.608 312.739Z" fill="#160033"/>
<path d="M466.143 260.161C466.143 260.161 460.248 239.668 475.62 242.36C490.993 245.053 488.858 271.998 480.559 270.708" fill="#FFB883"/>
<path d="M466.144 260.161C465.275 257.691 464.736 255.117 464.542 252.506C464.238 249.766 464.79 246.999 466.121 244.585C466.511 243.968 467 243.42 467.567 242.961C468.104 242.456 468.741 242.07 469.436 241.826L470.46 241.426C470.816 241.426 471.172 241.426 471.528 241.248C472.216 241.115 472.919 241.071 473.619 241.114C476.443 241.106 479.195 242.003 481.472 243.673C483.676 245.411 485.361 247.72 486.344 250.348C487.297 252.888 487.787 255.579 487.79 258.292C487.822 260.973 487.355 263.636 486.411 266.146C485.909 267.408 485.152 268.552 484.186 269.506C483.724 269.997 483.145 270.363 482.503 270.57C481.861 270.776 481.177 270.816 480.515 270.685C481.145 270.706 481.771 270.576 482.34 270.305C482.909 270.034 483.405 269.63 483.786 269.128C484.543 268.137 485.088 267.001 485.388 265.79C486.088 263.372 486.336 260.845 486.122 258.336C485.744 253.419 484.008 248.279 480.159 245.409C478.223 243.985 475.888 243.207 473.485 243.183C472.351 243.038 471.199 243.18 470.134 243.596C469.069 244.012 468.125 244.689 467.389 245.564C466.069 247.649 465.41 250.085 465.498 252.551C465.453 255.103 465.669 257.653 466.144 260.161Z" fill="#DB8346"/>
<path d="M422.049 282.923C422.904 281.024 423.979 279.231 425.252 277.583C426.501 275.915 427.917 274.379 429.479 272.999C431.047 271.566 432.835 270.394 434.774 269.528C436.702 268.538 438.925 268.284 441.026 268.816C439.05 269.137 437.172 269.897 435.531 271.041C433.89 272.12 432.335 273.326 430.881 274.646C427.878 277.138 425.097 280.097 422.049 282.923Z" fill="#160033"/>
<path d="M414.217 293.737C413.439 295.962 412.438 297.898 411.57 299.856C410.616 301.804 409.87 303.848 409.345 305.953C408.781 304.864 408.549 303.634 408.678 302.415C408.797 301.222 409.113 300.056 409.612 298.966C410.096 297.893 410.733 296.896 411.503 296.007C412.256 295.085 413.177 294.315 414.217 293.737Z" fill="#160033"/>
<path d="M480.559 250.437C478.939 249.85 477.231 249.542 475.509 249.525C474.803 249.484 474.103 249.681 473.523 250.084C472.942 250.487 472.513 251.074 472.305 251.75C471.935 253.311 471.889 254.932 472.172 256.512C472.327 258.18 472.795 259.849 473.128 261.54L471.482 261.14C472.219 260.401 473.04 259.751 473.929 259.204L474.73 258.87C475.07 258.824 475.414 258.824 475.753 258.87C476.11 258.916 476.448 259.058 476.73 259.282C477.013 259.505 477.229 259.801 477.355 260.138C477.698 261.131 477.798 262.192 477.644 263.231C477.547 264.2 477.346 265.154 477.044 266.079C477.044 265.123 477.044 264.166 476.866 263.231C476.805 262.373 476.578 261.534 476.198 260.761C476.147 260.655 476.069 260.564 475.971 260.497C475.874 260.431 475.76 260.391 475.642 260.383C475.514 260.421 475.388 260.466 475.264 260.517L474.797 260.784C474.113 261.325 473.48 261.929 472.906 262.586L471.727 263.877L471.259 262.163C470.72 260.434 470.325 258.663 470.08 256.868C469.751 254.967 469.912 253.015 470.548 251.194C470.718 250.689 470.982 250.221 471.326 249.814L471.882 249.213C472.112 249.059 472.349 248.918 472.594 248.791C473.502 248.311 474.538 248.132 475.553 248.279C477.375 248.572 479.095 249.314 480.559 250.437Z" fill="#DB8346"/>
<path d="M487.011 606.692H472.884V663.565H487.011V606.692Z" fill="#434343"/>
<path d="M602.252 546.927C602.252 546.927 414.441 543.145 381.448 546.927C348.455 550.71 363.317 582.951 367.232 598.749C371.148 614.547 459.67 612.478 488.168 611.098C516.667 609.719 640.562 625.583 602.252 546.927Z" fill="#387C8B"/>
<path d="M107.073 754.726C107.073 754.726 115.972 741.976 107.073 731.852C98.1737 721.728 99.8423 752.545 99.8423 752.545C99.8423 752.545 59.4189 766.363 22.2437 771.681C-14.9315 776.999 12.4549 789.482 12.4549 789.482L99.8423 796.58L132.368 801.363C132.368 801.363 134.637 714.475 107.073 754.726Z" fill="#D38616"/>
<path d="M132.367 779.58C132.367 779.58 141.755 771.881 132.878 760C124.002 748.118 110.631 760 110.631 760C113.687 765.824 116.011 772.005 117.55 778.401C117.55 778.401 54.7905 802.743 24.9347 804.323C-4.92117 805.903 12.4984 820.944 12.4984 820.944C12.4984 820.944 97.4831 828.064 136.082 821.723L158.463 818.563L152.612 778.401C152.612 778.401 158.151 760.378 132.367 779.58Z" fill="#EF9E1D"/>
<path d="M616.49 343.022L607.413 478.351H563.186L576.489 360.823L616.49 343.022Z" fill="#4BAC89"/>
<path d="M367.721 804.879V793.197C367.721 786.116 370.534 779.324 375.54 774.317C380.547 769.31 387.338 766.497 394.418 766.497H571.729C578.809 766.497 585.6 769.31 590.606 774.317C595.613 779.324 598.425 786.116 598.425 793.197V804.879" stroke="white" stroke-width="2.85" stroke-miterlimit="10"/>
<path d="M612.671 812.254C618.731 804.359 617.243 793.044 609.349 786.983C601.454 780.923 590.141 782.41 584.081 790.306C578.021 798.202 579.509 809.516 587.403 815.577C595.298 821.638 606.611 820.15 612.671 812.254Z" fill="#464646"/>
<path d="M572.619 501.714L576.001 712.361C576.001 712.361 567.791 733.254 568.525 754.459C569.26 775.664 576.001 754.459 576.001 754.459C576.001 754.459 579.938 795.4 595.556 799.516C611.174 803.633 610.15 775.041 599.56 749.03C601.318 719.748 584.788 709.891 584.788 709.891L599.56 490.677L572.619 501.714Z" fill="#FFB883"/>
<path d="M613.042 478.351L558.647 469.317L563.186 503.449L613.042 498.198V478.351Z" fill="#3A8A6D"/>
<path d="M420.024 452.228C420.024 452.228 421.292 430.356 441.048 425.528C460.803 420.699 506.811 486.917 506.811 486.917C513.293 491.099 518.778 496.655 522.876 503.191C526.975 509.728 529.586 517.085 530.526 524.743C529.214 534.623 522.094 530.039 522.094 530.039C522.094 530.039 524.319 568.688 505.253 571.714C491.193 573.94 486.098 530.217 490.57 516.244C495.042 502.27 491.927 493.993 491.927 493.993C491.927 493.993 439.379 452.429 420.024 452.228Z" fill="#FFB883"/>
<path d="M372.397 818.835C382.081 816.54 388.072 806.827 385.777 797.142C383.482 787.456 373.772 781.465 364.087 783.76C354.403 786.055 348.413 795.767 350.707 805.452C353.002 815.138 362.713 821.13 372.397 818.835Z" fill="#464646"/>
<path d="M479.937 765.629V801.297" stroke="white" stroke-width="2.85" stroke-miterlimit="10"/>
<path d="M519.692 507.699C521.027 511.237 521.902 514.931 522.295 518.691C522.518 520.567 522.629 522.454 522.629 524.343C522.662 526.248 522.483 528.151 522.095 530.017C521.258 526.346 520.627 522.632 520.204 518.891C519.722 515.181 519.551 511.438 519.692 507.699Z" fill="#DB8346"/>
<path d="M516.088 535.246C516.659 540.545 516.741 545.885 516.333 551.199C516.133 553.847 515.91 556.517 515.488 559.143C515.119 561.796 514.538 564.415 513.752 566.975C513.752 561.613 513.908 556.339 514.242 551.066C514.539 545.76 515.155 540.477 516.088 535.246Z" fill="#DB8346"/>
<path d="M508.457 535.246C508.847 541.368 508.78 547.512 508.257 553.625C507.856 559.754 506.85 565.828 505.254 571.759C505.254 568.688 505.387 565.64 505.565 562.592C505.743 559.543 505.921 556.495 506.144 553.447C506.574 547.341 507.346 541.265 508.457 535.246Z" fill="#DB8346"/>
<path d="M498.179 536.937C498.723 541.923 498.879 546.945 498.646 551.956C498.503 556.975 497.96 561.975 497.022 566.908C496.46 561.915 496.296 556.886 496.533 551.867C496.673 546.853 497.223 541.86 498.179 536.937Z" fill="#DB8346"/>
<path d="M582.652 757.752C584.877 764.427 586.367 771.102 587.902 777.778L590.127 787.902L591.173 792.975C591.472 794.672 591.896 796.346 592.441 797.981C590.724 794.945 589.408 791.699 588.525 788.324C587.502 784.987 586.679 781.649 585.9 778.245C584.34 771.498 583.254 764.65 582.652 757.752Z" fill="#DB8346"/>
<path d="M587.947 757.752C590.683 764.538 592.886 771.481 595.044 778.401L598.181 788.836C599.271 792.285 600.138 795.823 601.562 799.183C599.522 796.125 597.863 792.83 596.623 789.37C595.266 785.966 594.132 782.517 593.019 779.024C590.84 772.059 589.145 764.951 587.947 757.752Z" fill="#DB8346"/>
<path d="M596.646 757.752C599.033 763.074 601.055 768.553 602.697 774.151C604.441 779.731 605.794 785.426 606.746 791.195C604.345 785.868 602.316 780.381 600.672 774.774C598.948 769.197 597.603 763.51 596.646 757.752Z" fill="#DB8346"/>
<path d="M110.275 791.996C110.755 788.902 110.561 785.741 109.704 782.73C108.848 779.719 107.35 776.929 105.314 774.551C102.711 771.525 98.506 769.144 94.8129 770.635C97.6156 775.27 101.416 779.223 105.937 782.206C106.6 782.72 107.355 783.105 108.161 783.34C109.456 783.486 110.766 783.326 111.988 782.873C115.687 781.934 119.532 781.722 123.312 782.25C127.361 782.829 132.211 785.565 131.521 789.615C126.895 789.886 122.266 789.153 117.95 787.467C113.634 785.781 109.733 783.181 106.515 779.847C107.308 785.798 107.539 791.81 107.205 797.803V784.253C107.272 783.681 107.13 783.104 106.804 782.628C106.547 782.433 106.251 782.297 105.936 782.227C105.621 782.158 105.295 782.158 104.98 782.228H88.7617C94.2455 785.193 100.252 787.067 106.448 787.746" stroke="#160033" stroke-linecap="round" stroke-linejoin="round"/>
<path d="M88.8293 757.596C89.3297 754.751 89.261 751.835 88.6271 749.016C87.9932 746.197 86.8068 743.532 85.1363 741.175C84.3857 739.934 83.2426 738.979 81.8882 738.461C81.203 738.242 80.4602 738.293 79.8112 738.603C79.1622 738.913 78.6558 739.459 78.3953 740.129C78.3001 740.884 78.3997 741.65 78.6845 742.355C79.7776 745.586 81.2172 748.689 82.9783 751.611C87.7217 750.165 92.8276 750.481 97.3566 752.501C101.886 754.52 105.533 758.108 107.628 762.603C98.9296 762.603 91.5435 756.55 85.0028 750.788C82.8179 752.983 80.1759 754.669 77.265 755.727C74.3541 756.785 71.2459 757.187 68.1616 756.906C74.7057 754.585 81.5142 753.09 88.4289 752.456C88.362 756.627 87.3262 760.726 85.4033 764.427L84.7359 762.425" stroke="#160033" stroke-linecap="round" stroke-linejoin="round"/>
<path d="M220.666 608.673C227.607 597.266 234.622 585.888 241.712 574.54C248.787 563.215 255.861 551.889 263.069 540.63L263.27 540.296H263.626L297.33 530.773L331.079 521.495C342.203 518.357 353.616 515.42 364.895 512.394C376.174 509.368 387.454 506.453 398.778 503.494C387.61 506.891 376.427 510.236 365.229 513.529C354.105 516.755 342.826 520.093 331.591 523.252L297.909 532.798L264.182 542.121L264.738 541.698C257.604 552.927 250.329 564.127 242.913 575.297C235.498 586.467 228.082 597.592 220.666 608.673Z" fill="#160033"/>
<path d="M324.65 335.613C324.65 335.613 339.645 328.559 340.824 305.485C342.003 282.411 298.977 272.109 317.665 241.492C336.352 210.876 351.169 193.031 338.577 160.1C325.985 127.169 297.42 145.97 297.42 145.97C297.42 145.97 313.527 175.141 307.52 204.334C301.513 233.527 288.81 266.124 301.268 278.762C313.727 291.401 341.18 309.735 324.65 335.613Z" fill="url(#paint1_linear)"/>
<path d="M289.497 57.9571V67.1313H285.207V42.4405H294.652C297.411 42.4405 299.598 43.1584 301.215 44.5942C302.843 46.0299 303.657 47.9292 303.657 50.292C303.657 52.7114 302.86 54.5937 301.266 55.9391C299.683 57.2844 297.462 57.9571 294.601 57.9571H289.497ZM289.497 54.5146H294.652C296.178 54.5146 297.343 54.1585 298.146 53.4462C298.948 52.7227 299.35 51.6826 299.35 50.326C299.35 48.9919 298.943 47.9292 298.129 47.1379C297.315 46.3352 296.195 45.9225 294.771 45.8999H289.497V54.5146ZM318.224 61.3826H308.659L306.658 67.1313H302.198L311.525 42.4405H315.375L324.719 67.1313H320.242L318.224 61.3826ZM309.864 57.9231H317.02L313.442 47.6805L309.864 57.9231ZM346.086 63.9263C345.193 65.0907 343.955 65.9726 342.372 66.5717C340.789 67.1709 338.992 67.4705 336.979 67.4705C334.91 67.4705 333.079 67.0013 331.485 66.063C329.891 65.1247 328.659 63.785 327.788 62.0439C326.929 60.2916 326.482 58.251 326.448 55.9221V53.9889C326.448 50.2581 327.342 47.347 329.128 45.2555C330.914 43.1527 333.407 42.1013 336.606 42.1013C339.353 42.1013 341.535 42.7796 343.152 44.1363C344.769 45.4929 345.741 47.4488 346.069 50.0038H341.863C341.388 47.0305 339.664 45.5438 336.691 45.5438C334.769 45.5438 333.305 46.2391 332.299 47.6296C331.304 49.0089 330.79 51.0382 330.756 53.7176V55.6169C330.756 58.2849 331.315 60.3594 332.435 61.8404C333.565 63.3101 335.131 64.045 337.132 64.045C339.325 64.045 340.885 63.5476 341.812 62.5527V57.7197H336.725V54.4637H346.086V63.9263ZM365.231 56.1086H355.091V63.7058H366.944V67.1313H350.8V42.4405H366.825V45.8999H355.091V52.717H365.231V56.1086ZM398.673 67.1313H394.382L383.376 49.6137V67.1313H379.086V42.4405H383.376L394.416 60.0259V42.4405H398.673V67.1313ZM423.448 55.4303C423.448 57.8497 423.03 59.9751 422.193 61.8065C421.357 63.6267 420.158 65.0286 418.598 66.0121C417.049 66.9844 415.263 67.4705 413.24 67.4705C411.238 67.4705 409.452 66.9844 407.881 66.0121C406.321 65.0286 405.111 63.6323 404.252 61.8235C403.404 60.0146 402.974 57.9288 402.963 55.566V54.1754C402.963 51.7674 403.387 49.642 404.235 47.7992C405.094 45.9564 406.298 44.5489 407.847 43.5767C409.407 42.5931 411.193 42.1013 413.206 42.1013C415.218 42.1013 416.999 42.5875 418.547 43.5597C420.108 44.5207 421.312 45.9112 422.159 47.7314C423.007 49.5402 423.437 51.6487 423.448 54.0567V55.4303ZM419.158 54.1415C419.158 51.4056 418.638 49.3085 417.598 47.8501C416.569 46.3917 415.105 45.6625 413.206 45.6625C411.352 45.6625 409.899 46.3917 408.847 47.8501C407.807 49.2972 407.276 51.3491 407.253 54.0058V55.4303C407.253 58.1436 407.779 60.2407 408.83 61.7217C409.893 63.2027 411.363 63.9432 413.24 63.9432C415.139 63.9432 416.597 63.2197 417.615 61.7726C418.643 60.3255 419.158 58.2114 419.158 55.4303V54.1415ZM444.103 45.8999H436.404V67.1313H432.148V45.8999H424.517V42.4405H444.103V45.8999ZM469.218 56.6683H459.281V67.1313H454.99V42.4405H470.676V45.8999H459.281V53.2427H469.218V56.6683ZM493.79 55.4303C493.79 57.8497 493.372 59.9751 492.535 61.8065C491.699 63.6267 490.5 65.0286 488.94 66.0121C487.391 66.9844 485.605 67.4705 483.581 67.4705C481.58 67.4705 479.794 66.9844 478.223 66.0121C476.662 65.0286 475.453 63.6323 474.594 61.8235C473.746 60.0146 473.316 57.9288 473.305 55.566V54.1754C473.305 51.7674 473.729 49.642 474.577 47.7992C475.436 45.9564 476.64 44.5489 478.189 43.5767C479.749 42.5931 481.535 42.1013 483.547 42.1013C485.56 42.1013 487.34 42.5875 488.889 43.5597C490.449 44.5207 491.653 45.9112 492.501 47.7314C493.349 49.5402 493.779 51.6487 493.79 54.0567V55.4303ZM489.5 54.1415C489.5 51.4056 488.98 49.3085 487.94 47.8501C486.911 46.3917 485.447 45.6625 483.547 45.6625C481.693 45.6625 480.241 46.3917 479.189 47.8501C478.149 49.2972 477.618 51.3491 477.595 54.0058V55.4303C477.595 58.1436 478.121 60.2407 479.172 61.7217C480.235 63.2027 481.705 63.9432 483.581 63.9432C485.481 63.9432 486.939 63.2197 487.957 61.7726C488.985 60.3255 489.5 58.2114 489.5 55.4303V54.1415ZM516.124 42.4405V58.9406C516.124 61.5635 515.281 63.6437 513.597 65.1812C511.924 66.7074 509.691 67.4705 506.899 67.4705C504.072 67.4705 501.828 66.7187 500.166 65.2151C498.504 63.7002 497.673 61.603 497.673 58.9237V42.4405H501.947V58.9576C501.947 60.6082 502.365 61.8687 503.202 62.7392C504.038 63.6097 505.271 64.045 506.899 64.045C510.2 64.045 511.85 62.304 511.85 58.8219V42.4405H516.124ZM540.306 67.1313H536.016L525.01 49.6137V67.1313H520.719V42.4405H525.01L536.049 60.0259V42.4405H540.306V67.1313ZM545.376 67.1313V42.4405H552.668C554.85 42.4405 556.783 42.9266 558.468 43.8989C560.164 44.8711 561.475 46.2504 562.402 48.0366C563.329 49.8229 563.793 51.8691 563.793 54.1754V55.4134C563.793 57.7536 563.324 59.8111 562.385 61.5861C561.458 63.361 560.13 64.729 558.4 65.6899C556.682 66.6509 554.709 67.1313 552.482 67.1313H545.376ZM549.667 45.8999V63.7058H552.465C554.715 63.7058 556.439 63.0049 557.637 61.603C558.847 60.1899 559.463 58.1662 559.485 55.5321V54.1585C559.485 51.4791 558.903 49.4328 557.739 48.0197C556.574 46.6065 554.884 45.8999 552.668 45.8999H549.667Z" fill="#EF2E4A"/>
<path d="M592.523 1.03918H257.871C255.661 1.03918 253.871 2.83004 253.871 5.03918V106.224C253.871 108.433 255.661 110.224 257.871 110.224H592.523C594.732 110.224 596.523 108.433 596.523 106.224V5.03918C596.523 2.83005 594.732 1.03918 592.523 1.03918Z" stroke="#EF2E4A" stroke-width="2" stroke-miterlimit="10"/>
<path d="M482.815 819.066C492.638 817.468 499.306 808.207 497.708 798.383C496.11 788.558 486.851 781.889 477.028 783.488C467.205 785.086 460.537 794.346 462.135 804.171C463.733 813.995 472.992 820.664 482.815 819.066Z" fill="#363636"/>
<path d="M500.059 648.613H459.836V768.125H500.059V648.613Z" fill="#212121"/>
<defs>
<linearGradient id="paint0_linear" x1="311.213" y1="314.23" x2="302.267" y2="191.896" gradientUnits="userSpaceOnUse">
<stop stop-color="white" stop-opacity="0.2"/>
<stop offset="1" stop-color="#EBEAEA" stop-opacity="0"/>
</linearGradient>
<linearGradient id="paint1_linear" x1="327.043" y1="324.112" x2="313.704" y2="191.334" gradientUnits="userSpaceOnUse">
<stop stop-color="white" stop-opacity="0.2"/>
<stop offset="1" stop-color="#EBEAEA" stop-opacity="0"/>
</linearGradient>
</defs>
</svg>
